<?xml version="1.0" standalone="no"?>
<!DOCTYPE svg PUBLIC "-//W3C//DTD SVG 1.1//EN" "http://www.w3.org/Graphics/SVG/1.1/DTD/svg11.dtd" >
<svg>
<metadata>
Created by FontForge 20090914 at Tue May  8 09:24:05 2018
 By www-data
Copyright (c) 2002, 2005 Parachute&#194;&#168;, www.parachute.gr.  All rights reserved.
</metadata>
<defs>
<font id="PFDinDisplayPro-Thin" horiz-adv-x="1818" >
  <font-face 
    font-family="PF DinDisplay Pro Thin"
    font-weight="200"
    font-stretch="normal"
    units-per-em="1000"
    panose-1="2 0 5 6 0 0 0 2 0 4"
    ascent="750"
    descent="-250"
    x-height="490"
    cap-height="689"
    bbox="-157 -240.002 1760 913.002"
    underline-thickness="50"
    underline-position="-50"
    unicode-range="U+0020-U+FB05"
  />
<missing-glyph horiz-adv-x="432" 
d="M0 700h432v-700h-432v700zM376 669h-320l160 -291zM402 49v604l-166 -303zM376 31l-160 291l-160 -291h320zM30 51l166 299l-166 300v-599z" />
    <glyph glyph-name="fj" unicode="fj" horiz-adv-x="424" 
d="M310 450l-174 0.00195312v-450h-45v450h-60v42h60v109c0 39.333 11.167 68.833 33.5 88.5s49.166 29.5 80.499 29.5h67v-42h-58c-16 0 -29 -2.33301 -39 -7s-18 -10.834 -24 -18.501s-10 -16.834 -12 -27.501s-3 -22 -3 -34v-98h219v-579
c0 -42.667 -9.16699 -73.667 -27.5 -93s-46.166 -29 -83.499 -29h-38v41h31c27.333 0 46.333 6.33301 57 19s16 36 16 70v529zM365 662.002c0 -9.33301 -3.16699 -17 -9.5 -23s-14.166 -9 -23.499 -9c-8.66699 0 -16 3 -22 9s-9 13.667 -9 23s3 17.166 9 23.499
s13.333 9.5 22 9.5c9.33301 0 17.166 -3.16699 23.499 -9.5s9.5 -14.166 9.5 -23.499z" />
    <glyph glyph-name="ffj" unicode="ffj" horiz-adv-x="642" 
d="M528 450l-173.999 0.00390625v-450h-45v450h-173v-450h-45v450h-60v42h60v89c0 39.333 11.167 68.833 33.5 88.5s49.166 29.5 80.499 29.5h61v-42h-52c-16 0 -29 -2.33301 -39 -7s-18 -10.834 -24 -18.501s-10 -16.834 -12 -27.501s-3 -22 -3 -34v-78h173v109
c0 39.333 11.167 68.833 33.5 88.5s49.166 29.5 80.499 29.5h66v-42h-57c-16 0 -29 -2.33301 -39 -7s-18 -10.834 -24 -18.501s-10 -16.834 -12 -27.501s-3 -22 -3 -34v-98h219v-579c0 -42.667 -9.16699 -73.667 -27.5 -93s-46.166 -29 -83.499 -29h-38v41h31
c26.667 0 45.5 6.33301 56.5 19s16.5 36 16.5 70v529zM583.001 662.004c0 -9.33301 -3.16699 -17 -9.5 -23s-14.166 -9 -23.499 -9c-8.66699 0 -16.167 3 -22.5 9s-9.5 13.667 -9.5 23s3.16699 17.166 9.5 23.499s13.833 9.5 22.5 9.5
c9.33301 0 17.166 -3.16699 23.499 -9.5s9.5 -14.166 9.5 -23.499z" />
    <glyph glyph-name="ff" unicode="ff" horiz-adv-x="500" 
d="M355 450v-449.996h-46v450h-173v-450h-45v450h-60v42h60v89c0 40 11 69.667 33 89s49 29 81 29h72v-41h-63c-16 0 -29 -2.33301 -39 -7s-18 -10.834 -24 -18.501s-10 -16.834 -12 -27.501s-3 -22 -3 -34v-79h173v109c0 20 3 37.333 9 52s14.167 27 24.5 37
s22.5 17.333 36.5 22s28.667 7 44 7h72v-41h-63c-16 0 -29 -2.33301 -39 -7s-17.833 -10.834 -23.5 -18.501s-9.5 -16.834 -11.5 -27.501s-3 -22 -3 -34v-99h140v-42h-140z" />
    <glyph glyph-name="fi" unicode="fi" horiz-adv-x="424" 
d="M310 0l0.000976562 450.002h-174v-450h-45v450h-60v42h60v109c0 39.333 11.167 68.833 33.5 88.5s49.166 29.5 80.499 29.5h67v-42h-58c-16 0 -29 -2.33301 -39 -7s-18 -10.834 -24 -18.501s-10 -16.834 -12 -27.501s-3 -22 -3 -34v-98h219v-492h-45zM365.001 662.002
c0 -9.33301 -3.16699 -17 -9.5 -23s-14.166 -9 -23.499 -9c-8.66699 0 -16 3 -22 9s-9 13.667 -9 23s3 17.166 9 23.499s13.333 9.5 22 9.5c9.33301 0 17.166 -3.16699 23.499 -9.5s9.5 -14.166 9.5 -23.499z" />
    <glyph glyph-name="fl" unicode="fl" horiz-adv-x="468" 
d="M353 113c0 -31.333 5.83301 -51.832 17.5 -61.499s31.5 -13.834 59.5 -12.501l2 -41c-6 -1.33301 -11.5 -2 -16.5 -2h-15.5c-34 0 -57.667 9.16699 -71 27.5s-20 45.833 -20 82.5v565c-13.333 5.33301 -27 9 -41 11s-27.667 3 -41 3c-32 0 -55.333 -6.83301 -70 -20.5
s-22 -36.5 -22 -68.5v-105h119v-41h-119v-450h-44v450h-61v41h61v107c0 24.667 3.66699 45.167 11 61.5s17.333 29.5 30 39.5s27 17.167 43 21.5s33 6.5 51 6.5c16 0 33.667 -1.16699 53 -3.5s44 -7.83301 74 -16.5v-594z" />
    <glyph glyph-name="ffi" unicode="ffi" horiz-adv-x="642" 
d="M528 0l0.00195312 450.004h-174v-450h-45v450h-173v-450h-45v450h-60v42h60v89c0 39.333 11.167 68.833 33.5 88.5s49.166 29.5 80.499 29.5h61v-42h-52c-16 0 -29 -2.33301 -39 -7s-18 -10.834 -24 -18.501s-10 -16.834 -12 -27.501s-3 -22 -3 -34v-78h173v109
c0 39.333 11.167 68.833 33.5 88.5s49.166 29.5 80.499 29.5h66v-42h-57c-16 0 -29 -2.33301 -39 -7s-18 -10.834 -24 -18.501s-10 -16.834 -12 -27.501s-3 -22 -3 -34v-98h219v-492h-45zM583.002 662.004c0 -9.33301 -3.16699 -17 -9.5 -23s-14.166 -9 -23.499 -9
c-8.66699 0 -16.167 3 -22.5 9s-9.5 13.667 -9.5 23s3.16699 17.166 9.5 23.499s13.833 9.5 22.5 9.5c9.33301 0 17.166 -3.16699 23.499 -9.5s9.5 -14.166 9.5 -23.499z" />
    <glyph glyph-name="ffl" unicode="ffl" horiz-adv-x="686" 
d="M571 113c0 -31.333 5.83398 -51.8291 17.501 -61.4961s31.5 -13.834 59.5 -12.501l2 -41c-6 -1.33301 -11.5 -2 -16.5 -2h-15.5c-34 0 -57.667 9.16699 -71 27.5s-20 45.833 -20 82.5v565c-13.333 5.33301 -27 9 -41 11s-27.667 3 -41 3
c-32 0 -55.333 -6.83301 -70 -20.5s-22 -36.5 -22 -68.5v-105h119v-41h-119v-450h-45v450h-173v-450h-44v450h-61v41h61v91c0 39.333 11 68.666 33 87.999s48.667 29 80 29h67v-41h-57c-16 0 -29.167 -2.33301 -39.5 -7s-18.5 -10.834 -24.5 -18.501
s-10 -16.834 -12 -27.501s-3 -22 -3 -34v-80h173v107c0 24.667 3.66699 45.167 11 61.5s17.333 29.5 30 39.5s27.167 17.167 43.5 21.5s33.166 6.5 50.499 6.5c16.667 0 34.667 -1.16699 54 -3.5s44 -7.83301 74 -16.5v-594z" />
    <glyph glyph-name="ft" unicode="ft" horiz-adv-x="537" 
d="M523 5c-15.333 -4.66699 -31.334 -7.49805 -48.001 -8.49805s-29 -1.5 -37 -1.5c-48.667 0 -82.167 11.167 -100.5 33.5s-27.5 58.833 -27.5 109.5v312h-174v-450h-45v450h-60v42h60v109c0 40 11 69.667 33 89s49 29 81 29h65v-41h-56c-16 0 -29 -2.33301 -39 -7
s-18 -10.834 -24 -18.501s-10 -16.834 -12 -27.501s-3 -22 -3 -34v-99h175l13 116h31v-116h146v-42h-146v-299c0 -42 6.16699 -71.5 18.5 -88.5s35.833 -25.5 70.5 -25.5c8.66699 0 19.334 0.5 32.001 1.5s25.667 2.83301 39 5.5z" />
    <glyph glyph-name=".notdef" horiz-adv-x="432" 
d="M0 700h432v-700h-432v700zM376 669h-320l160 -291zM402 49v604l-166 -303zM376 31l-160 291l-160 -291h320zM30 51l166 299l-166 300v-599z" />
    <glyph glyph-name="space" unicode=" " horiz-adv-x="205" 
 />
    <glyph glyph-name="exclam" unicode="!" horiz-adv-x="211" 
d="M68 35c0 9.33301 3.33398 17.666 10.001 24.999s15.667 11 27 11s20.666 -3.66699 27.999 -11s11 -15.666 11 -24.999c0 -11.333 -3.5 -20.333 -10.5 -27s-16.167 -10 -27.5 -10c-12 0 -21.333 3.33301 -28 10s-10 15.667 -10 27zM86.001 152c0 42 -0.333008 86 -1 132
s-1.16699 92.333 -1.5 139s-0.833008 93.167 -1.5 139.5l-2 133.5h49c0 -42.667 -0.333008 -87.167 -1 -133.5s-1.16699 -92.833 -1.5 -139.5s-0.833008 -93 -1.5 -139l-2 -132h-37z" />
    <glyph glyph-name="quotedbl" unicode="&#x22;" horiz-adv-x="246" 
d="M152 519v177h37v-177h-37zM57 519v177h37v-177h-37z" />
    <glyph glyph-name="numbersign" unicode="#" horiz-adv-x="491" 
d="M363 441l-26 -183h103v-35h-107l-30 -223h-39l31 223h-144l-31 -223h-39l31 223h-96v35h101l25 183h-97v35h103l30 219h36l-29 -219h145l31 219h37l-30 -219h100v-35h-105zM180 441l-24 -183h144l25 183h-145z" />
    <glyph glyph-name="dollar" unicode="$" horiz-adv-x="473" 
d="M250 689c30 -1.33301 59.501 -5.33105 88.501 -11.998s56.5 -17.334 82.5 -32.001l-20 -40c-51.333 28 -107.333 42 -168 42c-19.333 0 -38 -2.66699 -56 -8s-34 -13.833 -48 -25.5s-25.333 -26.334 -34 -44.001s-13 -38.834 -13 -63.501c0 -23.333 5 -42.833 15 -58.5
s23.167 -28.667 39.5 -39s34.5 -18.5 54.5 -24.5s40 -11.333 60 -16c28.667 -6 55.5 -13.333 80.5 -22s46.667 -20 65 -34s32.666 -31.667 42.999 -53s15.5 -48 15.5 -80c0 -28 -5 -53 -15 -75s-24 -40.833 -42 -56.5s-39.5 -28 -64.5 -37s-52.833 -13.833 -83.5 -14.5v-92
h-36v93c-70.667 2.66699 -134.334 24.334 -191.001 65.001l24 37c28 -18.667 58.333 -33.5 91 -44.5s66.334 -16.5 101.001 -16.5c24 0 46.333 3 67 9s38.5 15 53.5 27s26.833 26.667 35.5 44s13 37.666 13 60.999c0 26 -5 47.5 -15 64.5s-23 31 -39 42
s-34.333 19.5 -55 25.5s-41.334 11 -62.001 15c-24 4.66699 -48.167 11 -72.5 19s-46 18.833 -65 32.5s-34.5 31 -46.5 52s-18 47.167 -18 78.5c0 25.333 4.33301 48.5 13 69.5s20.834 39.333 36.501 55s34.5 28.334 56.5 38.001s46.333 15.5 73 17.5v85h36v-84z" />
    <glyph glyph-name="percent" unicode="%" horiz-adv-x="760" 
d="M310 385c0 -16 -3.33301 -30.667 -10 -44s-15.834 -25 -27.501 -35s-25.667 -17.667 -42 -23s-34.166 -8 -53.499 -8c-39.333 0 -71.333 10.333 -96 31s-37 47 -37 79v199c0 16 3.5 30.667 10.5 44s16.5 24.833 28.5 34.5s26 17.334 42 23.001s33.333 8.5 52 8.5
c19.333 0 37.166 -2.83301 53.499 -8.5s30.333 -13.334 42 -23.001s20.834 -21.167 27.501 -34.5s10 -28 10 -44v-199zM271 577c0 14.667 -3 27.167 -9 37.5s-13.667 18.666 -23 24.999s-19.5 10.833 -30.5 13.5s-21.5 4 -31.5 4s-20.333 -1.33301 -31 -4
s-20.667 -7.16699 -30 -13.5s-17 -14.666 -23 -24.999s-9 -22.833 -9 -37.5v-186c0 -14.667 3 -27.167 9 -37.5s13.667 -18.666 23 -24.999s19.333 -10.833 30 -13.5s21 -4 31 -4s20.5 1.33301 31.5 4s21.167 7.16699 30.5 13.5s17 14.666 23 24.999s9 22.833 9 37.5v186z
M715 106c0 -16 -3.33301 -30.667 -10 -44s-15.834 -25 -27.501 -35s-25.667 -17.667 -42 -23s-34.166 -8 -53.499 -8c-39.333 0 -71.333 10.5 -96 31.5s-37 47.5 -37 79.5v199c0 15.333 3.5 29.666 10.5 42.999s16.5 25 28.5 35s26 17.833 42 23.5s33.333 8.5 52 8.5
c19.333 0 37.166 -2.83301 53.499 -8.5s30.333 -13.5 42 -23.5s20.834 -21.667 27.501 -35s10 -27.666 10 -42.999v-200zM676 298c0 14.667 -3 27.167 -9 37.5s-13.667 18.833 -23 25.5s-19.5 11.334 -30.5 14.001s-21.5 4 -31.5 4s-20.333 -1.33301 -31 -4
s-20.667 -7.33398 -30 -14.001s-17 -15.167 -23 -25.5s-9 -22.833 -9 -37.5v-186c0 -14.667 3 -27.167 9 -37.5s13.667 -18.666 23 -24.999s19.333 -10.833 30 -13.5s21 -4 31 -4s20.5 1.33301 31.5 4s21.167 7.16699 30.5 13.5s17 14.666 23 24.999s9 22.833 9 37.5v186z
M186 -17h-39l424 731h40z" />
    <glyph glyph-name="ampersand" unicode="&#x26;" horiz-adv-x="791" 
d="M726 -46c-31.333 14 -61.499 31.4961 -90.499 52.4961s-55.833 43.167 -80.5 66.5c-35.333 -27.333 -73 -47.666 -113 -60.999s-78.667 -20 -116 -20c-29.333 0 -56.5 3.83301 -81.5 11.5s-47 19.334 -66 35.001s-33.833 35.334 -44.5 59.001s-16 51.5 -16 83.5
c0 46.667 15.667 87.667 47 123s74.666 68 129.999 98c-22.667 30 -38.667 56.833 -48 80.5s-14 45.167 -14 64.5c0 18.667 3 36.334 9 53.001s14.667 31.334 26 44.001s25.166 22.667 41.499 30s34.833 11 55.5 11c20 0 38.333 -3.33301 55 -10
s30.834 -15.834 42.501 -27.501s20.834 -25.167 27.501 -40.5s10 -31.333 10 -48c0 -36 -13 -67.833 -39 -95.5s-61.333 -53.167 -106 -76.5c12.667 -20 27.167 -41.167 43.5 -63.5l51 -67.5c17.667 -22.667 36 -45 55 -67l55.5 -63c18.667 17.333 36 36.5 52 57.5
s29.833 43.333 41.5 67s20.834 48.667 27.501 75s10 53.5 10 81.5c0 46 -6.83301 90 -20.5 132s-34 79 -61 111s-60.333 57.5 -100 76.5s-85.834 28.5 -138.501 28.5c-42.667 0 -81.834 -6.66699 -117.501 -20s-66.5 -31.333 -92.5 -54s-46.333 -49 -61 -79
s-22 -61.333 -22 -94c0 -23.333 4 -47.5 12 -72.5s20.667 -49.167 38 -72.5l-31 -22c-19.333 26.667 -33.5 53.834 -42.5 81.501s-13.5 55.5 -13.5 83.5c0 37.333 8 73.166 24 107.499s38.5 64.666 67.5 90.999s63.667 47.333 104 63s84.833 23.5 133.5 23.5
c58 0 109.333 -10.333 154 -31s82.167 -48.5 112.5 -83.5s53.333 -75.833 69 -122.5s23.5 -96 23.5 -148c0 -31.333 -3.66699 -61.333 -11 -90s-17.5 -56 -30.5 -82s-28.167 -50.167 -45.5 -72.5s-36.333 -42.833 -57 -61.5c26.667 -25.333 53.167 -47.666 79.5 -66.999
s52.833 -34.333 79.5 -45zM458.001 558.996c0 12.667 -2.66797 24.499 -8.00098 35.499s-12.333 20.333 -21 28s-18.667 13.667 -30 18s-23 6.5 -35 6.5c-16 0 -29.667 -3.33301 -41 -10s-20.5 -15 -27.5 -25s-12.167 -20.667 -15.5 -32s-5 -21.666 -5 -30.999
c0 -18.667 5.33301 -38.834 16 -60.501s24.667 -44.5 42 -68.5c16.667 8.66699 32.5 17.834 47.5 27.501s28.333 20 40 31s20.834 23.167 27.501 36.5s10 28 10 44zM530 99.9951c-40 42 -78.002 86.833 -114.002 134.5l-99 135.5c-22 -12 -42.667 -24.667 -62 -38
s-36.166 -27.666 -50.499 -42.999s-25.666 -31.833 -33.999 -49.5s-12.5 -36.5 -12.5 -56.5c0 -26.667 4.33301 -49.667 13 -69s20.5 -35.333 35.5 -48s32.5 -22.167 52.5 -28.5s41 -9.5 63 -9.5c32 0 66.167 5.66699 102.5 17s71.5 29.666 105.5 54.999z" />
    <glyph glyph-name="quotesingle" unicode="'" horiz-adv-x="211" 
d="M90 519v177h38v-177h-38z" />
    <glyph glyph-name="parenleft" unicode="(" horiz-adv-x="262" 
d="M229 -119c-22.667 26 -43.832 55.0029 -63.499 87.0029s-36.834 66 -51.501 102s-26.334 73.333 -35.001 112s-13 78 -13 118c0 38 4 76.167 12 114.5s19 75.666 33 111.999s30.833 70.833 50.5 103.5s41.167 62.667 64.5 90l22 -13
c-41.333 -58.667 -73.666 -123.167 -96.999 -193.5s-35 -139.833 -35 -208.5c0 -74.667 12 -147.334 36 -218.001s56 -134.334 96 -191.001l-19 -15v0z" />
    <glyph glyph-name="parenright" unicode=")" horiz-adv-x="262" 
d="M27 -106c40 56.667 71.835 120.331 95.502 190.998s35.5 143.334 35.5 218.001c0 69.333 -11.5 139 -34.5 209s-55.167 134.333 -96.5 193l21 13c24 -27.333 45.833 -57.333 65.5 -90s36.5 -67.167 50.5 -103.5s25 -73.666 33 -111.999s12 -76.5 12 -114.5
c0 -39.333 -4.33301 -78.5 -13 -117.5s-20.334 -76.5 -35.001 -112.5s-31.834 -70 -51.501 -102s-40.5 -61 -62.5 -87z" />
    <glyph glyph-name="asterisk" unicode="*" horiz-adv-x="343" 
d="M279 447l-17.999 -14.002c-8.66699 -6.66699 -14.667 -11 -18 -13l-69 108l-68 -109l-35 28l79 96c-3.33301 0.666992 -10.833 2.83398 -22.5 6.50098l-38 11.5l-38 11.5c-11.667 3.66699 -18.834 5.83398 -21.501 6.50098c1.33301 3.33301 3.5 10 6.5 20
s5.16699 17 6.5 21l118 -49l-8 125h42l-8 -125l119 49l13 -42l-121 -35z" />
    <glyph glyph-name="plus" unicode="+" horiz-adv-x="473" 
d="M255 261v-194h-37v194h-188v38h188v192h37v-192h188v-38h-188z" />
    <glyph glyph-name="comma" unicode="," horiz-adv-x="200" 
d="M60 33c0 10.667 4 19.5 12 26.5s17.667 10.5 29 10.5c14 0 25 -5.16699 33 -15.5s12 -23.5 12 -39.5c0 -23.333 -6.83301 -45.333 -20.5 -66s-30.167 -36 -49.5 -46l-16 20c26 19.333 39.667 43.333 41 72c-12 -0.666992 -21.833 2.5 -29.5 9.5s-11.5 16.5 -11.5 28.5z
" />
    <glyph glyph-name="hyphen" unicode="-" horiz-adv-x="370" 
d="M53 245v43h264v-43h-264z" />
    <glyph glyph-name="period" unicode="." horiz-adv-x="188" 
d="M55 36c0 9.33301 3.5 17.833 10.5 25.5s16.833 11.5 29.5 11.5c11.333 0 20.833 -3.83301 28.5 -11.5s11.5 -16.167 11.5 -25.5c0 -11.333 -3.5 -21 -10.5 -29s-16.833 -12 -29.5 -12s-22.5 3.83301 -29.5 11.5s-10.5 17.5 -10.5 29.5z" />
    <glyph glyph-name="slash" unicode="/" horiz-adv-x="290" 
d="M41 -25h-39l245 743h39z" />
    <glyph glyph-name="zero" unicode="0" horiz-adv-x="473" 
d="M437 171c0 -26 -5.16699 -49.8311 -15.5 -71.498s-24.5 -40.334 -42.5 -56.001s-39.167 -27.834 -63.5 -36.501s-50.5 -13 -78.5 -13s-54.167 4.5 -78.5 13.5s-45.5 21.5 -63.5 37.5s-32.167 34.833 -42.5 56.5s-15.5 45.5 -15.5 71.5v344c0 26 5.33301 49.833 16 71.5
s25.167 40.5 43.5 56.5s39.5 28.5 63.5 37.5s49.667 13.5 77 13.5c28 0 54.167 -4.5 78.5 -13.5s45.5 -21.5 63.5 -37.5s32.167 -34.833 42.5 -56.5s15.5 -45.5 15.5 -71.5v-346zM392 504.002c0 27.333 -5 50.5 -15 69.5s-22.667 34.333 -38 46s-32.166 20.167 -50.499 25.5
s-35.5 8 -51.5 8s-33.167 -2.66699 -51.5 -8s-35 -13.833 -50 -25.5s-27.5 -27 -37.5 -46s-15 -42.167 -15 -69.5v-320c0 -27.333 5 -50.333 15 -69s22.5 -33.834 37.5 -45.501s31.667 -20.167 50 -25.5s35.5 -8 51.5 -8s33.167 2.66699 51.5 8s35.166 13.833 50.499 25.5
s28 26.834 38 45.501s15 41.667 15 69v320z" />
    <glyph glyph-name="one" unicode="1" horiz-adv-x="473" 
d="M274 0l0.00195312 633.002l-117 -90c-2.66699 3.33301 -6.83398 9.16602 -12.501 17.499s-9.83398 14.166 -12.501 17.499c4 3.33301 12.833 10.333 26.5 21l44.5 34.5l45 34.5c14 10.667 23 17.667 27 21h45v-689h-46z" />
    <glyph glyph-name="two" unicode="2" horiz-adv-x="473" 
d="M436 523c0 -22 -4.33203 -43.166 -12.999 -63.499s-20.334 -39.833 -35.001 -58.5s-31.667 -36 -51 -52s-39.333 -30.333 -60 -43c-19.333 -12 -40 -25.833 -62 -41.5s-42.667 -33.334 -62 -53.001s-35.333 -41.5 -48 -65.5s-19 -50 -19 -78v-27h348v-41h-396v58
c0 31.333 5.66699 60.333 17 87s26.5 51.167 45.5 73.5s40.5 43 64.5 62s49 36.833 75 53.5c42 26 77.167 54.5 105.5 85.5s42.5 64.5 42.5 100.5c0 23.333 -4.5 43.333 -13.5 60s-20.833 30.334 -35.5 41.001s-31.667 18.5 -51 23.5s-39 7.5 -59 7.5
c-33.333 0 -63 -5.33301 -89 -16s-48.667 -23.334 -68 -38.001l-26 35c20 16.667 45.833 31.167 77.5 43.5s65.834 18.5 102.501 18.5c26.667 0 52.667 -3 78 -9s47.666 -15.833 66.999 -29.5s35 -31.5 47 -53.5s18 -48.667 18 -80z" />
    <glyph glyph-name="three" unicode="3" horiz-adv-x="473" 
d="M229 694c23.333 0 46.3301 -3.33887 68.9971 -10.0059s42.834 -17 60.501 -31s32 -31.833 43 -53.5s16.5 -47.5 16.5 -77.5c0 -17.333 -2.16699 -34.333 -6.5 -51s-11 -32.334 -20 -47.001s-20.167 -27.5 -33.5 -38.5s-29 -19.5 -47 -25.5c20 -6.66699 37 -16 51 -28
s25.5 -25.5 34.5 -40.5s15.5 -31.167 19.5 -48.5s6 -34.333 6 -51c0 -31.333 -5.5 -59.166 -16.5 -83.499s-26 -45 -45 -62s-41 -30 -66 -39s-51.833 -13.5 -80.5 -13.5c-42 0 -78.333 6.66699 -109 20s-55.667 28 -75 44c2.66699 4 7.16699 10 13.5 18s10.833 14 13.5 18
c19.333 -16 42.5 -29.833 69.5 -41.5s55.833 -17.5 86.5 -17.5c22.667 0 44 3.5 64 10.5s37.5 17.167 52.5 30.5s26.667 29.333 35 48s12.5 39.667 12.5 63c0 24 -3.66699 45.167 -11 63.5s-17.166 33.833 -29.499 46.5s-26.166 22.334 -41.499 29.001s-31 10 -47 10h-76v42
h76c12 0 25 2.83301 39 8.5s27.333 14.334 40 26.001s23.167 26.334 31.5 44.001s12.5 38.834 12.5 63.501c0 24 -4.33301 44.333 -13 61s-20 30.334 -34 41.001s-29.5 18.334 -46.5 23.001s-33.833 7 -50.5 7c-29.333 0 -57.5 -5.33301 -84.5 -16
s-49.833 -23.667 -68.5 -39l-28 35c27.333 21.333 55 37 83 47s61.333 15 100 15z" />
    <glyph glyph-name="four" unicode="4" horiz-adv-x="473" 
d="M384 113v-113h-47v113h-312v42l119 267l118 267h48l-235 -534h262v216h47v-216h61v-42h-61z" />
    <glyph glyph-name="five" unicode="5" horiz-adv-x="473" 
d="M428 169c0 -25.333 -5.16797 -48.8379 -15.501 -70.5049s-24.666 -40.167 -42.999 -55.5s-40 -27.333 -65 -36s-52.167 -13 -81.5 -13c-42 0 -77 6.83301 -105 20.5s-52 28.834 -72 45.501l28 35c20.667 -17.333 43.5 -31.666 68.5 -42.999s51.833 -17 80.5 -17
c14 0 30.167 2 48.5 6s35.666 11.333 51.999 22s30.333 25.334 42 44.001s17.5 42.334 17.5 71.001v99c0 43.333 -10 75.666 -30 96.999s-47.667 32 -83 32c-13.333 0 -27.666 -2.16699 -42.999 -6.5s-30.833 -9.83301 -46.5 -16.5s-30.834 -14 -45.501 -22
s-27.667 -15.667 -39 -23c-2 0.666992 -5.16699 1.83398 -9.5 3.50098l-14 5.5l-14 5.5c-4.33301 1.66699 -7.5 2.83398 -9.5 3.50098v333h361v-43h-314v-259c33.333 20.667 65.833 36.667 97.5 48s57.834 17 78.501 17c50 0 88.5 -15 115.5 -45s40.5 -70.667 40.5 -122
v-116v0z" />
    <glyph glyph-name="six" unicode="6" horiz-adv-x="473" 
d="M42 518c0 26.667 5.33203 50.8311 15.999 72.498s25 40.334 43 56.001s39 27.834 63 36.501s49.667 13 77 13c42 0 76.833 -6.5 104.5 -19.5s50.5 -28.167 68.5 -45.5l-30 -36c-18.667 18 -39.334 32 -62.001 42s-49.667 15 -81 15c-15.333 0 -32 -2.66699 -50 -8
s-34.667 -13.833 -50 -25.5s-28 -27.167 -38 -46.5s-15 -43 -15 -71v-152c41.333 25.333 78 43.833 110 55.5s58.667 17.5 80 17.5c49.333 0 87.333 -15.167 114 -45.5s40 -71.166 40 -122.499v-80c0 -26 -5.16699 -50 -15.5 -72s-24.333 -41 -42 -57
s-38.5 -28.333 -62.5 -37s-49.667 -13 -77 -13s-52.666 4.16699 -75.999 12.5s-43.666 20.166 -60.999 35.499s-31 33.833 -41 55.5s-15 45.5 -15 71.5v348zM385.999 246.997c0 44 -10.3301 76.501 -30.9971 97.501s-47.334 31.5 -80.001 31.5c-28.667 0 -59 -7.5 -91 -22.5
s-64 -32.167 -96 -51.5v-118c0 -26.667 4.66699 -49.334 14 -68.001s21.166 -34 35.499 -46s30.166 -20.667 47.499 -26s34 -8 50 -8s32.833 2.83301 50.5 8.5s34 14.5 49 26.5s27.333 27.333 37 46s14.5 41 14.5 67v63z" />
    <glyph glyph-name="seven" unicode="7" horiz-adv-x="473" 
d="M169 0h-50l262 647h-295v-109h-45v151h389v-44z" />
    <glyph glyph-name="eight" unicode="8" horiz-adv-x="473" 
d="M236 694c25.333 0 49.833 -3.83691 73.5 -11.5039s44.5 -19.334 62.5 -35.001s32.5 -34.834 43.5 -57.501s16.5 -49 16.5 -79c0 -16 -2.33301 -32 -7 -48s-11.5 -31 -20.5 -45s-20.667 -26.667 -35 -38s-30.833 -20.333 -49.5 -27
c23.333 -7.33301 42.833 -17.166 58.5 -29.499s28.167 -26.166 37.5 -41.499s16 -31.166 20 -47.499s6 -31.833 6 -46.5c0 -32 -5.83301 -60.167 -17.5 -84.5s-27.167 -44.5 -46.5 -60.5s-41.5 -28.167 -66.5 -36.5s-51.167 -12.5 -78.5 -12.5s-53.5 4 -78.5 12
s-46.833 19.833 -65.5 35.5s-33.5 35.334 -44.5 59.001s-16.5 51.167 -16.5 82.5c0 16 2.5 32.333 7.5 49s12.5 32.834 22.5 48.501s22.667 29.834 38 42.501s33.666 22.667 54.999 30c-35.333 12.667 -62.166 33.667 -80.499 63s-27.5 60 -27.5 92
c0 30 5.33301 56.667 16 80s25 42.833 43 58.5s38.5 27.5 61.5 35.5s47.167 12 72.5 12zM237 651.996c-18 0 -35.999 -3 -53.999 -9s-34 -14.833 -48 -26.5s-25.333 -26.334 -34 -44.001s-13 -38.5 -13 -62.5c0 -20.667 4 -39.5 12 -56.5s18.667 -31.5 32 -43.5
s29 -21.333 47 -28s36.667 -10 56 -10c18.667 0 37.167 3.33301 55.5 10s34.5 16 48.5 28s25.333 26.5 34 43.5s13 36.167 13 57.5c0 23.333 -4.33301 43.833 -13 61.5s-20 32.334 -34 44.001s-29.833 20.5 -47.5 26.5s-35.834 9 -54.501 9zM235.001 35.9961
c23.333 0 44.834 3.50098 64.501 10.501s36.5 16.833 50.5 29.5s25 28.167 33 46.5s12 39.166 12 62.499c0 21.333 -4 41 -12 59s-19.167 33.5 -33.5 46.5s-31.333 23.167 -51 30.5s-40.834 11 -63.501 11c-21.333 0 -41.666 -3.66699 -60.999 -11s-36.333 -17.5 -51 -30.5
s-26.334 -28.667 -35.001 -47s-13 -38.5 -13 -60.5c0 -44 14.167 -79.5 42.5 -106.5s67.5 -40.5 117.5 -40.5z" />
    <glyph glyph-name="nine" unicode="9" horiz-adv-x="473" 
d="M430 173c0 -26.667 -5.33008 -50.833 -15.9971 -72.5s-25 -40.334 -43 -56.001s-39.167 -27.834 -63.5 -36.501s-49.833 -13 -76.5 -13c-42 0 -77 6.5 -105 19.5s-50.667 28.167 -68 45.5l30 36c18.667 -18 39.167 -32 61.5 -42s49.166 -15 80.499 -15
c16 0 32.833 2.5 50.5 7.5s34.167 13.5 49.5 25.5s28 27.667 38 47s15 43 15 71v153c-81.333 -48.667 -144.333 -73 -189 -73c-49.333 0 -87.333 14.833 -114 44.5s-40 70.834 -40 123.501v78c0 26 5.16699 50 15.5 72s24.333 41 42 57s38.5 28.5 62.5 37.5
s49.667 13.5 77 13.5c26.667 0 51.667 -4.16699 75 -12.5s43.666 -20.166 60.999 -35.499s31.166 -33.833 41.499 -55.5s15.5 -45.5 15.5 -71.5v-348zM85.0029 445.001c0 -44 10.5 -76.502 31.5 -97.502s47.833 -31.5 80.5 -31.5c28 0 58 7.66699 90 23s64 32.333 96 51v117
c0 26.667 -4.66699 49.334 -14 68.001s-21 33.834 -35 45.501s-29.667 20.167 -47 25.5s-34 8 -50 8s-33 -2.66699 -51 -8s-34.5 -14 -49.5 -26s-27.333 -27.333 -37 -46s-14.5 -41 -14.5 -67v-62z" />
    <glyph glyph-name="colon" unicode=":" horiz-adv-x="199" 
d="M58 36c0 9.33301 3.66699 17.833 11 25.5s17 11.5 29 11.5c11.333 0 21 -3.83301 29 -11.5s12 -16.167 12 -25.5c0 -11.333 -3.66699 -21 -11 -29s-17 -12 -29 -12c-12.667 0 -22.667 3.83301 -30 11.5s-11 17.5 -11 29.5zM58 357c0 10.667 3.66699 19.834 11 27.501
s17 11.5 29 11.5c11.333 0 21 -3.83301 29 -11.5s12 -16.834 12 -27.501c0 -11.333 -3.66699 -20.833 -11 -28.5s-17 -11.5 -29 -11.5c-12.667 0 -22.667 3.83301 -30 11.5s-11 17.167 -11 28.5z" />
    <glyph glyph-name="semicolon" unicode=";" horiz-adv-x="199" 
d="M58 357c0 10.667 3.66699 19.834 11 27.501s17 11.5 29 11.5c11.333 0 21 -3.83301 29 -11.5s12 -16.834 12 -27.501c0 -11.333 -3.83301 -20.833 -11.5 -28.5s-17.167 -11.5 -28.5 -11.5c-12.667 0 -22.667 3.83301 -30 11.5s-11 17.167 -11 28.5zM56 33
c0 10.667 4 19.5 12 26.5s17.667 10.5 29 10.5c14 0 25 -5.16699 33 -15.5s12 -23.5 12 -39.5c0 -23.333 -6.83301 -45.333 -20.5 -66s-30.167 -36 -49.5 -46l-16 20c26 19.333 39.667 43.333 41 72c-12 -0.666992 -21.833 2.5 -29.5 9.5s-11.5 16.5 -11.5 28.5z" />
    <glyph glyph-name="less" unicode="&#x3c;" horiz-adv-x="473" 
d="M437 80l-402 182v36l401 182v-41l-355 -159l78 -34.5l99.5 -44.5l99.5 -44.5l79 -34.5v-42z" />
    <glyph glyph-name="equal" unicode="=" horiz-adv-x="473" 
d="M30 340v37h413v-37h-413zM30 163v38h413v-38h-413z" />
    <glyph glyph-name="greater" unicode="&#x3e;" horiz-adv-x="473" 
d="M35 122l79 34.5l99 44.5l99 44.5l79 34.5l-355 159v41l401 -182v-36l-402 -182v42z" />
    <glyph glyph-name="question" unicode="?" horiz-adv-x="432" 
d="M198 698c28.667 0 54.001 -3.99805 76.001 -11.998s40.667 -19.333 56 -34s27 -31.834 35 -51.501s12 -41.167 12 -64.5c0 -30.667 -7.66699 -58.667 -23 -84s-32.333 -50 -51 -74s-35.667 -48.5 -51 -73.5s-23 -52.167 -23 -81.5v-64h-41v64
c0 34.667 7.5 65.5 22.5 92.5s31.5 52.5 49.5 76.5s34.5 47.167 49.5 69.5s22.5 46.166 22.5 71.499c0 36.667 -12.167 66.834 -36.5 90.501s-58.833 35.5 -103.5 35.5c-25.333 0 -50 -3.83301 -74 -11.5s-45.667 -17.834 -65 -30.501l-21 35
c27.333 16.667 54.166 28.5 80.499 35.5s54.833 10.5 85.5 10.5zM173.001 35.002c0 9.33301 3.33398 17.666 10.001 24.999s15.667 11 27 11s20.666 -3.66699 27.999 -11s11 -15.666 11 -24.999c0 -11.333 -3.5 -20.333 -10.5 -27s-16.167 -10 -27.5 -10
c-12 0 -21.333 3.33301 -28 10s-10 15.667 -10 27z" />
    <glyph glyph-name="at" unicode="@" horiz-adv-x="837" 
d="M792 361c0 -37.333 -4.66992 -69.167 -14.0029 -95.5s-21.333 -48 -36 -65s-31.167 -29.333 -49.5 -37s-36.833 -11.5 -55.5 -11.5c-21.333 0 -41.833 4.5 -61.5 13.5s-33.167 24.167 -40.5 45.5c-32 -19.333 -61 -33 -87 -41s-48 -12 -66 -12
c-36 0 -65.167 9.33301 -87.5 28s-33.5 46 -33.5 82c0 20.667 4.16699 38.167 12.5 52.5s18.833 25.833 31.5 34.5s26.5 15 41.5 19s29.167 6 42.5 6h137v34c0 20 -2.66699 36.5 -8 49.5s-12.833 23.333 -22.5 31s-21.167 12.834 -34.5 15.501s-28.333 4 -45 4
c-12.667 0 -28.167 -2.33301 -46.5 -7s-39.166 -14.667 -62.499 -30l-23 31c23.333 16 46.666 27.167 69.999 33.5s44.666 9.5 63.999 9.5c50.667 0 87.667 -11 111 -33s35 -54.333 35 -97v-170c0.666992 -16 6.83398 -30.833 18.501 -44.5s30.834 -20.5 57.501 -20.5
c14.667 0 29 3.66699 43 11s26.333 18.333 37 33s19.167 32.834 25.5 54.501s9.5 47.167 9.5 76.5c0 44 -7.16699 84.667 -21.5 122s-35 69.666 -62 96.999s-59.667 48.666 -98 63.999s-81.5 23 -129.5 23c-48.667 0 -94.667 -8.33301 -138 -25
s-81.166 -39.834 -113.499 -69.501s-58 -64.667 -77 -105s-28.5 -84.166 -28.5 -131.499c0 -48 8.33301 -92.333 25 -133s39.834 -76 69.501 -106s64.834 -53.333 105.501 -70s85 -25 133 -25c21.333 0 41.666 1.66699 60.999 5s41.333 10.333 66 21l14 -34
c-27.333 -11.333 -53.333 -18.666 -78 -21.999s-45.667 -5 -63 -5c-54 0 -103.5 9.16699 -148.5 27.5s-84 43.833 -117 76.5s-58.667 71.5 -77 116.5s-27.5 94.167 -27.5 147.5s10.333 102.5 31 147.5s49 83.667 85 116s77.833 57.666 125.5 75.999s98.5 27.5 152.5 27.5
c54.667 0 103.5 -8.83301 146.5 -26.5s79.5 -41.667 109.5 -72s52.833 -66.333 68.5 -108s23.5 -86.5 23.5 -134.5zM525.997 345.999l-122 0.000976562c-10.667 0 -22 -0.833008 -34 -2.5s-23 -5.33398 -33 -11.001s-18.333 -13.5 -25 -23.5s-10 -23.333 -10 -40
c0 -26 8.33301 -45.167 25 -57.5s36.667 -18.5 60 -18.5c20.667 0 43.5 5.33301 68.5 16s48.5 23.667 70.5 39v98z" />
    <glyph glyph-name="A" unicode="A" horiz-adv-x="568" 
d="M501 0l-29 83l-30 83h-315l-28 -83l-28 -83h-51l238 689h54l240 -689h-51zM284 630l-14.5 -44.5l-25 -75l-30.5 -90.5l-30.5 -90.5l-25.5 -75l-15 -44.5h284l-14.5 44.5l-25 75l-31 90.5l-31 91l-25.5 75l-15 44h-1z" />
    <glyph glyph-name="B" unicode="B" horiz-adv-x="574" 
d="M529 188c0 -24.667 -4.16797 -48.333 -12.501 -71s-20.5 -42.667 -36.5 -60s-35.833 -31.166 -59.5 -41.499s-50.5 -15.5 -80.5 -15.5h-284v689l272 -1c32 0 59.833 -4.66699 83.5 -14s43.5 -21.833 59.5 -37.5s27.833 -34 35.5 -55s11.5 -43.167 11.5 -66.5
c0 -14 -1.66699 -28.333 -5 -43s-9.16602 -28.834 -17.499 -42.501s-19.5 -26.334 -33.5 -38.001s-31.333 -21.167 -52 -28.5c22.667 -7.33301 41.5 -17.5 56.5 -30.5s27.167 -27.667 36.5 -44s16 -33.166 20 -50.499s6 -34 6 -50zM467.999 514.001
c0 24 -4.16699 44.166 -12.5 60.499s-19.5 29.833 -33.5 40.5s-30.167 18.334 -48.5 23.001s-37.5 7 -57.5 7h-212v-260h224c17.333 0 34.5 2.66699 51.5 8s32 13.333 45 24s23.5 24 31.5 40s12 35 12 57zM480.999 188c0 23.333 -4.16602 44.334 -12.499 63.001
s-19.333 34.667 -33 48s-29.5 23.666 -47.5 30.999s-37 11 -57 11h-227v-298h225c21.333 0 41.166 3 59.499 9s34.333 15 48 27s24.5 27.167 32.5 45.5s12 39.5 12 63.5z" />
    <glyph glyph-name="C" unicode="C" horiz-adv-x="502" 
d="M293 696c34.667 0 66.499 -4 95.499 -12s56.5 -21 82.5 -39l-26 -39c-21.333 15.333 -45 26.833 -71 34.5s-53 11.5 -81 11.5c-24 0 -47.667 -3.66699 -71 -11s-44.166 -18.833 -62.499 -34.5s-33 -35.667 -44 -60s-16.5 -53.5 -16.5 -87.5v-227
c0 -34 5.66699 -63.333 17 -88s26 -45 44 -61s38.333 -27.833 61 -35.5s45.667 -11.5 69 -11.5c58.667 0 111 16.333 157 49l25 -37c-18 -13.333 -42.333 -25.833 -73 -37.5s-66 -17.5 -106 -17.5c-36.667 0 -70 5.66699 -100 17s-55.5 27.333 -76.5 48s-37.167 45 -48.5 73
s-17 59 -17 93v244c0 33.333 5.83301 64 17.5 92s28.167 52 49.5 72s46.833 35.667 76.5 47s62.5 17 98.5 17z" />
    <glyph glyph-name="D" unicode="D" horiz-adv-x="581" 
d="M533 223c0 -33.333 -5.33105 -63.668 -15.998 -91.001s-25.834 -50.666 -45.501 -69.999s-43.334 -34.5 -71.001 -45.5s-58.5 -16.5 -92.5 -16.5h-252v689h255c34 0 64.833 -5.5 92.5 -16.5s51 -26.5 70 -46.5s33.667 -43.833 44 -71.5s15.5 -58.167 15.5 -91.5v-240z
M484.002 454.998c0 34.667 -5.33203 64 -15.999 88s-24.334 43.5 -41.001 58.5s-35.667 26 -57 33s-42.333 10.5 -63 10.5h-203v-603h191c22.667 0 45.167 3.33301 67.5 10s42.5 17.5 60.5 32.5s32.667 34.5 44 58.5s17 53.667 17 89v223z" />
    <glyph glyph-name="E" unicode="E" horiz-adv-x="532" 
d="M57 0v689h443v-44h-395v-274h340v-43h-340v-285h395v-43h-443z" />
    <glyph glyph-name="F" unicode="F" horiz-adv-x="516" 
d="M105 645v-274h340v-44h-340v-327h-48v689h444v-44h-396z" />
    <glyph glyph-name="G" unicode="G" horiz-adv-x="549" 
d="M501 72c-28.667 -27.333 -60.8311 -47.333 -96.498 -60s-73.167 -19 -112.5 -19c-36.667 0 -70 5.66699 -100 17s-55.667 27.333 -77 48s-37.833 45 -49.5 73s-17.5 59 -17.5 93v244c0 33.333 6 64 18 92s28.833 52 50.5 72s47.667 35.667 78 47s64.166 17 101.499 17
c34.667 0 67 -4 97 -12s57.667 -21 83 -39l-26 -39c-21.333 15.333 -45.333 26.833 -72 34.5s-54 11.5 -82 11.5c-25.333 0 -49.833 -3.66699 -73.5 -11s-45 -18.833 -64 -34.5s-34.167 -35.667 -45.5 -60s-17 -53.5 -17 -87.5v-227c0 -34 5.5 -63.333 16.5 -88
s25.667 -45 44 -61s39.166 -27.833 62.499 -35.5s47.333 -11.5 72 -11.5c8 0 18 0.5 30 1.5s25.167 3.5 39.5 7.5s29.333 9.66699 45 17s31.5 17.333 47.5 30v205h-119v45h167v-270v0z" />
    <glyph glyph-name="H" unicode="H" horiz-adv-x="596" 
d="M492 0v329h-390v-329h-47v689h47v-317h390v317h50v-689h-50z" />
    <glyph glyph-name="I" unicode="I" horiz-adv-x="216" 
d="M84 0v689h48v-689h-48z" />
    <glyph glyph-name="J" unicode="J" horiz-adv-x="504" 
d="M420 225c0 -34 -5.16504 -65.167 -15.498 -93.5s-25.5 -52.666 -45.5 -72.999s-44.833 -36.333 -74.5 -48s-63.5 -17.5 -101.5 -17.5c-31.333 0 -60.5 4.16699 -87.5 12.5s-50.167 18.5 -69.5 30.5l23 39c21.333 -12.667 42.666 -22.334 63.999 -29.001
s43.666 -10 66.999 -10c27.333 0 52.833 3.83301 76.5 11.5s44 19.667 61 36s30.333 37 40 62s14.5 54.5 14.5 88.5v456h48v-465v0z" />
    <glyph glyph-name="K" unicode="K" horiz-adv-x="539" 
d="M293 423l245 -423h-56l-222 383l-78 -97l-79 -98v-188h-48v689h48v-427l346 427h58z" />
    <glyph glyph-name="L" unicode="L" horiz-adv-x="502" 
d="M58 0v689h48v-646h392v-43h-440z" />
    <glyph glyph-name="M" unicode="M" horiz-adv-x="707" 
d="M603 577h-1l-55.5 -118l-52.5 -110l-59.5 -120.5l-57.5 -118.5h-40l-122 245l-110 223h-2v-578h-48v689h48l76.5 -156.5l76.5 -155.5l49.5 -103.5l50.5 -102.5l36 72l63 134l76.5 156.5l74.5 155.5h45v-689h-48v577z" />
    <glyph glyph-name="N" unicode="N" horiz-adv-x="613" 
d="M505 0l-125.5 189.5l-126.5 190.5l-73.5 112.5l-75.5 111.5v-604h-48v689h48l256 -386l73.5 -111.5l74.5 -110.5v608h48v-689h-51v0z" />
    <glyph glyph-name="O" unicode="O" horiz-adv-x="587" 
d="M536 220c0 -34 -5.83301 -65 -17.5 -93s-28 -51.833 -49 -71.5s-46.5 -35 -76.5 -46s-63.333 -16.5 -100 -16.5c-37.333 0 -70.833 5.5 -100.5 16.5s-55 26.667 -76 47s-37.167 44.666 -48.5 72.999s-17 59.5 -17 93.5v245c0 33.333 5.5 64 16.5 92s27 52 48 72
s46.5 35.667 76.5 47s63.667 17 101 17c36.667 0 70 -5.66699 100 -17s55.5 -27.166 76.5 -47.499s37.333 -44.5 49 -72.5s17.5 -58.333 17.5 -91v-248zM488 459c0 32.667 -5.33203 61.166 -15.999 85.499s-25 44.5 -43 60.5s-38.667 27.833 -62 35.5s-48 11.5 -74 11.5
c-26.667 0 -51.834 -3.83301 -75.501 -11.5s-44.167 -19.5 -61.5 -35.5s-31.166 -36.167 -41.499 -60.5s-15.5 -52.833 -15.5 -85.5v-231c0 -34 5.66699 -63 17 -87s26.166 -43.833 44.499 -59.5s39.166 -27.167 62.499 -34.5s46.666 -11 69.999 -11
c26.667 0 51.834 3.83301 75.501 11.5s44.334 19.334 62.001 35.001s31.667 35.5 42 59.5s15.5 52.667 15.5 86v231z" />
    <glyph glyph-name="P" unicode="P" horiz-adv-x="539" 
d="M516 492c0 -24 -4.16699 -47.666 -12.5 -70.999s-20.666 -44.333 -36.999 -63s-36.333 -33.667 -60 -45s-50.834 -17 -81.501 -17h-223v-296h-47v689h270c32 0 60 -5.83301 84 -17.5s44 -26.834 60 -45.501s27.833 -39.667 35.5 -63s11.5 -47 11.5 -71zM467 492.001
c0 23.333 -4 44.334 -12 63.001s-18.833 34.667 -32.5 48s-29.667 23.666 -48 30.999s-37.833 11 -58.5 11h-214v-304h214c20.667 0 40.167 3.33301 58.5 10s34.333 16.5 48 29.5s24.5 28.833 32.5 47.5s12 40 12 64z" />
    <glyph glyph-name="Q" unicode="Q" horiz-adv-x="587" 
d="M536 220c0 -32 -5.1709 -61.5 -15.5039 -88.5s-25.166 -50.333 -44.499 -70s-42.666 -35.334 -69.999 -47.001s-57.666 -18.5 -90.999 -20.5v-32c0 -32.667 7.33301 -55.667 22 -69s38.334 -20 71.001 -20h11c4 0 8.33301 0.333008 13 1v-42
c-6 -0.666992 -12 -1.16699 -18 -1.5s-11.667 -0.5 -17 -0.5c-46 0 -78.667 11 -98 33s-29 54 -29 96v35c-34 2 -64.5 9 -91.5 21s-50 28 -69 48s-33.5 43.5 -43.5 70.5s-15 56.833 -15 89.5v245c0 33.333 5.5 64 16.5 92s27 52 48 72s46.5 35.667 76.5 47s63.667 17 101 17
c36.667 0 70 -5.66699 100 -17s55.5 -27.166 76.5 -47.499s37.333 -44.5 49 -72.5s17.5 -58.333 17.5 -91v-248zM487.996 459c0 32.667 -5.33203 61.166 -15.999 85.499s-25 44.5 -43 60.5s-38.667 27.833 -62 35.5s-48 11.5 -74 11.5
c-26.667 0 -51.834 -3.83301 -75.501 -11.5s-44.167 -19.5 -61.5 -35.5s-31.166 -36.167 -41.499 -60.5s-15.5 -52.833 -15.5 -85.5v-231c0 -34 5.66699 -63 17 -87s26.166 -43.833 44.499 -59.5s39.166 -27.167 62.499 -34.5s46.666 -11 69.999 -11
c26.667 0 51.834 3.83301 75.501 11.5s44.334 19.334 62.001 35.001s31.667 35.5 42 59.5s15.5 52.667 15.5 86v231z" />
    <glyph glyph-name="R" unicode="R" horiz-adv-x="555" 
d="M104 0l-47.999 0.000976562v689h270c32.667 0 61.167 -5.83301 85.5 -17.5s44.5 -26.834 60.5 -45.501s28 -39.834 36 -63.501s12 -47.5 12 -71.5c0 -19.333 -2.83301 -38.666 -8.5 -57.999s-14.334 -37.5 -26.001 -54.5s-26.167 -32 -43.5 -45s-37.333 -22.5 -60 -28.5
l134 -305h-53l-129 296h-230v-296zM104.001 644.001v-304h215c20.667 0 40.167 3.33301 58.5 10s34.5 16.5 48.5 29.5s25 28.833 33 47.5s12 40 12 64c0 23.333 -4 44.5 -12 63.5s-19 35.167 -33 48.5s-30.167 23.5 -48.5 30.5s-37.833 10.5 -58.5 10.5h-215z" />
    <glyph glyph-name="S" unicode="S" horiz-adv-x="536" 
d="M504 181c0 -29.333 -5.66895 -55.4961 -17.002 -78.4961s-27.333 -42.5 -48 -58.5s-45.5 -28.333 -74.5 -37s-61.5 -13 -97.5 -13c-45.333 0 -87.333 5.83301 -126 17.5s-75.667 28.5 -111 50.5l27 37c30.667 -18.667 64 -33.667 100 -45s73 -17 111 -17
c26 0 50.333 3.16699 73 9.5s42.334 15.5 59.001 27.5s29.834 27 39.501 45s14.5 38.667 14.5 62c0 26.667 -5.5 48.5 -16.5 65.5s-25.333 30.833 -43 41.5s-37.834 19 -60.501 25s-45.334 11.333 -68.001 16c-26.667 4.66699 -53.167 11.167 -79.5 19.5
s-49.833 19.5 -70.5 33.5s-37.5 31.667 -50.5 53s-19.5 47.666 -19.5 78.999c0 27.333 5 52.333 15 75s24.333 42 43 58s41.5 28.5 68.5 37.5s57.167 13.5 90.5 13.5c36.667 0 72.334 -3.33301 107.001 -10s67.334 -18.334 98.001 -35.001l-22 -42
c-28.667 15.333 -59 26.333 -91 33s-64 10 -96 10c-21.333 0 -41.833 -2.66699 -61.5 -8s-37 -13.833 -52 -25.5s-27.167 -26.5 -36.5 -44.5s-14 -39.333 -14 -64c0 -24 5.5 -43.833 16.5 -59.5s25.5 -28.667 43.5 -39s38.167 -18.5 60.5 -24.5s44.5 -11.333 66.5 -16
c31.333 -6.66699 60.5 -14.334 87.5 -23.001s50.5 -20 70.5 -34s35.667 -31.833 47 -53.5s17 -48.834 17 -81.501z" />
    <glyph glyph-name="T" unicode="T" horiz-adv-x="513" 
d="M281 644v-644h-48v644h-216v45h478v-45h-214z" />
    <glyph glyph-name="U" unicode="U" horiz-adv-x="590" 
d="M539 219c0 -34 -6 -64.999 -18 -92.999s-28.833 -51.833 -50.5 -71.5s-47.5 -34.834 -77.5 -45.501s-62.667 -16 -98 -16c-36 0 -68.833 5.33301 -98.5 16s-55.167 26 -76.5 46s-38 44 -50 72s-18 59 -18 93v469h49v-461c0 -34 5.5 -63 16.5 -87s25.5 -43.667 43.5 -59
s38.667 -26.666 62 -33.999s47.333 -11 72 -11c25.333 0 49.833 3.66699 73.5 11s44.5 18.666 62.5 33.999s32.333 35 43 59s16 53 16 87v461h49v-470v0z" />
    <glyph glyph-name="V" unicode="V" horiz-adv-x="544" 
d="M269 66l13.501 37l12.5 36l36.5 113c12.333 37.333 24.166 75 35.499 113l106 324h52l-113.5 -344.5l-113.5 -344.5h-56l-225 689h52l106 -328l94 -295v0z" />
    <glyph glyph-name="W" unicode="W" horiz-adv-x="838" 
d="M538 315l66 -250h2l64 251l97 373h51l-92.5 -344.5l-91.5 -344.5h-59l-96 362l-64 245l-88 -333l-74 -274h-58l-185 689h52l96 -372l32 -126.5l33 -126.5h1l67 254l98 371h51z" />
    <glyph glyph-name="X" unicode="X" horiz-adv-x="501" 
d="M433 0l-183 311l-183 -311h-56l213 354l-198 335h56l168 -293l168 293h56l-198 -335l213 -354h-56z" />
    <glyph glyph-name="Y" unicode="Y" horiz-adv-x="490" 
d="M269 0h-47.999v259l-104 215l-105 215h53l78 -162l75 -160c5.33301 -9.33301 10.166 -18.333 14.499 -27l13.5 -27l101 216l77 160h51l-102.5 -214.5l-103.5 -213.5v-261z" />
    <glyph glyph-name="Z" unicode="Z" horiz-adv-x="516" 
d="M478 646l-380 -603h379v-43h-437v42l381 603h-365v44h422v-43z" />
    <glyph glyph-name="bracketleft" unicode="[" horiz-adv-x="234" 
d="M76 -109v806h142v-35h-99v-737h99v-34h-142z" />
    <glyph glyph-name="backslash" unicode="\" horiz-adv-x="292" 
d="M-4 725h36l252 -767h-36z" />
    <glyph glyph-name="bracketright" unicode="]" horiz-adv-x="234" 
d="M35 -109v34h98v737h-98v35h141v-806h-141z" />
    <glyph glyph-name="asciicircum" unicode="^" horiz-adv-x="467" 
d="M45 333l170.999 360h36l169 -359h-41l-147 316c-7.33301 -18 -17.666 -41.167 -30.999 -69.5l-41.5 -88.5l-41.5 -89l-32 -70h-42z" />
    <glyph glyph-name="underscore" unicode="_" horiz-adv-x="493" 
d="M0 -107v37h493v-37h-493z" />
    <glyph glyph-name="grave" unicode="`" horiz-adv-x="482" 
d="M305 563l-99 147l48 19l79 -154z" />
    <glyph glyph-name="a" unicode="a" horiz-adv-x="466" 
d="M375 61h-1c-24 -15.333 -45.5 -27.333 -64.5 -36s-36 -15.334 -51 -20.001s-28.5 -7.66699 -40.5 -9s-22.667 -2 -32 -2c-46 0 -83.167 11.667 -111.5 35s-42.5 58 -42.5 104c0 26 5.33301 48 16 66s24 32.5 40 43.5s33.667 19 53 24s38 7.5 56 7.5h178v49
c0 88 -46.333 132 -139 132c-23.333 0 -47.333 -3.33301 -72 -10s-49.667 -18.667 -75 -36l-24 36c28 18.667 56 31.834 84 39.501s58 11.5 90 11.5c34 0 62.5 -3.83301 85.5 -11.5s41.5 -18.834 55.5 -33.501s24 -32.167 30 -52.5s9 -43.166 9 -68.499v-330h-36zM214 235
c-13.333 0 -27.832 -1 -43.499 -3s-30.334 -6.5 -44.001 -13.5s-25 -17.333 -34 -31s-13.5 -31.834 -13.5 -54.501c0 -17.333 3 -32.166 9 -44.499s14.167 -22.5 24.5 -30.5s22.333 -14 36 -18s28.167 -6 43.5 -6c14.667 0 29.834 2.16699 45.501 6.5
s31.5 9.83301 47.5 16.5s31.667 14.167 47 22.5s29.666 16.5 42.999 24.5v131h-161z" />
    <glyph glyph-name="b" unicode="b" horiz-adv-x="480" 
d="M439 161c0 -56 -14.6689 -97.832 -44.002 -125.499s-66.666 -41.5 -111.999 -41.5c-9.33301 0 -19.5 0.5 -30.5 1.5s-23.833 3.5 -38.5 7.5s-31.5 10.167 -50.5 18.5s-40.833 19.833 -65.5 34.5l-8 -56h-37v715h45v-292c26.667 16.667 49.834 30 69.501 40
s36.667 17.5 51 22.5s27 8.16699 38 9.5s21.167 2 30.5 2c49.333 0 87 -13.833 113 -41.5s39 -69.834 39 -126.501v-168zM393.998 318.001c0 48.667 -9.33398 83.334 -28.001 104.001s-47 31 -85 31c-11.333 0 -24.166 -2 -38.499 -6s-29.5 -9.5 -45.5 -16.5
s-32.5 -15.333 -49.5 -25s-33.5 -19.834 -49.5 -30.501v-272c32 -21.333 64.667 -37.833 98 -49.5s61 -17.5 83 -17.5c37.333 0 65.833 11.167 85.5 33.5s29.5 56.833 29.5 103.5v145z" />
    <glyph glyph-name="c" unicode="c" horiz-adv-x="410" 
d="M239 498c25.333 0 51.5029 -3.5 78.5029 -10.5s50.5 -19.167 70.5 -36.5l-28 -36c-19.333 15.333 -39.5 26 -60.5 32s-39.833 9 -56.5 9c-18.667 0 -36.834 -2.66699 -54.501 -8s-33.5 -13.833 -47.5 -25.5s-25.167 -26.834 -33.5 -45.501s-12.5 -41.334 -12.5 -68.001
v-125c0 -26 4.16699 -48.333 12.5 -67s19.5 -34 33.5 -46s29.833 -20.667 47.5 -26s35.5 -8 53.5 -8c16 0 35.667 2.83301 59 8.5s43 14.834 59 27.501l27 -34c-20.667 -15.333 -44 -26.5 -70 -33.5s-51.667 -10.5 -77 -10.5c-29.333 0 -55.833 4.33301 -79.5 13
s-43.834 21 -60.501 37s-29.334 34.833 -38.001 56.5s-13 45.5 -13 71.5v148c0 26.667 4.66699 50.834 14 72.501s22.5 40.167 39.5 55.5s37 27.333 60 36s48.5 13 76.5 13z" />
    <glyph glyph-name="d" unicode="d" horiz-adv-x="480" 
d="M395 1l-8 64c-24 -15.333 -45.333 -27.5 -64 -36.5s-35.5 -16.167 -50.5 -21.5s-28.333 -8.83301 -40 -10.5s-22.167 -2.5 -31.5 -2.5c-48 0 -85.833 13.5 -113.5 40.5s-41.5 69.167 -41.5 126.5v165c0 55.333 15.5 97.666 46.5 126.999s72.833 44 125.5 44
c20 0 43.167 -2.66699 69.5 -8s59.5 -17.666 99.5 -36.999v263h44v-714h-36zM387 405c-35.333 17.333 -66.332 30.001 -92.999 38.001s-50.667 12 -72 12c-88 0 -132 -46.667 -132 -140v-144c0 -48.667 9.83301 -83.334 29.5 -104.001s47.5 -31 83.5 -31
c22.667 0 50.667 6.83301 84 20.5s66.666 32.167 99.999 55.5v293z" />
    <glyph glyph-name="e" unicode="e" horiz-adv-x="466" 
d="M94 227l-0.00195312 -45.9961c0 -27.333 4.33301 -50.333 13 -69s20 -33.834 34 -45.501s30 -20.167 48 -25.5s36.667 -8 56 -8c27.333 0 52 4.66699 74 14s41.667 22.333 59 39l28 -32c-20.667 -20.667 -44.667 -35.834 -72 -45.501s-57.666 -14.5 -90.999 -14.5
c-28 0 -53.833 3.83301 -77.5 11.5s-44.167 19 -61.5 34s-30.833 33.667 -40.5 56s-14.5 48.166 -14.5 77.499v139c0 28 4.66699 53.333 14 76s22.5 42.167 39.5 58.5s37.333 28.833 61 37.5s49.5 13 77.5 13c27.333 0 52.333 -4.5 75 -13.5s42.334 -21.5 59.001 -37.5
s29.5 -35.333 38.5 -58s13.5 -47.334 13.5 -74.001v-87h-333zM381.998 308.004c0 26.667 -4.16602 49.333 -12.499 68s-19.166 34 -32.499 46s-28.333 20.667 -45 26s-33.667 8 -51 8c-18 0 -35.833 -2.83301 -53.5 -8.5s-33.334 -14.5 -47.001 -26.5
s-24.834 -27.5 -33.501 -46.5s-13 -41.5 -13 -67.5v-41h288v42z" />
    <glyph glyph-name="f" unicode="f" horiz-adv-x="282" 
d="M136 450v-449.998h-45v450h-60v42h60v109c0 40 11 69.667 33 89s49 29 81 29h72v-41h-63c-16 0 -29 -2.33301 -39 -7s-18 -10.834 -24 -18.501s-10 -16.834 -12 -27.501s-3 -22 -3 -34v-99h141v-42h-141z" />
    <glyph glyph-name="g" unicode="g" horiz-adv-x="479" 
d="M200 496c9.33301 0 19.667 -0.5 31 -1.5s24.5 -3.66699 39.5 -8s31.833 -10.833 50.5 -19.5s40 -20.334 64 -35.001l8 59h37v-530c0 -28 -5 -52.667 -15 -74s-23.667 -39.333 -41 -54s-38.333 -25.667 -63 -33s-51.334 -11 -80.001 -11
c-26.667 0 -54.5 3.83301 -83.5 11.5s-54.167 20.167 -75.5 37.5l29 35c16 -13.333 36.5 -23.666 61.5 -30.999s48.167 -11 69.5 -11c20.667 0 40.334 2.5 59.001 7.5s35 13.167 49 24.5s25 26.166 33 44.499s12 41.166 12 68.499v91
c-23.333 -15.333 -44.333 -27.666 -63 -36.999s-35.5 -16.666 -50.5 -21.999s-28.667 -9 -41 -11s-23.5 -3 -33.5 -3c-47.333 -1.33301 -84.666 12.167 -111.999 40.5s-41 70.5 -41 126.5v168c0 56 14.667 97.833 44 125.5s66.666 41.5 111.999 41.5zM385.001 383
c-34 23.333 -66.499 40.833 -97.499 52.5s-58.833 17.5 -83.5 17.5c-36 0 -64.167 -10.333 -84.5 -31s-30.5 -55.667 -30.5 -105v-144c0 -48 9.16699 -82.667 27.5 -104s46.166 -32 83.499 -32c24.667 0 53.5 7.16699 86.5 21.5s65.833 32.5 98.5 54.5v270z" />
    <glyph glyph-name="h" unicode="h" horiz-adv-x="479" 
d="M285 497c100 0 150 -56.001 150 -168.001v-329h-45v318c0 48.667 -9.33301 83.334 -28 104.001s-46.667 31 -84 31c-12 0 -25.5 -2 -40.5 -6s-30.5 -9.5 -46.5 -16.5s-32.333 -14.833 -49 -23.5s-32.667 -18 -48 -28v-379h-45v716h45v-293c46 29.333 84.167 49 114.5 59
s55.833 15 76.5 15z" />
    <glyph glyph-name="i" unicode="i" horiz-adv-x="185" 
d="M125 653c0 -9.33301 -3.16699 -17.166 -9.5 -23.499s-14.166 -9.5 -23.499 -9.5c-8.66699 0 -16.167 3.16699 -22.5 9.5s-9.5 14.166 -9.5 23.499s3.16699 17 9.5 23s13.833 9 22.5 9c9.33301 0 17.166 -3 23.499 -9s9.5 -13.667 9.5 -23zM70 0v491h44v-491h-44z" />
    <glyph glyph-name="j" unicode="j" horiz-adv-x="220" 
d="M150 653c0 -9.33301 -3.16699 -17.166 -9.5 -23.499s-14.166 -9.5 -23.499 -9.5c-8.66699 0 -16.167 3.16699 -22.5 9.5s-9.5 14.166 -9.5 23.499s3.16699 17 9.5 23s13.833 9 22.5 9c9.33301 0 17.166 -3 23.499 -9s9.5 -13.667 9.5 -23zM94 491h44.999v-578
c0 -42.667 -9 -73.667 -27 -93s-46 -29 -84 -29h-37v41h31c26.667 0 45.334 6.33301 56.001 19s16 36 16 70v570z" />
    <glyph glyph-name="k" unicode="k" horiz-adv-x="449" 
d="M49 0l0.00292969 716h44v-411h114c20 0 39.5 4.33301 58.5 13s35.167 27 48.5 55l57 120h49l-57 -126c-8.66699 -18.667 -18.667 -34.834 -30 -48.501s-27.666 -24.5 -48.999 -32.5c12.667 -2 23.667 -6.16699 33 -12.5s17.166 -13.833 23.499 -22.5
s11.666 -18.167 15.999 -28.5s8.16602 -20.833 11.499 -31.5l66 -191h-49l-60 171c-6.66699 19.333 -13.334 34.833 -20.001 46.5s-14.167 20.834 -22.5 27.501s-18 11 -29 13s-24.5 3 -40.5 3h-120v-261h-44z" />
    <glyph glyph-name="l" unicode="l" horiz-adv-x="250" 
d="M135 113c0 -31.333 5.83301 -51.832 17.5 -61.499s31.5 -13.834 59.5 -12.501l2 -41c-6 -1.33301 -11.5 -2 -16.5 -2h-15.5c-34 0 -57.667 9.16699 -71 27.5s-20 45.833 -20 82.5v610h44v-603z" />
    <glyph glyph-name="m" unicode="m" horiz-adv-x="739" 
d="M258 497c18.667 0 34.832 -2.33398 48.499 -7.00098s25.334 -10.834 35.001 -18.501s17.667 -16.667 24 -27s11.5 -20.833 15.5 -31.5c22 18.667 41.667 33.5 59 44.5s33 19.5 47 25.5s26.5 9.83301 37.5 11.5s20.833 2.5 29.5 2.5c47.333 0 82.833 -14 106.5 -42
s35.5 -68.333 35.5 -121v-334h-45v320c0 42 -7.5 74.667 -22.5 98s-41.833 35 -80.5 35c-23.333 0 -48 -6.83301 -74 -20.5s-54.333 -33.167 -85 -58.5c1.33301 -9.33301 2.33301 -17.333 3 -24s1 -13.667 1 -21v-329h-45v321c0 41.333 -7.16699 73.833 -21.5 97.5
s-40.166 35.5 -77.499 35.5c-19.333 0 -41.666 -5.5 -66.999 -16.5s-56 -30.5 -92 -58.5v-379h-45v491h37l8 -68c19.333 14.667 37 26.834 53 36.501s30.667 17.334 44 23.001s25.666 9.5 36.999 11.5s22.666 3 33.999 3z" />
    <glyph glyph-name="n" unicode="n" horiz-adv-x="480" 
d="M281 497c48.667 0 86.334 -13.833 113.001 -41.5s40 -69.834 40 -126.501v-329h-45v318c0 48.667 -10.167 83.5 -30.5 104.5s-49.166 31.167 -86.499 30.5c-24 0 -51.667 -7.16699 -83 -21.5s-63.333 -32.5 -96 -54.5v-377h-45v491h37l8 -68
c23.333 14 44.166 25.833 62.499 35.5s34.833 17.334 49.5 23.001s28.167 9.66699 40.5 12s24.166 3.5 35.499 3.5z" />
    <glyph glyph-name="o" unicode="o" horiz-adv-x="479" 
d="M433 173c0 -56 -17.666 -99.834 -52.999 -131.501s-82.333 -47.5 -141 -47.5c-28.667 0 -54.834 4.16699 -78.501 12.5s-44 20.333 -61 36s-30.167 34.334 -39.5 56.001s-14 46.167 -14 73.5v150c0 26.667 5.16699 50.834 15.5 72.501s24.333 40 42 55
s38.167 26.667 61.5 35s48.333 12.5 75 12.5c27.333 0 52.833 -4.16699 76.5 -12.5s44.167 -20 61.5 -35s30.833 -33.333 40.5 -55s14.5 -45.834 14.5 -72.501v-149zM389.001 307.999c0 26.667 -4.50098 49.335 -13.501 68.002s-20.5 33.834 -34.5 45.501
s-29.833 20.167 -47.5 25.5s-35.167 8 -52.5 8c-18 0 -36 -2.66699 -54 -8s-34 -13.833 -48 -25.5s-25.5 -26.834 -34.5 -45.501s-13.5 -41.334 -13.5 -68.001v-125c0 -27.333 4.16699 -50.333 12.5 -69s19.333 -33.834 33 -45.501s29.5 -20.167 47.5 -25.5s37 -8 57 -8
s38.833 2.83301 56.5 8.5s33.334 14.5 47.001 26.5s24.5 27.333 32.5 46s12 41 12 67v125z" />
    <glyph glyph-name="p" unicode="p" horiz-adv-x="480" 
d="M86 489l8 -64.002c24 14.667 45.333 26.834 64 36.501s35.5 17 50.5 22s28.333 8.5 40 10.5s22.167 3 31.5 3c48 0 85.833 -13.667 113.5 -41s41.5 -69.333 41.5 -126v-166c0 -55.333 -15.167 -97.666 -45.5 -126.999s-72.5 -44 -126.5 -44
c-20 0 -43.167 2.66699 -69.5 8s-59.5 18 -99.5 38v-242h-44v692h36zM94 84.998c36.667 -18.667 67.999 -31.668 93.999 -39.001s49.667 -11 71 -11c44 0 77 11.167 99 33.5s33 57.5 33 105.5v145c0 48.667 -10 83.334 -30 104.001s-47.667 31 -83 31
c-22.667 0 -50.667 -7 -84 -21s-66.666 -32.333 -99.999 -55v-293z" />
    <glyph glyph-name="q" unicode="q" horiz-adv-x="478" 
d="M386 -204l-0.000976562 268.998c-24 -16 -45.667 -28.667 -65 -38s-36.5 -16.5 -51.5 -21.5s-28.333 -8.16699 -40 -9.5s-22.167 -2 -31.5 -2c-48 0 -85.5 13.667 -112.5 41s-40.5 69.333 -40.5 126v169c0 56 14.5 97.833 43.5 125.5s66.167 41.5 111.5 41.5
c9.33301 0 19.833 -0.666992 31.5 -2s24.834 -4.16602 39.501 -8.49902s31.5 -10.666 50.5 -18.999s40.5 -19.5 64.5 -33.5l8 56h36v-694h-44zM385.999 386.998c-34 22.667 -67.332 39.667 -99.999 51s-60 17 -82 17c-37.333 0 -65.833 -11.167 -85.5 -33.5
s-29.5 -56.833 -29.5 -103.5v-145c0 -47.333 9.5 -82 28.5 -104s47.167 -32.667 84.5 -32c23.333 0 51.166 6.33301 83.499 19s65.833 31.667 100.5 57v274z" />
    <glyph glyph-name="r" unicode="r" horiz-adv-x="296" 
d="M293 445c-44.667 -4.66699 -81.667 -14.334 -111 -29.001s-52.333 -27.667 -69 -39v-377h-46v491h39l7 -73h1c10 8.66699 21.833 17.5 35.5 26.5s28.5 17.333 44.5 25s32.5 13.834 49.5 18.501s33.5 7.66699 49.5 9v-52z" />
    <glyph glyph-name="s" unicode="s" horiz-adv-x="439" 
d="M227 31c14.667 0 29.9951 1.66504 45.9951 4.99805s30.333 9 43 17s23.167 18.5 31.5 31.5s12.5 29.167 12.5 48.5c0 28 -11 49.167 -33 63.5s-59 25.833 -111 34.5c-20 3.33301 -40 7.5 -60 12.5s-38.167 12 -54.5 21s-29.666 21 -39.999 36s-15.5 34.167 -15.5 57.5
c0 40.667 15.167 74 45.5 100s71.5 39 123.5 39c34 0 64.333 -3.16699 91 -9.5s51.334 -17.166 74.001 -32.499l-23 -34c-41.333 24.667 -87.666 37 -138.999 37c-38.667 0 -69.667 -9 -93 -27s-35 -42.333 -35 -73c0 -14 3.5 -26 10.5 -36s16.667 -18.333 29 -25
s27 -12.167 44 -16.5s35.5 -8.16602 55.5 -11.499s40.5 -7.5 61.5 -12.5s40 -12.333 57 -22s30.833 -22.667 41.5 -39s16 -37.833 16 -64.5c0 -40 -15.667 -72.833 -47 -98.5s-75.666 -38.5 -132.999 -38.5c-32 0 -63.667 3.33301 -95 10s-62 20.667 -92 42l24 35
c24.667 -17.333 50.334 -30 77.001 -38s56 -12 88 -12z" />
    <glyph glyph-name="t" unicode="t" horiz-adv-x="334" 
d="M318 5c-15.333 -4.66699 -30.833 -7.5 -46.5 -8.5s-27.5 -1.5 -35.5 -1.5c-48.667 0 -82.5 11.167 -101.5 33.5s-28.5 58.833 -28.5 109.5v312h-75v42h76l12 116h32v-116h146v-42h-146v-299c0 -42 6.83301 -71.5 20.5 -88.5s37.167 -25.5 70.5 -25.5
c8.66699 0 19 0.5 31 1.5s24.667 2.83301 38 5.5z" />
    <glyph glyph-name="u" unicode="u" horiz-adv-x="482" 
d="M395 0l-8 68c-22.667 -14 -42.834 -25.667 -60.501 -35s-33.667 -17 -48 -23s-27.5 -10.167 -39.5 -12.5s-23.667 -3.5 -35 -3.5c-50.667 0 -89.667 13.833 -117 41.5s-41 69.834 -41 126.501v329h45v-318c0 -48.667 10.333 -83.5 31 -104.5s49.334 -31.5 86.001 -31.5
c24 0 51.667 7.16699 83 21.5s63.333 33.166 96 56.499v376h46v-491h-38z" />
    <glyph glyph-name="v" unicode="v" horiz-adv-x="431" 
d="M213 59l7 18.5l13 35.5l25 69.5l42 121.5l34 93.5c11.333 31 22 62.167 32 93.5h50l-89.5 -246l-89.5 -245h-48l-89 245l-88 246h49l66 -186l42.5 -122.5z" />
    <glyph glyph-name="w" unicode="w" horiz-adv-x="671" 
d="M425 256l65 -193h1l36 120.5l35 121.5l53 186h46l-144 -491h-48l-77 225l-56 163h-1l-57 -170l-74 -218h-48l-147 491h47l27 -91l26 -91l72 -246h1l45.5 134l45.5 135c7.33301 19.333 14 38.5 20 57.5l19 57.5h48z" />
    <glyph glyph-name="x" unicode="x" horiz-adv-x="401" 
d="M333 0l-135 214l-135 -214h-55l164 251l-156 240h55l127 -203l129 203h55l-158 -239l165 -252h-56z" />
    <glyph glyph-name="y" unicode="y" horiz-adv-x="428" 
d="M116 -198l72 200l-28 29l-153 459h47c13.333 -38 26 -76 38 -114l38 -115l75 -222h1l81 222l42 115l41 114h47l-126.5 -344.5l-126.5 -343.5h-48z" />
    <glyph glyph-name="z" unicode="z" horiz-adv-x="420" 
d="M30 0v37l297 415h-281v39h334v-37l-295 -414h295v-40h-350z" />
    <glyph glyph-name="braceleft" unicode="{" horiz-adv-x="234" 
d="M180 -109c-24.667 0 -44.1689 9.00391 -58.502 27.0039s-21.5 43 -21.5 75v140c0 43.333 -4.66699 77.166 -14 101.499s-28.333 40.166 -57 47.499v25c14.667 4 26.834 11 36.501 21s17 22 22 36s8.5 29.167 10.5 45.5s3 32.5 3 48.5v135c0 31.333 7 56.333 21 75
s33.333 28 58 28h47v-29h-34c-12 0 -21.667 -3 -29 -9s-12.833 -13.667 -16.5 -23s-6.16699 -19.5 -7.5 -30.5s-2 -21.5 -2 -31.5v-134c0 -20.667 -2.16699 -39.167 -6.5 -55.5s-9.66602 -30.5 -15.999 -42.5s-13.5 -21.833 -21.5 -29.5s-15.667 -12.834 -23 -15.501v-1
c17.333 -5.33301 32.833 -19.833 46.5 -43.5s20.5 -54.834 20.5 -93.501v-144c0 -10 0.666992 -20.5 2 -31.5s3.83301 -21.167 7.5 -30.5s9.16699 -17 16.5 -23s17 -9 29 -9h34v-29h-47z" />
    <glyph glyph-name="bar" unicode="|" horiz-adv-x="174" 
d="M72 -162v878h34v-878h-34z" />
    <glyph glyph-name="braceright" unicode="}" horiz-adv-x="234" 
d="M226 282c-28.667 -7.33301 -47.6641 -23.1689 -56.9971 -47.502s-14 -58.166 -14 -101.499v-140c0 -30.667 -7.16699 -55.334 -21.5 -74.001s-33.833 -28 -58.5 -28h-47v29h34c12 0 21.667 3 29 9s12.833 13.667 16.5 23s6.16699 19.5 7.5 30.5s2 21.5 2 31.5v144
c0 38.667 6.83301 69.834 20.5 93.501s29.167 38.167 46.5 43.5v1c-8 2.66699 -15.833 7.83398 -23.5 15.501s-14.834 17.5 -21.501 29.5s-12 26.167 -16 42.5s-6 34.833 -6 55.5v134c0 10 -0.5 20.5 -1.5 31.5s-3.16699 21.167 -6.5 30.5s-8.83301 17 -16.5 23
s-17.834 9 -30.501 9h-34v28h46c26.667 0 46.667 -9.5 60 -28.5s20 -43.5 20 -73.5v-135c0 -16 1 -32.167 3 -48.5s5.5 -31.5 10.5 -45.5s12.167 -26 21.5 -36s21.666 -17 36.999 -21v-25v0z" />
    <glyph glyph-name="asciitilde" unicode="~" horiz-adv-x="473" 
d="M450 295c-13.333 -20.667 -28.167 -37.332 -44.5 -49.999s-37.5 -19 -63.5 -19c-17.333 0 -35.333 3.16699 -54 9.5s-37 13.166 -55 20.499s-35.667 14.166 -53 20.499s-33.333 9.5 -48 9.5c-17.333 0 -32 -4.5 -44 -13.5s-24 -20.167 -36 -33.5l-29 23
c14 20 30.5 35.833 49.5 47.5s39.167 17.5 60.5 17.5c18 0 35.833 -3.16699 53.5 -9.5s35.167 -13.333 52.5 -21s34.5 -14.667 51.5 -21s34.167 -9.5 51.5 -9.5c18 0 32.333 4.33301 43 13s22 21.334 34 38.001l31 -22v0z" />
    <glyph glyph-name="exclamdown" unicode="&#xa1;" horiz-adv-x="211" 
d="M144 458c0 -9.33301 -3.5 -17.666 -10.5 -24.999s-16.167 -11 -27.5 -11s-20.5 3.66699 -27.5 11s-10.5 15.666 -10.5 24.999c0 11.333 3.5 20.5 10.5 27.5s16.167 10.5 27.5 10.5s20.5 -3.5 27.5 -10.5s10.5 -16.167 10.5 -27.5zM126 341c0 -42 0.333008 -86 1 -132
s1.16699 -92.333 1.5 -139s0.833008 -93 1.5 -139s1 -90.333 1 -133h-48c0 42.667 0.333008 87 1 133s1.16699 92.333 1.5 139s0.833008 93 1.5 139s1 90 1 132h38z" />
    <glyph glyph-name="cent" unicode="&#xa2;" horiz-adv-x="443" 
d="M224 -4c-27.333 1.33301 -51.832 6.66895 -73.499 16.002s-40 21.666 -55 36.999s-26.5 33.5 -34.5 54.5s-12 44.167 -12 69.5v148c0 25.333 4.33301 48.5 13 69.5s20.667 39.167 36 54.5s33.666 27.5 54.999 36.5s45 14.167 71 15.5v111h27v-110
c24 -1.33301 48.167 -5.5 72.5 -12.5s45.833 -18.5 64.5 -34.5l-28 -36c-17.333 14 -35.833 24 -55.5 30s-37.5 9.66699 -53.5 11v-419c16 1.33301 34.5 4.83301 55.5 10.5s38.833 14.167 53.5 25.5l27 -34c-19.333 -14.667 -40.833 -25.334 -64.5 -32.001
s-47.5 -10.667 -71.5 -12v-109h-27v110zM95.001 184.003c0 -24 3.5 -44.832 10.5 -62.499s16.5 -32.5 28.5 -44.5s25.833 -21.167 41.5 -27.5s31.834 -10.5 48.501 -12.5v418c-16.667 -1.33301 -32.834 -5.16602 -48.501 -11.499s-29.5 -15.333 -41.5 -27
s-21.5 -26.334 -28.5 -44.001s-10.5 -38.834 -10.5 -63.501v-125z" />
    <glyph glyph-name="sterling" unicode="&#xa3;" horiz-adv-x="473" 
d="M38 36c26 34.667 46.6699 73.168 62.0029 115.501s23 90.5 23 144.5v5h-86v35h79c-2 12.667 -4.16699 23.167 -6.5 31.5s-4.83301 16.166 -7.5 23.499l-23 67.5c-8 23 -12 46.167 -12 69.5c0 22 3.5 43.167 10.5 63.5s17.833 38.333 32.5 54s33 28.167 55 37.5
s47.667 14 77 14c42.667 0 78.334 -7.16699 107.001 -21.5s53 -35.833 73 -64.5l-34 -26c-18.667 25.333 -40.334 43.666 -65.001 54.999s-52.334 17 -83.001 17c-12.667 0 -26.334 -2 -41.001 -6s-28.334 -10.833 -41.001 -20.5s-23.334 -22.834 -32.001 -39.501
s-13 -37.667 -13 -63c0 -11.333 1.5 -23.666 4.5 -36.999s6.83301 -26.666 11.5 -39.999l17.5 -52.5c5.66699 -17 10.834 -37.833 15.501 -62.5h150v-35h-147c-0.666992 -46.667 -6 -91.667 -16 -135s-30 -85.333 -60 -126h347v-40h-398v36z" />
    <glyph glyph-name="currency" unicode="&#xa4;" horiz-adv-x="473" 
d="M43 490c3.33301 4 7.66504 8.66406 12.998 13.9971l14 14l58 -58c33.333 25.333 69.666 38 108.999 38c18.667 0 36.834 -3.16699 54.501 -9.5s34.834 -15.166 51.501 -26.499l58 58c3.33301 -4 7.5 -8.5 12.5 -13.5l14.5 -14.5l-58 -58c28 -34 42 -70.667 42 -110
c0 -19.333 -3.33301 -38.166 -10 -56.499s-16 -35.833 -28 -52.5l58 -57c-4 -5.33301 -8.5 -10.333 -13.5 -15l-14.5 -14l-58 58c-32 -25.333 -68.333 -38.666 -109 -39.999c-40.667 0.666992 -77.667 15 -111 43l-58 -58c-3.33301 4 -8 8.83301 -14 14.5l-14 13.5l58 58
c-23.333 32.667 -35 68 -35 106c-0.666992 19.333 2.33301 38 9 56s16.334 35.333 29.001 52zM103.999 323.997c0 -18.667 3.33301 -36.167 10 -52.5s16 -30.5 28 -42.5s26 -21.5 42 -28.5s33.333 -10.5 52 -10.5s36.167 3.5 52.5 10.5s30.5 16.5 42.5 28.5
s21.5 26.167 28.5 42.5s10.5 33.833 10.5 52.5s-3.33301 36.167 -10 52.5s-16 30.5 -28 42.5s-26.167 21.5 -42.5 28.5s-33.833 10.5 -52.5 10.5s-36.167 -3.5 -52.5 -10.5s-30.5 -16.5 -42.5 -28.5s-21.333 -26.167 -28 -42.5s-10 -33.833 -10 -52.5z" />
    <glyph glyph-name="yen" unicode="&#xa5;" horiz-adv-x="473" 
d="M43 194h170v65l-17 39h-154v33h140l-158 358h53l159 -374c28.667 62 55.5 124.167 80.5 186.5s51.5 124.833 79.5 187.5h51l-77.5 -179l-78.5 -179h147v-33h-161l-16 -37v-67h177v-32h-177v-162h-48v162h-170v32z" />
    <glyph glyph-name="brokenbar" unicode="&#xa6;" horiz-adv-x="174" 
d="M72 305v411h34v-411h-34zM106 249v-411h-34v411h34z" />
    <glyph glyph-name="section" unicode="&#xa7;" horiz-adv-x="440" 
d="M80 10c18 -14 37.501 -24.832 58.501 -32.499s42.5 -11.5 64.5 -11.5c18 0 35 2 51 6s30 10.333 42 19s21.5 19.667 28.5 33s10.5 29.333 10.5 48c0 32.667 -12.167 58.167 -36.5 76.5s-57.166 35.5 -98.499 51.5c-26 10 -48.5 20 -67.5 30s-34.833 21 -47.5 33
s-22 25.333 -28 40s-9 31.667 -9 51s5.16699 39.166 15.5 59.499s26.166 39.166 47.499 56.499c-11.333 10.667 -21.333 24 -30 40s-13 33 -13 51c0 44 14.333 78.667 43 104s66 38 112 38c26.667 0 52.167 -3.66699 76.5 -11s45.166 -17.666 62.499 -30.999l-11.5 -18
l-10.5 -18c-34.667 26.667 -74.334 40 -119.001 40c-31.333 0 -57.666 -8.5 -78.999 -25.5s-32 -40.5 -32 -70.5c0 -42 24.333 -73.333 73 -94l71 -30c24.667 -10.667 47.5 -23 68.5 -37s38.333 -30.667 52 -50s20.5 -42.333 20.5 -69c0 -22.667 -4.33301 -44 -13 -64
s-22.667 -38 -42 -54c11.333 -13.333 20.166 -27.833 26.499 -43.5s9.5 -33.167 9.5 -52.5c0 -44.667 -15.333 -80.334 -46 -107.001s-72.334 -40 -125.001 -40c-27.333 0 -54.166 4.83301 -80.499 14.5s-48.166 21.834 -65.499 36.501zM88.001 357.001
c0 -18.667 4 -34.002 12 -46.002s17.833 -22.167 29.5 -30.5s24.334 -15.166 38.001 -20.499s26.5 -11 38.5 -17l52.5 -22.5c17.667 -7.66699 33.167 -15.834 46.5 -24.501c17.333 11.333 29.666 24.833 36.999 40.5s11 32.167 11 49.5c0 24 -6.5 44.167 -19.5 60.5
s-29.667 30.5 -50 42.5s-43 22.667 -68 32l-73.5 28c-14 -11.333 -26.5 -25.666 -37.5 -42.999s-16.5 -33.666 -16.5 -48.999z" />
    <glyph glyph-name="dieresis" unicode="&#xa8;" horiz-adv-x="466" 
d="M345 650c0 -8.66699 -3 -16.167 -9 -22.5s-13.667 -9.5 -23 -9.5c-8.66699 0 -16.167 3.16699 -22.5 9.5s-9.5 13.833 -9.5 22.5c0 9.33301 3.16699 17 9.5 23s13.833 9 22.5 9c9.33301 0 17 -3 23 -9s9 -13.667 9 -23zM177 650c0 -8.66699 -3.16699 -16.167 -9.5 -22.5
s-14.166 -9.5 -23.499 -9.5c-8 0 -15.167 3.16699 -21.5 9.5s-9.5 13.833 -9.5 22.5c0 9.33301 3.16699 17 9.5 23s13.5 9 21.5 9c9.33301 0 17.166 -3 23.499 -9s9.5 -13.667 9.5 -23z" />
    <glyph glyph-name="copyright" unicode="&#xa9;" horiz-adv-x="780" 
d="M393 -10c-48.667 0 -93.835 8.83301 -135.502 26.5s-77.667 42.334 -108 74.001s-54.166 68.834 -71.499 111.501s-26 89 -26 139s8.66699 96.5 26 139.5s41.333 80.333 72 112s66.834 56.334 108.501 74.001s86.5 26.5 134.5 26.5
c48.667 0 93.834 -8.83301 135.501 -26.5s77.834 -42.334 108.501 -74.001s54.834 -69 72.501 -112s26.5 -89.5 26.5 -139.5s-8.83301 -96.333 -26.5 -139s-41.834 -79.834 -72.501 -111.501s-66.834 -56.334 -108.501 -74.001s-86.834 -26.5 -135.501 -26.5zM392.999 659
c-42.667 0 -82.5 -8.16699 -119.5 -24.5s-69.167 -38.833 -96.5 -67.5s-48.833 -62.334 -64.5 -101.001s-23.5 -80.334 -23.5 -125.001c0 -44 7.83301 -85.333 23.5 -124s37.167 -72.334 64.5 -101.001s59.5 -51.167 96.5 -67.5s76.833 -24.5 119.5 -24.5
c43.333 0 83.666 8.16699 120.999 24.5s69.833 38.833 97.5 67.5s49.334 62.334 65.001 101.001s23.5 80 23.5 124c0 44.667 -7.83301 86.334 -23.5 125.001s-37.334 72.334 -65.001 101.001s-60.167 51.167 -97.5 67.5s-77.666 24.5 -120.999 24.5zM398.999 552
c46.667 0 87.002 -11.668 121.002 -35.001l-20 -30c-15.333 10.667 -31.5 18.5 -48.5 23.5s-34.5 7.5 -52.5 7.5c-16 0 -31.333 -2.33301 -46 -7s-27.834 -12 -39.501 -22s-21 -23 -28 -39s-10.5 -35 -10.5 -57v-109c0 -22 3.5 -41 10.5 -57s16.333 -29.167 28 -39.5
s24.667 -18 39 -23s29.166 -7.5 44.499 -7.5c38 0 72.667 11 104 33l21 -29c-13.333 -9.33301 -30.5 -17.833 -51.5 -25.5s-44.833 -11.5 -71.5 -11.5c-50 0 -89.167 14.333 -117.5 43s-42.5 65.667 -42.5 111v121c0 22.667 3.83301 43.334 11.5 62.001s18.5 34.667 32.5 48
s30.833 23.833 50.5 31.5s41.5 11.5 65.5 11.5z" />
    <glyph glyph-name="ordfeminine" unicode="&#xaa;" horiz-adv-x="321" 
d="M254 317c-28 -18 -52.002 -29.665 -72.002 -34.998s-37.667 -8 -53 -8c-32.667 0 -59 8.16699 -79 24.5s-30 39.5 -30 69.5c0 18 3.66699 33 11 45s16.833 21.667 28.5 29s24.334 12.666 38.001 15.999s26.834 5 39.501 5h116v28c0 30.667 -8.16699 51.667 -24.5 63
s-38.166 17 -65.499 17c-16.667 0 -33 -2.16699 -49 -6.5s-33.333 -12.5 -52 -24.5l-20 31c20.667 12.667 40.5 21.667 59.5 27s39.833 8 62.5 8c45.333 0 78.166 -9.83301 98.499 -29.5s30.5 -46.834 30.5 -81.501v-216h-34zM252.998 430.002l-105 -0.000976562
c-8.66699 0 -18.167 -0.666992 -28.5 -2s-19.833 -4.16602 -28.5 -8.49902s-16 -10.5 -22 -18.5s-9 -19 -9 -33c0 -20 7.33301 -34.833 22 -44.5s31.667 -14.5 51 -14.5c18.667 0 39 4.66699 61 14s41.667 19.333 59 30v77z" />
    <glyph glyph-name="guillemotleft" unicode="&#xab;" horiz-adv-x="407" 
d="M314 46l-117 173l118 172h44l-115 -172l115 -173h-45zM178 46l-116 173l118 172h44l-115 -172l115 -173h-46z" />
    <glyph glyph-name="logicalnot" unicode="&#xac;" horiz-adv-x="473" 
d="M442 67h-36v194h-376v38h413z" />
    <glyph glyph-name="sfthyphen" unicode="&#xad;" horiz-adv-x="370" 
d="M53 245v43h264v-43h-264z" />
    <glyph glyph-name="registered" unicode="&#xae;" horiz-adv-x="546" 
d="M479 492c0 -30 -5.16699 -57.833 -15.5 -83.5s-24.666 -47.834 -42.999 -66.501s-40 -33.334 -65 -44.001s-51.833 -16 -80.5 -16s-55.334 5.33301 -80.001 16s-46.167 25.334 -64.5 44.001s-32.833 40.834 -43.5 66.501s-16 53.5 -16 83.5s5.33301 58 16 84
s25.167 48.333 43.5 67s39.833 33.334 64.5 44.001s51.334 16 80.001 16s55.5 -5.33301 80.5 -16s46.667 -25.334 65 -44.001s32.666 -41 42.999 -67s15.5 -54 15.5 -84zM453 492c0 26.667 -4.5 51.334 -13.5 74.001s-21.5 42.334 -37.5 59.001s-34.833 29.834 -56.5 39.501
s-45.167 14.5 -70.5 14.5s-48.833 -4.83301 -70.5 -14.5s-40.5 -22.834 -56.5 -39.501s-28.5 -36.334 -37.5 -59.001s-13.5 -47.334 -13.5 -74.001s4.5 -51.334 13.5 -74.001s21.5 -42.334 37.5 -59.001s34.833 -29.834 56.5 -39.501s45.167 -14.5 70.5 -14.5
s48.833 4.83301 70.5 14.5s40.5 22.834 56.5 39.501s28.5 36.334 37.5 59.001s13.5 47.334 13.5 74.001zM286 479h-61v-109h-26v244h97c21.333 0 38.833 -5.83301 52.5 -17.5s20.5 -27.5 20.5 -47.5c0 -17.333 -5 -32 -15 -44s-23.667 -19.667 -41 -23l59 -112h-30zM225 591
l-0.000976562 -88.001h66c15.333 0 27.833 3.83301 37.5 11.5s14.5 19.167 14.5 34.5c0 14.667 -5.16699 25.334 -15.5 32.001s-22.166 10 -35.499 10h-67z" />
    <glyph glyph-name="macron" unicode="&#xaf;" horiz-adv-x="474" 
d="M129 593v41h255v-41h-255z" />
    <glyph glyph-name="degree" unicode="&#xb0;" horiz-adv-x="361" 
d="M304 577c0 -17.333 -3.16699 -33.333 -9.5 -48s-15 -27.5 -26 -38.5s-24 -19.667 -39 -26s-31.167 -9.5 -48.5 -9.5s-33.5 3.16699 -48.5 9.5s-28 15 -39 26s-19.667 23.833 -26 38.5s-9.5 30.667 -9.5 48c0 16.667 3.33301 32.5 10 47.5s15.5 28 26.5 39
s24 19.667 39 26s30.833 9.5 47.5 9.5c17.333 0 33.5 -3.16699 48.5 -9.5s28 -15 39 -26s19.667 -24 26 -39s9.5 -30.833 9.5 -47.5zM269 577c0 25.333 -8.5 46.666 -25.5 63.999s-37.833 26 -62.5 26c-25.333 0 -46.333 -8.66699 -63 -26s-25 -38.666 -25 -63.999
c0 -24.667 8.33301 -45.667 25 -63s37.667 -26 63 -26c24.667 0 45.5 8.33301 62.5 25s25.5 38 25.5 64z" />
    <glyph glyph-name="plusminus" unicode="&#xb1;" horiz-adv-x="473" 
d="M255 271v-189h-37v189h-187v37h187v187h37v-187h186v-37h-186zM31 0v37h411v-37h-411z" />
    <glyph glyph-name="twosuperior" unicode="&#xb2;" horiz-adv-x="308" 
d="M286 679c0 -25.333 -9.50098 -48.8428 -28.501 -70.5098s-42.167 -40.834 -69.5 -57.501c-12.667 -7.33301 -26.334 -15.666 -41.001 -24.999s-28.167 -19.666 -40.5 -30.999s-22.666 -23.833 -30.999 -37.5s-12.5 -28.167 -12.5 -43.5v-10h223v-35h-265v40
c0 19.333 3.83301 36.833 11.5 52.5s17.834 30.167 30.501 43.5s27 25.5 43 36.5s32.333 21.5 49 31.5c11.333 6.66699 22.5 13.834 33.5 21.501s20.667 15.834 29 24.501s15 17.834 20 27.501s7.5 19.834 7.5 30.501c0 12.667 -2.66699 23.5 -8 32.5s-12.5 16.333 -21.5 22
s-19.333 9.83398 -31 12.501s-23.5 4 -35.5 4c-20 0 -38.667 -3.16699 -56 -9.5s-32.333 -14.166 -45 -23.499l-20 30c14.667 10.667 32.5 19.834 53.5 27.501s43.167 11.5 66.5 11.5c17.333 0 34.333 -1.83301 51 -5.5s31.5 -9.66699 44.5 -18s23.333 -19.166 31 -32.499
s11.5 -29.666 11.5 -48.999z" />
    <glyph glyph-name="threesuperior" unicode="&#xb3;" horiz-adv-x="308" 
d="M141 783c15.333 0 30.498 -2.00195 45.498 -6.00195s28.5 -10.333 40.5 -19s21.667 -19.667 29 -33s11 -29.333 11 -48c0 -19.333 -5.33301 -38 -16 -56s-27.667 -31 -51 -39c26.667 -8 45 -21.333 55 -40s15 -37.667 15 -57c0 -18.667 -3.66699 -35.5 -11 -50.5
s-17.333 -27.667 -30 -38s-27.5 -18.333 -44.5 -24s-34.833 -8.5 -53.5 -8.5c-26.667 0 -50.167 4 -70.5 12s-37.5 17.667 -51.5 29c0.666992 0.666992 2 2.5 4 5.5s4.33301 6 7 9l7.5 8.5c2.33301 2.66699 3.83301 4.66699 4.5 6c12 -11.333 26.667 -19.833 44 -25.5
s35.333 -8.5 54 -8.5c28 0 51.667 7.33301 71 22s29 35 29 61s-7.83301 45.667 -23.5 59s-34.167 20 -55.5 20h-53v36h53c7.33301 0 15.333 1.5 24 4.5s16.834 7.83301 24.501 14.5s14.167 14.834 19.5 24.501s8 21.5 8 35.5c0 12.667 -2.83301 23.5 -8.5 32.5
s-13 16.333 -22 22s-18.667 9.83398 -29 12.501s-20.5 4 -30.5 4c-17.333 0 -34.666 -3 -51.999 -9s-32.666 -14 -45.999 -24l-21 29c18 12 37.167 21.5 57.5 28.5s42.166 10.5 65.499 10.5z" />
    <glyph glyph-name="acute" unicode="&#xb4;" horiz-adv-x="482" 
d="M206 575l78 154l49 -19l-100 -147z" />
    <glyph glyph-name="mu" unicode="&#xb5;" horiz-adv-x="486" 
d="M395 0l-3.99805 67c-22.667 -14 -42.834 -25.833 -60.501 -35.5s-33.834 -17.167 -48.501 -22.5s-28 -9.16602 -40 -11.499s-23.667 -3.5 -35 -3.5c-52 0 -89.667 15.667 -113 47v-244h-44c-0.666992 116 -1 232 -1 348v346h45v-317c0 -48.667 10.333 -83.5 31 -104.5
s49.667 -31.5 87 -31.5c24 0 51.333 7.16699 82 21.5s63 33.166 97 56.499v375h45v-491h-41z" />
    <glyph glyph-name="mu" unicode="&#x3bc;" horiz-adv-x="486" 
d="M395 0l-3.99805 67c-22.667 -14 -42.834 -25.833 -60.501 -35.5s-33.834 -17.167 -48.501 -22.5s-28 -9.16602 -40 -11.499s-23.667 -3.5 -35 -3.5c-52 0 -89.667 15.667 -113 47v-244h-44c-0.666992 116 -1 232 -1 348v346h45v-317c0 -48.667 10.333 -83.5 31 -104.5
s49.667 -31.5 87 -31.5c24 0 51.333 7.16699 82 21.5s63 33.166 97 56.499v375h45v-491h-41z" />
    <glyph glyph-name="paragraph" unicode="&#xb6;" horiz-adv-x="459" 
d="M397 67c0 -28 -2.16602 -52.667 -6.49902 -74s-12.666 -39.5 -24.999 -54.5s-29.833 -27.167 -52.5 -36.5s-52.334 -16 -89.001 -20l-4 41c34 4 60.167 10.5 78.5 19.5s31.666 20.333 39.999 34s13.333 29 15 46s2.5 35.5 2.5 55.5v647h41v-658zM215.001 377
c-25.333 0 -48.667 4.5 -70 13.5s-39.666 21.333 -54.999 37s-27.333 34.167 -36 55.5s-13 44 -13 68c0 23.333 4.5 45.5 13.5 66.5s21.167 39.5 36.5 55.5s33.666 28.667 54.999 38s44.333 14 69 14h90v-348h-90z" />
    <glyph glyph-name="periodcentered" unicode="&#xb7;" horiz-adv-x="184" 
d="M96 312c11.333 0 21.5 -4.16699 30.5 -12.5s13.5 -18.5 13.5 -30.5s-4.16699 -22.333 -12.5 -31s-18.833 -13 -31.5 -13s-23.334 4.33301 -32.001 13s-13 19 -13 31s4.33301 22.167 13 30.5s19.334 12.5 32.001 12.5z" />
    <glyph glyph-name="cedilla" unicode="&#xb8;" horiz-adv-x="414" 
d="M231 -163c14 0 27.8311 3 41.498 9s20.5 17.667 20.5 35c0 8.66699 -2.16699 16.167 -6.5 22.5s-10 11.333 -17 15s-14.833 6.16699 -23.5 7.5s-17.334 1.33301 -26.001 0l-20 10c4.66699 13.333 9 26.666 13 39.999l12 39c5.33301 0 10.333 -0.166992 15 -0.5
s9.33398 -0.5 14.001 -0.5l-19 -58c18 0 33 -2.66699 45 -8s21.667 -11.833 29 -19.5s12.5 -15.834 15.5 -24.501s4.5 -16.667 4.5 -24s-1.66699 -15.166 -5 -23.499s-8.83301 -16.166 -16.5 -23.499s-17.667 -13.333 -30 -18s-27.5 -7 -45.5 -7
c-7.33301 0 -17.166 0.833008 -29.499 2.5s-26.833 5.16699 -43.5 10.5l10 26c11.333 -3.33301 22.333 -5.83301 33 -7.5s20.334 -2.5 29.001 -2.5z" />
    <glyph glyph-name="onesuperior" unicode="&#xb9;" horiz-adv-x="258" 
d="M132 369v363l-70 -50l-23 30l96 68h36v-411h-39z" />
    <glyph glyph-name="ordmasculine" unicode="&#xba;" horiz-adv-x="331" 
d="M301 398c0 -37.333 -12.3311 -67.334 -36.998 -90.001s-57.667 -34 -99 -34c-40.667 0 -73.5 11.333 -98.5 34s-37.5 52 -37.5 88v91c0 18 3.5 34.167 10.5 48.5s16.833 26.833 29.5 37.5s27.167 18.834 43.5 24.501s34.166 8.5 53.499 8.5
c39.333 0 71.666 -10.833 96.999 -32.5s38 -50.5 38 -86.5v-89zM263.002 476.999c0 16.667 -2.83301 31.0029 -8.5 43.0029s-13.167 21.667 -22.5 29s-19.833 12.833 -31.5 16.5s-23.167 5.5 -34.5 5.5c-12 0 -23.833 -1.83301 -35.5 -5.5s-22.167 -9.16699 -31.5 -16.5
s-16.833 -17 -22.5 -29s-8.5 -26.333 -8.5 -43v-73c0 -16.667 2.66699 -30.834 8 -42.501s12.5 -21.334 21.5 -29.001s19.5 -13.334 31.5 -17.001s24.333 -5.5 37 -5.5c26 0 48.667 7.66699 68 23s29 39 29 71v73z" />
    <glyph glyph-name="guillemotright" unicode="&#xbb;" horiz-adv-x="407" 
d="M63 46l114 173l-114 172h44l118 -172l-117 -173h-45zM198 46l115 173l-115 172h44l118 -172l-117 -173h-45z" />
    <glyph glyph-name="onequarter" unicode="&#xbc;" horiz-adv-x="760" 
d="M182 279v363l-70 -50l-23 30l96 68h36v-411h-39zM167 -17h-39l424 731h40zM628 65v-65h-37v65h-199v31l33 69l44 89l44 88.5l33 68.5h42l-152 -311h155v127h37v-127h43v-35h-43z" />
    <glyph glyph-name="onehalf" unicode="&#xbd;" horiz-adv-x="760" 
d="M161 279v363l-70 -50l-23 30l96 68h36v-411h-39zM138 -17h-39l424 731h40zM692 310c0 -25.333 -9.50195 -48.8418 -28.502 -70.5088s-42.167 -40.834 -69.5 -57.501l-41 -24.5c-14.667 -9 -28.167 -19.333 -40.5 -31s-22.666 -24.167 -30.999 -37.5
s-12.5 -27.666 -12.5 -42.999v-11h223v-35h-265v40c0 19.333 3.83301 36.833 11.5 52.5s17.834 30.167 30.501 43.5s27 25.5 43 36.5s32.333 21.5 49 31.5c11.333 6.66699 22.5 13.834 33.5 21.501s20.667 15.834 29 24.501s15 17.834 20 27.501s7.5 19.834 7.5 30.501
c0 12.667 -2.66699 23.5 -8 32.5s-12.5 16.333 -21.5 22s-19.333 9.83398 -31 12.501s-23.5 4 -35.5 4c-20 0 -38.667 -3.16699 -56 -9.5s-32.333 -14.166 -45 -23.499l-20 30c14.667 10.667 32.5 19.834 53.5 27.501s43.167 11.5 66.5 11.5
c17.333 0 34.333 -1.83301 51 -5.5s31.5 -9.66699 44.5 -18s23.333 -19.166 31 -32.499s11.5 -29.666 11.5 -48.999z" />
    <glyph glyph-name="threequarters" unicode="&#xbe;" horiz-adv-x="760" 
d="M176 693c15.333 0 30.498 -2.00195 45.498 -6.00195s28.5 -10.333 40.5 -19s21.667 -19.667 29 -33s11 -29.333 11 -48c0 -19.333 -5.33301 -38 -16 -56s-27.667 -31 -51 -39c26.667 -8 45 -21.333 55 -40s15 -37.667 15 -57c0 -18.667 -3.66699 -35.5 -11 -50.5
s-17.333 -27.667 -30 -38s-27.5 -18.333 -44.5 -24s-34.833 -8.5 -53.5 -8.5c-26.667 0 -50.167 4 -70.5 12s-37.5 17.667 -51.5 29c0.666992 0.666992 2 2.5 4 5.5s4.33301 6 7 9l7.5 8.5c2.33301 2.66699 3.83301 4.66699 4.5 6c12 -11.333 26.667 -19.833 44 -25.5
s35.333 -8.5 54 -8.5c28 0 51.667 7.33301 71 22s29 35 29 61s-7.83301 45.667 -23.5 59s-34.167 20 -55.5 20h-53v36h53c7.33301 0 15.333 1.5 24 4.5s16.834 7.83301 24.501 14.5s14.167 14.834 19.5 24.501s8 21.5 8 35.5c0 12.667 -2.83301 23.5 -8.5 32.5
s-13 16.333 -22 22s-18.667 9.83398 -29 12.501s-20.5 4 -30.5 4c-17.333 0 -34.666 -3 -51.999 -9s-32.666 -14 -45.999 -24l-21 29c18 12 37.167 21.5 57.5 28.5s42.166 10.5 65.499 10.5zM671.998 64.998v-65h-37v65h-199v31l33 69l44 89l44 88.5l33 68.5h42l-152 -311
h155v127h37v-127h43v-35h-43zM207.998 -17.002h-39l424 731h40z" />
    <glyph glyph-name="questiondown" unicode="&#xbf;" horiz-adv-x="432" 
d="M225 -204c-28 0 -53.166 4 -75.499 12s-41.166 19.333 -56.499 34s-27 31.834 -35 51.501s-12 41.167 -12 64.5c0 28 7.33301 54.833 22 80.5s31.667 50.167 51 73.5c21.333 25.333 39.166 50.833 53.499 76.5s21.5 52.834 21.5 81.501v64h42v-64
c0 -19.333 -2.33301 -36.833 -7 -52.5s-10.667 -30.334 -18 -44.001s-15.833 -26.834 -25.5 -39.501l-29.5 -38c-15.333 -19.333 -30 -40 -44 -62s-21 -46.333 -21 -73c0 -36.667 12.167 -66.667 36.5 -90s58.833 -35 103.5 -35c25.333 0 50 3.66699 74 11
s45.667 17.333 65 30l22 -35c-27.333 -16.667 -54.333 -28.5 -81 -35.5s-55.334 -10.5 -86.001 -10.5zM251.001 458c0 -9.33301 -3.5 -17.666 -10.5 -24.999s-16.167 -11 -27.5 -11s-20.666 3.66699 -27.999 11s-11 15.666 -11 24.999c0 11.333 3.66699 20.5 11 27.5
s16.666 10.5 27.999 10.5s20.5 -3.5 27.5 -10.5s10.5 -16.167 10.5 -27.5z" />
    <glyph glyph-name="Agrave" unicode="&#xc0;" horiz-adv-x="568" 
d="M501 0l-29 83l-30 83h-315l-28 -83l-28 -83h-51l238 689h54l240 -689h-51zM284 630l-14.5 -44.5l-25 -75l-30.5 -90.5l-30.5 -90.5l-25.5 -75l-15 -44.5h284l-14.5 44.5l-25 75l-31 90.5l-31 91l-25.5 75l-15 44h-1zM300 729l-151 93l35 37l136 -108z" />
    <glyph glyph-name="Aacute" unicode="&#xc1;" horiz-adv-x="568" 
d="M501 0l-29 83l-30 83h-315l-28 -83l-28 -83h-51l238 689h54l240 -689h-51zM284 630l-14.5 -44.5l-25 -75l-30.5 -90.5l-30.5 -90.5l-25.5 -75l-15 -44.5h284l-14.5 44.5l-25 75l-31 90.5l-31 91l-25.5 75l-15 44h-1zM250 751l136 108l35 -37l-151 -93z" />
    <glyph glyph-name="Acircumflex" unicode="&#xc2;" horiz-adv-x="568" 
d="M501 0l-29 83l-30 83h-315l-28 -83l-28 -83h-51l238 689h54l240 -689h-51zM284 630l-14.5 -44.5l-25 -75l-30.5 -90.5l-30.5 -90.5l-25.5 -75l-15 -44.5h284l-14.5 44.5l-25 75l-31 90.5l-31 91l-25.5 75l-15 44h-1zM287 814l-130 -84l-18 21l131 109h37l127 -108
l-18 -21z" />
    <glyph glyph-name="Atilde" unicode="&#xc3;" horiz-adv-x="568" 
d="M501 0l-29 83l-30 83h-315l-28 -83l-28 -83h-51l238 689h54l240 -689h-51zM284 630l-14.5 -44.5l-25 -75l-30.5 -90.5l-30.5 -90.5l-25.5 -75l-15 -44.5h284l-14.5 44.5l-25 75l-31 90.5l-31 91l-25.5 75l-15 44h-1zM226 838c10.667 0 21.666 -2.16992 32.999 -6.50293
s22.5 -9.16602 33.5 -14.499s21.667 -10.166 32 -14.499s19.5 -6.5 27.5 -6.5c10.667 0 20.167 3.16699 28.5 9.5s17.5 16.833 27.5 31.5l30 -17c-12.667 -23.333 -26 -40 -40 -50s-29 -15 -45 -15c-10 0 -20.333 2 -31 6s-21.5 8.5 -32.5 13.5s-21.833 9.66699 -32.5 14
s-20.667 6.5 -30 6.5c-12.667 0 -23.667 -3.16699 -33 -9.5s-19.333 -16.166 -30 -29.499l-30 18c12.667 20.667 26.834 36.5 42.501 47.5s32.167 16.5 49.5 16.5z" />
    <glyph glyph-name="Adieresis" unicode="&#xc4;" horiz-adv-x="568" 
d="M501 0l-29 83l-30 83h-315l-28 -83l-28 -83h-51l238 689h54l240 -689h-51zM284 630l-14.5 -44.5l-25 -75l-30.5 -90.5l-30.5 -90.5l-25.5 -75l-15 -44.5h284l-14.5 44.5l-25 75l-31 90.5l-31 91l-25.5 75l-15 44h-1zM403 785c0 -9.33301 -3 -17 -9 -23s-13.667 -9 -23 -9
c-8.66699 0 -16.167 3 -22.5 9s-9.5 13.667 -9.5 23c0 8.66699 3.16699 16.167 9.5 22.5s13.833 9.5 22.5 9.5c9.33301 0 17 -3.16699 23 -9.5s9 -13.833 9 -22.5zM235 785c0 -9.33301 -3.16699 -17 -9.5 -23s-14.166 -9 -23.499 -9c-8 0 -15.167 3 -21.5 9
s-9.5 13.667 -9.5 23c0 8.66699 3.16699 16.167 9.5 22.5s13.5 9.5 21.5 9.5c9.33301 0 17.166 -3.16699 23.499 -9.5s9.5 -13.833 9.5 -22.5z" />
    <glyph glyph-name="Aring" unicode="&#xc5;" horiz-adv-x="568" 
d="M501 0l-29 83l-30 83h-315l-28 -83l-28 -83h-51l238 689h54l240 -689h-51zM284 630l-14.5 -44.5l-25 -75l-30.5 -90.5l-30.5 -90.5l-25.5 -75l-15 -44.5h284l-14.5 44.5l-25 75l-31 90.5l-31 91l-25.5 75l-15 44h-1zM377 811c0 -12.667 -2.33301 -24.5 -7 -35.5
s-11.167 -20.667 -19.5 -29s-18.166 -14.833 -29.499 -19.5s-23.333 -7 -36 -7c-25.333 0 -47 8.83301 -65 26.5s-27 39.167 -27 64.5c0 12.667 2.5 24.5 7.5 35.5s11.667 20.667 20 29s18 14.833 29 19.5s22.833 7 35.5 7s24.667 -2.33301 36 -7
s21.166 -11.167 29.499 -19.5s14.833 -18 19.5 -29s7 -22.833 7 -35.5zM348 811c0 17.333 -6 32.166 -18 44.499s-27 18.5 -45 18.5c-17.333 0 -32.166 -6.16699 -44.499 -18.5s-18.5 -27.166 -18.5 -44.499s6.16699 -32.166 18.5 -44.499s27.166 -18.5 44.499 -18.5
c18 0 33 6.16699 45 18.5s18 27.166 18 44.499z" />
    <glyph glyph-name="AE" unicode="&#xc6;" horiz-adv-x="920" 
d="M463 0v184h-291l-117 -184h-54l438 689h467v-44h-395v-274h339v-43h-339v-285h395v-43h-443zM199 226h264v417z" />
    <glyph glyph-name="Ccedilla" unicode="&#xc7;" horiz-adv-x="502" 
d="M276 -163c14 0 27.8311 2.99902 41.498 8.99902s20.5 17.667 20.5 35c0 8.66699 -2.16699 16.167 -6.5 22.5s-10 11.333 -17 15s-14.833 6.16699 -23.5 7.5s-17.334 1.33301 -26.001 0l-20 10l18 59c-32.667 2.66699 -62 10.167 -88 22.5s-48.167 28.5 -66.5 48.5
s-32.5 43.5 -42.5 70.5s-15 56.167 -15 87.5v244c0 33.333 5.83301 64 17.5 92s28.167 52 49.5 72s46.833 35.667 76.5 47s62.5 17 98.5 17c34.667 0 66.5 -4 95.5 -12s56.5 -21 82.5 -39l-26 -39c-21.333 15.333 -45 26.833 -71 34.5s-53 11.5 -81 11.5
c-24 0 -47.667 -3.66699 -71 -11s-44.166 -18.833 -62.499 -34.5s-33 -35.667 -44 -60s-16.5 -53.5 -16.5 -87.5v-227c0 -34 5.66699 -63.333 17 -88s26 -45 44 -61s38.333 -27.833 61 -35.5s45.667 -11.5 69 -11.5c58.667 0 111 16.333 157 49l25 -37
c-18 -13.333 -42.333 -25.833 -73 -37.5s-66 -17.5 -106 -17.5h-1l-12 -37c18 0 33 -2.66699 45 -8s21.667 -11.833 29 -19.5s12.5 -15.834 15.5 -24.501s4.5 -16.667 4.5 -24s-1.66699 -15.166 -5 -23.499s-8.83301 -16.166 -16.5 -23.499s-17.667 -13.333 -30 -18
s-27.5 -7 -45.5 -7c-7.33301 0 -17.166 0.833008 -29.499 2.5s-26.833 5.16699 -43.5 10.5l10 26c11.333 -3.33301 22.333 -5.83301 33 -7.5s20.334 -2.5 29.001 -2.5z" />
    <glyph glyph-name="Egrave" unicode="&#xc8;" horiz-adv-x="532" 
d="M57 0v689h443v-44h-395v-274h340v-43h-340v-285h395v-43h-443zM306 729l-151 93l35 37l136 -108z" />
    <glyph glyph-name="Eacute" unicode="&#xc9;" horiz-adv-x="532" 
d="M57 0v689h443v-44h-395v-274h340v-43h-340v-285h395v-43h-443zM217 751l136 108l35 -37l-151 -93z" />
    <glyph glyph-name="Ecircumflex" unicode="&#xca;" horiz-adv-x="532" 
d="M57 0v689h443v-44h-395v-274h340v-43h-340v-285h395v-43h-443zM279 814l-130 -84l-18 21l131 109h37l127 -108l-18 -21z" />
    <glyph glyph-name="Edieresis" unicode="&#xcb;" horiz-adv-x="532" 
d="M57 0v689h443v-44h-395v-274h340v-43h-340v-285h395v-43h-443zM396 784c0 -8.66699 -3 -16.167 -9 -22.5s-13.667 -9.5 -23 -9.5c-8.66699 0 -16 3.16699 -22 9.5s-9 13.833 -9 22.5c0 9.33301 3 17 9 23s13.333 9 22 9c9.33301 0 17 -3 23 -9s9 -13.667 9 -23zM228 784
c0 -8.66699 -3.16699 -16.167 -9.5 -22.5s-13.833 -9.5 -22.5 -9.5s-16.167 3.16699 -22.5 9.5s-9.5 13.833 -9.5 22.5c0 9.33301 3.16699 17 9.5 23s13.833 9 22.5 9s16.167 -3 22.5 -9s9.5 -13.667 9.5 -23z" />
    <glyph glyph-name="Igrave" unicode="&#xcc;" horiz-adv-x="216" 
d="M84 0v689h48v-689h-48zM120 729l-151 93l35 37l136 -108z" />
    <glyph glyph-name="Iacute" unicode="&#xcd;" horiz-adv-x="216" 
d="M84 0v689h48v-689h-48zM75 751l136 108l35 -37l-151 -93z" />
    <glyph glyph-name="Icircumflex" unicode="&#xce;" horiz-adv-x="216" 
d="M84 0v689h48v-689h-48zM109 814l-130 -84l-18 21l131 109h37l127 -108l-18 -21z" />
    <glyph glyph-name="Idieresis" unicode="&#xcf;" horiz-adv-x="216" 
d="M84 0v689h48v-689h-48zM225 785c0 -9.33301 -3 -17 -9 -23s-13.667 -9 -23 -9c-8.66699 0 -16.167 3 -22.5 9s-9.5 13.667 -9.5 23c0 8.66699 3.16699 16.167 9.5 22.5s13.833 9.5 22.5 9.5c9.33301 0 17 -3.16699 23 -9.5s9 -13.833 9 -22.5zM57 785
c0 -9.33301 -3.16699 -17 -9.5 -23s-14.166 -9 -23.499 -9c-8 0 -15.167 3 -21.5 9s-9.5 13.667 -9.5 23c0 8.66699 3.16699 16.167 9.5 22.5s13.5 9.5 21.5 9.5c9.33301 0 17.166 -3.16699 23.499 -9.5s9.5 -13.833 9.5 -22.5z" />
    <glyph glyph-name="Eth" unicode="&#xd0;" horiz-adv-x="581" 
d="M6 380l50.002 -0.00195312v309h255c34 0 64.833 -5.5 92.5 -16.5s51 -26.5 70 -46.5s33.667 -43.833 44 -71.5s15.5 -58.167 15.5 -91.5v-240c0 -33.333 -5.33301 -63.666 -16 -90.999s-25.834 -50.666 -45.501 -69.999s-43.334 -34.5 -71.001 -45.5
s-58.5 -16.5 -92.5 -16.5h-252v342h-50v38zM484.002 454.998c0 34.667 -5.33203 64 -15.999 88s-24.334 43.5 -41.001 58.5s-35.667 26 -57 33s-42.333 10.5 -63 10.5h-203v-265h167v-38h-167v-300h191c22.667 0 45.167 3.33301 67.5 10s42.5 17.5 60.5 32.5
s32.667 34.5 44 58.5s17 53.667 17 89v223z" />
    <glyph glyph-name="Ntilde" unicode="&#xd1;" horiz-adv-x="613" 
d="M505 0l-125.5 189.5l-126.5 190.5l-73.5 112.5l-75.5 111.5v-604h-48v689h48l256 -386l73.5 -111.5l74.5 -110.5v608h48v-689h-51zM250 835c10.667 0 21.666 -2.16992 32.999 -6.50293s22.5 -9.16602 33.5 -14.499s21.667 -10.166 32 -14.499s19.5 -6.5 27.5 -6.5
c10.667 0 20.167 3.16699 28.5 9.5s17.5 16.833 27.5 31.5l30 -17c-12.667 -23.333 -26 -40 -40 -50s-29 -15 -45 -15c-10 0 -20.333 2 -31 6s-21.5 8.5 -32.5 13.5s-21.833 9.66699 -32.5 14s-20.667 6.5 -30 6.5c-12.667 0 -23.667 -3.16699 -33 -9.5
s-19.333 -16.166 -30 -29.499l-30 18c12.667 20.667 26.834 36.5 42.501 47.5s32.167 16.5 49.5 16.5z" />
    <glyph glyph-name="Ograve" unicode="&#xd2;" horiz-adv-x="587" 
d="M536 220c0 -34 -5.83301 -65 -17.5 -93s-28 -51.833 -49 -71.5s-46.5 -35 -76.5 -46s-63.333 -16.5 -100 -16.5c-37.333 0 -70.833 5.5 -100.5 16.5s-55 26.667 -76 47s-37.167 44.666 -48.5 72.999s-17 59.5 -17 93.5v245c0 33.333 5.5 64 16.5 92s27 52 48 72
s46.5 35.667 76.5 47s63.667 17 101 17c36.667 0 70 -5.66699 100 -17s55.5 -27.166 76.5 -47.499s37.333 -44.5 49 -72.5s17.5 -58.333 17.5 -91v-248zM488 459c0 32.667 -5.33203 61.166 -15.999 85.499s-25 44.5 -43 60.5s-38.667 27.833 -62 35.5s-48 11.5 -74 11.5
c-26.667 0 -51.834 -3.83301 -75.501 -11.5s-44.167 -19.5 -61.5 -35.5s-31.166 -36.167 -41.499 -60.5s-15.5 -52.833 -15.5 -85.5v-231c0 -34 5.66699 -63 17 -87s26.166 -43.833 44.499 -59.5s39.166 -27.167 62.499 -34.5s46.666 -11 69.999 -11
c26.667 0 51.834 3.83301 75.501 11.5s44.334 19.334 62.001 35.001s31.667 35.5 42 59.5s15.5 52.667 15.5 86v231zM316.001 728.999l-151 93l35 37l136 -108z" />
    <glyph glyph-name="Oacute" unicode="&#xd3;" horiz-adv-x="587" 
d="M536 220c0 -34 -5.83301 -65 -17.5 -93s-28 -51.833 -49 -71.5s-46.5 -35 -76.5 -46s-63.333 -16.5 -100 -16.5c-37.333 0 -70.833 5.5 -100.5 16.5s-55 26.667 -76 47s-37.167 44.666 -48.5 72.999s-17 59.5 -17 93.5v245c0 33.333 5.5 64 16.5 92s27 52 48 72
s46.5 35.667 76.5 47s63.667 17 101 17c36.667 0 70 -5.66699 100 -17s55.5 -27.166 76.5 -47.499s37.333 -44.5 49 -72.5s17.5 -58.333 17.5 -91v-248zM488 459c0 32.667 -5.33203 61.166 -15.999 85.499s-25 44.5 -43 60.5s-38.667 27.833 -62 35.5s-48 11.5 -74 11.5
c-26.667 0 -51.834 -3.83301 -75.501 -11.5s-44.167 -19.5 -61.5 -35.5s-31.166 -36.167 -41.499 -60.5s-15.5 -52.833 -15.5 -85.5v-231c0 -34 5.66699 -63 17 -87s26.166 -43.833 44.499 -59.5s39.166 -27.167 62.499 -34.5s46.666 -11 69.999 -11
c26.667 0 51.834 3.83301 75.501 11.5s44.334 19.334 62.001 35.001s31.667 35.5 42 59.5s15.5 52.667 15.5 86v231zM251.001 750.999l136 108l35 -37l-151 -93z" />
    <glyph glyph-name="Ocircumflex" unicode="&#xd4;" horiz-adv-x="587" 
d="M536 220c0 -34 -5.83301 -65 -17.5 -93s-28 -51.833 -49 -71.5s-46.5 -35 -76.5 -46s-63.333 -16.5 -100 -16.5c-37.333 0 -70.833 5.5 -100.5 16.5s-55 26.667 -76 47s-37.167 44.666 -48.5 72.999s-17 59.5 -17 93.5v245c0 33.333 5.5 64 16.5 92s27 52 48 72
s46.5 35.667 76.5 47s63.667 17 101 17c36.667 0 70 -5.66699 100 -17s55.5 -27.166 76.5 -47.499s37.333 -44.5 49 -72.5s17.5 -58.333 17.5 -91v-248zM488 459c0 32.667 -5.33203 61.166 -15.999 85.499s-25 44.5 -43 60.5s-38.667 27.833 -62 35.5s-48 11.5 -74 11.5
c-26.667 0 -51.834 -3.83301 -75.501 -11.5s-44.167 -19.5 -61.5 -35.5s-31.166 -36.167 -41.499 -60.5s-15.5 -52.833 -15.5 -85.5v-231c0 -34 5.66699 -63 17 -87s26.166 -43.833 44.499 -59.5s39.166 -27.167 62.499 -34.5s46.666 -11 69.999 -11
c26.667 0 51.834 3.83301 75.501 11.5s44.334 19.334 62.001 35.001s31.667 35.5 42 59.5s15.5 52.667 15.5 86v231zM295.001 813.999l-130 -84l-18 21l131 109h37l127 -108l-18 -21z" />
    <glyph glyph-name="Otilde" unicode="&#xd5;" horiz-adv-x="587" 
d="M536 220c0 -34 -5.83301 -65 -17.5 -93s-28 -51.833 -49 -71.5s-46.5 -35 -76.5 -46s-63.333 -16.5 -100 -16.5c-37.333 0 -70.833 5.5 -100.5 16.5s-55 26.667 -76 47s-37.167 44.666 -48.5 72.999s-17 59.5 -17 93.5v245c0 33.333 5.5 64 16.5 92s27 52 48 72
s46.5 35.667 76.5 47s63.667 17 101 17c36.667 0 70 -5.66699 100 -17s55.5 -27.166 76.5 -47.499s37.333 -44.5 49 -72.5s17.5 -58.333 17.5 -91v-248zM488 459c0 32.667 -5.33203 61.166 -15.999 85.499s-25 44.5 -43 60.5s-38.667 27.833 -62 35.5s-48 11.5 -74 11.5
c-26.667 0 -51.834 -3.83301 -75.501 -11.5s-44.167 -19.5 -61.5 -35.5s-31.166 -36.167 -41.499 -60.5s-15.5 -52.833 -15.5 -85.5v-231c0 -34 5.66699 -63 17 -87s26.166 -43.833 44.499 -59.5s39.166 -27.167 62.499 -34.5s46.666 -11 69.999 -11
c26.667 0 51.834 3.83301 75.501 11.5s44.334 19.334 62.001 35.001s31.667 35.5 42 59.5s15.5 52.667 15.5 86v231zM238.001 826.999c10.667 0 21.666 -2.16992 32.999 -6.50293s22.5 -9.16602 33.5 -14.499s21.667 -10.166 32 -14.499s19.5 -6.5 27.5 -6.5
c10.667 0 20.167 3.16699 28.5 9.5s17.5 16.833 27.5 31.5l30 -17c-12.667 -23.333 -26 -40 -40 -50s-29 -15 -45 -15c-10 0 -20.333 2 -31 6s-21.5 8.5 -32.5 13.5s-21.833 9.66699 -32.5 14s-20.667 6.5 -30 6.5c-12.667 0 -23.667 -3.16699 -33 -9.5
s-19.333 -16.166 -30 -29.499l-30 18c12.667 20.667 26.834 36.5 42.501 47.5s32.167 16.5 49.5 16.5z" />
    <glyph glyph-name="Odieresis" unicode="&#xd6;" horiz-adv-x="587" 
d="M536 220c0 -34 -5.83301 -65 -17.5 -93s-28 -51.833 -49 -71.5s-46.5 -35 -76.5 -46s-63.333 -16.5 -100 -16.5c-37.333 0 -70.833 5.5 -100.5 16.5s-55 26.667 -76 47s-37.167 44.666 -48.5 72.999s-17 59.5 -17 93.5v245c0 33.333 5.5 64 16.5 92s27 52 48 72
s46.5 35.667 76.5 47s63.667 17 101 17c36.667 0 70 -5.66699 100 -17s55.5 -27.166 76.5 -47.499s37.333 -44.5 49 -72.5s17.5 -58.333 17.5 -91v-248zM488 459c0 32.667 -5.33203 61.166 -15.999 85.499s-25 44.5 -43 60.5s-38.667 27.833 -62 35.5s-48 11.5 -74 11.5
c-26.667 0 -51.834 -3.83301 -75.501 -11.5s-44.167 -19.5 -61.5 -35.5s-31.166 -36.167 -41.499 -60.5s-15.5 -52.833 -15.5 -85.5v-231c0 -34 5.66699 -63 17 -87s26.166 -43.833 44.499 -59.5s39.166 -27.167 62.499 -34.5s46.666 -11 69.999 -11
c26.667 0 51.834 3.83301 75.501 11.5s44.334 19.334 62.001 35.001s31.667 35.5 42 59.5s15.5 52.667 15.5 86v231zM413.001 784.999c0 -9.33301 -3 -17 -9 -23s-13.667 -9 -23 -9c-8.66699 0 -16.167 3 -22.5 9s-9.5 13.667 -9.5 23c0 8.66699 3.16699 16.167 9.5 22.5
s13.833 9.5 22.5 9.5c9.33301 0 17 -3.16699 23 -9.5s9 -13.833 9 -22.5zM245.001 784.999c0 -9.33301 -3.16699 -17 -9.5 -23s-14.166 -9 -23.499 -9c-8 0 -15.167 3 -21.5 9s-9.5 13.667 -9.5 23c0 8.66699 3.16699 16.167 9.5 22.5s13.5 9.5 21.5 9.5
c9.33301 0 17.166 -3.16699 23.499 -9.5s9.5 -13.833 9.5 -22.5z" />
    <glyph glyph-name="multiply" unicode="&#xd7;" horiz-adv-x="473" 
d="M263 273l158 -158l-26 -26l-158 157l-160 -160l-26 26l161 161l-157 157l26 26l157 -157l159 159l25 -26z" />
    <glyph glyph-name="Oslash" unicode="&#xd8;" horiz-adv-x="587" 
d="M536 220c0 -34 -5.83203 -65 -17.499 -93s-28 -51.833 -49 -71.5s-46.5 -35 -76.5 -46s-63.333 -16.5 -100 -16.5s-69.5 5.33301 -98.5 16s-54.167 25.667 -75.5 45l-42 -62l-27 18l46 69c-30 39.333 -45 87.333 -45 144v245c0 33.333 5.5 64 16.5 92s27 52 48 72
s46.5 35.667 76.5 47s63.667 17 101 17c36 0 68.667 -5.66699 98 -17s54.666 -26.666 75.999 -45.999l43 63l27 -18l-47 -70c30.667 -38.667 46 -85.334 46 -140.001v-248zM488.001 459c0 41.333 -9.00195 76.666 -27.002 105.999l-315 -470
c19.333 -20.667 41.833 -35.667 67.5 -45s52.167 -14 79.5 -14c26.667 0 51.834 3.83301 75.501 11.5s44.334 19.334 62.001 35.001s31.667 35.5 42 59.5s15.5 52.667 15.5 86v231zM98.999 228c0 -21.333 2.33496 -40.833 7.00195 -58.5s11 -33.167 19 -46.5l316 470
c-18.667 20 -40.834 34.833 -66.501 44.5s-52.834 14.5 -81.501 14.5c-26.667 0 -51.834 -3.83301 -75.501 -11.5s-44.167 -19.5 -61.5 -35.5s-31.166 -36.167 -41.499 -60.5s-15.5 -52.833 -15.5 -85.5v-231z" />
    <glyph glyph-name="Ugrave" unicode="&#xd9;" horiz-adv-x="590" 
d="M539 219c0 -34 -6 -64.999 -18 -92.999s-28.833 -51.833 -50.5 -71.5s-47.5 -34.834 -77.5 -45.501s-62.667 -16 -98 -16c-36 0 -68.833 5.33301 -98.5 16s-55.167 26 -76.5 46s-38 44 -50 72s-18 59 -18 93v469h49v-461c0 -34 5.5 -63 16.5 -87s25.5 -43.667 43.5 -59
s38.667 -26.666 62 -33.999s47.333 -11 72 -11c25.333 0 49.833 3.66699 73.5 11s44.5 18.666 62.5 33.999s32.333 35 43 59s16 53 16 87v461h49v-470zM325 729.001l-151 93l35 37l136 -108z" />
    <glyph glyph-name="Uacute" unicode="&#xda;" horiz-adv-x="590" 
d="M539 219c0 -34 -6 -64.999 -18 -92.999s-28.833 -51.833 -50.5 -71.5s-47.5 -34.834 -77.5 -45.501s-62.667 -16 -98 -16c-36 0 -68.833 5.33301 -98.5 16s-55.167 26 -76.5 46s-38 44 -50 72s-18 59 -18 93v469h49v-461c0 -34 5.5 -63 16.5 -87s25.5 -43.667 43.5 -59
s38.667 -26.666 62 -33.999s47.333 -11 72 -11c25.333 0 49.833 3.66699 73.5 11s44.5 18.666 62.5 33.999s32.333 35 43 59s16 53 16 87v461h49v-470zM243 751.001l136 108l35 -37l-151 -93z" />
    <glyph glyph-name="Ucircumflex" unicode="&#xdb;" horiz-adv-x="590" 
d="M539 219c0 -34 -6 -64.999 -18 -92.999s-28.833 -51.833 -50.5 -71.5s-47.5 -34.834 -77.5 -45.501s-62.667 -16 -98 -16c-36 0 -68.833 5.33301 -98.5 16s-55.167 26 -76.5 46s-38 44 -50 72s-18 59 -18 93v469h49v-461c0 -34 5.5 -63 16.5 -87s25.5 -43.667 43.5 -59
s38.667 -26.666 62 -33.999s47.333 -11 72 -11c25.333 0 49.833 3.66699 73.5 11s44.5 18.666 62.5 33.999s32.333 35 43 59s16 53 16 87v461h49v-470zM295 814.001l-130 -84l-18 21l131 109h37l127 -108l-18 -21z" />
    <glyph glyph-name="Udieresis" unicode="&#xdc;" horiz-adv-x="590" 
d="M539 219c0 -34 -6 -64.999 -18 -92.999s-28.833 -51.833 -50.5 -71.5s-47.5 -34.834 -77.5 -45.501s-62.667 -16 -98 -16c-36 0 -68.833 5.33301 -98.5 16s-55.167 26 -76.5 46s-38 44 -50 72s-18 59 -18 93v469h49v-461c0 -34 5.5 -63 16.5 -87s25.5 -43.667 43.5 -59
s38.667 -26.666 62 -33.999s47.333 -11 72 -11c25.333 0 49.833 3.66699 73.5 11s44.5 18.666 62.5 33.999s32.333 35 43 59s16 53 16 87v461h49v-470zM415 785.001c0 -9.33301 -3 -17 -9 -23s-13.667 -9 -23 -9c-8.66699 0 -16.167 3 -22.5 9s-9.5 13.667 -9.5 23
c0 8.66699 3.16699 16.167 9.5 22.5s13.833 9.5 22.5 9.5c9.33301 0 17 -3.16699 23 -9.5s9 -13.833 9 -22.5zM247 785.001c0 -9.33301 -3.16699 -17 -9.5 -23s-14.166 -9 -23.499 -9c-8 0 -15.167 3 -21.5 9s-9.5 13.667 -9.5 23c0 8.66699 3.16699 16.167 9.5 22.5
s13.5 9.5 21.5 9.5c9.33301 0 17.166 -3.16699 23.499 -9.5s9.5 -13.833 9.5 -22.5z" />
    <glyph glyph-name="Yacute" unicode="&#xdd;" horiz-adv-x="490" 
d="M269 0h-47.999v259l-104 215l-105 215h53l78 -162l75 -160c5.33301 -9.33301 10.166 -18.333 14.499 -27l13.5 -27l101 216l77 160h51l-102.5 -214.5l-103.5 -213.5v-261zM180.001 751l136 108l35 -37l-151 -93z" />
    <glyph glyph-name="Thorn" unicode="&#xde;" horiz-adv-x="539" 
d="M516 356c0 -24 -4.16699 -47.498 -12.5 -70.498s-20.666 -43.833 -36.999 -62.5s-36.333 -33.667 -60 -45s-50.834 -17 -81.501 -17h-223v-161h-47v689h48v-135h222c32 0 60 -5.83301 84 -17.5s44 -26.834 60 -45.501s27.833 -39.834 35.5 -63.501s11.5 -47.5 11.5 -71.5
zM467 356.002c0 23.333 -4 44.5 -12 63.5s-18.833 35.167 -32.5 48.5s-29.667 23.5 -48 30.5s-37.833 10.5 -58.5 10.5h-214v-304h214c20.667 0 40.167 3.33301 58.5 10s34.333 16.5 48 29.5s24.5 28.833 32.5 47.5s12 40 12 64z" />
    <glyph glyph-name="germandbls" unicode="&#xdf;" horiz-adv-x="479" 
d="M94 0l-44.002 -0.00195312v528c0 28 4.5 53.333 13.5 76s21.5 42 37.5 58s35.167 28.333 57.5 37s46.5 13 72.5 13c34 0 62.5 -5.33301 85.5 -16s41.333 -24 55 -40s23.334 -33.667 29.001 -53s8.5 -37.333 8.5 -54c0 -9.33301 -1 -20.166 -3 -32.499
s-5.66699 -24.833 -11 -37.5s-13.166 -24.834 -23.499 -36.501s-23.5 -21.5 -39.5 -29.5c20 -5.33301 36.667 -14 50 -26s24 -25.333 32 -40s13.5 -30.167 16.5 -46.5s4.5 -31.833 4.5 -46.5v-89c0 -55.333 -15.167 -97.666 -45.5 -126.999s-71.833 -44 -124.5 -44h-19.5
c-7 0 -14.167 0.666992 -21.5 2v38h37c47.333 0 80.833 12.833 100.5 38.5s29.5 60.5 29.5 104.5v77c0 42 -11.333 74.167 -34 96.5s-55 33.5 -97 33.5h-18v40h12c20 0 37 4 51 12s25.5 18.167 34.5 30.5s15.5 25.666 19.5 39.999s6 27.5 6 39.5c0 14 -2.33301 28.5 -7 43.5
s-12.334 28.667 -23.001 41s-24.5 22.5 -41.5 30.5s-37.833 12 -62.5 12c-25.333 0 -46.666 -4.66699 -63.999 -14s-31.5 -21.166 -42.5 -35.499s-18.833 -30.166 -23.5 -47.499s-7 -34 -7 -50v-526z" />
    <glyph glyph-name="agrave" unicode="&#xe0;" horiz-adv-x="466" 
d="M375 61h-1c-24 -15.333 -45.5 -27.333 -64.5 -36s-36 -15.334 -51 -20.001s-28.5 -7.66699 -40.5 -9s-22.667 -2 -32 -2c-46 0 -83.167 11.667 -111.5 35s-42.5 58 -42.5 104c0 26 5.33301 48 16 66s24 32.5 40 43.5s33.667 19 53 24s38 7.5 56 7.5h178v49
c0 88 -46.333 132 -139 132c-23.333 0 -47.333 -3.33301 -72 -10s-49.667 -18.667 -75 -36l-24 36c28 18.667 56 31.834 84 39.501s58 11.5 90 11.5c34 0 62.5 -3.83301 85.5 -11.5s41.5 -18.834 55.5 -33.501s24 -32.167 30 -52.5s9 -43.166 9 -68.499v-330h-36zM214 235
c-13.333 0 -27.832 -1 -43.499 -3s-30.334 -6.5 -44.001 -13.5s-25 -17.333 -34 -31s-13.5 -31.834 -13.5 -54.501c0 -17.333 3 -32.166 9 -44.499s14.167 -22.5 24.5 -30.5s22.333 -14 36 -18s28.167 -6 43.5 -6c14.667 0 29.834 2.16699 45.501 6.5
s31.5 9.83301 47.5 16.5s31.667 14.167 47 22.5s29.666 16.5 42.999 24.5v131h-161zM249.001 563l-99 147l48 19l79 -154z" />
    <glyph glyph-name="aacute" unicode="&#xe1;" horiz-adv-x="466" 
d="M375 61h-1c-24 -15.333 -45.5 -27.333 -64.5 -36s-36 -15.334 -51 -20.001s-28.5 -7.66699 -40.5 -9s-22.667 -2 -32 -2c-46 0 -83.167 11.667 -111.5 35s-42.5 58 -42.5 104c0 26 5.33301 48 16 66s24 32.5 40 43.5s33.667 19 53 24s38 7.5 56 7.5h178v49
c0 88 -46.333 132 -139 132c-23.333 0 -47.333 -3.33301 -72 -10s-49.667 -18.667 -75 -36l-24 36c28 18.667 56 31.834 84 39.501s58 11.5 90 11.5c34 0 62.5 -3.83301 85.5 -11.5s41.5 -18.834 55.5 -33.501s24 -32.167 30 -52.5s9 -43.166 9 -68.499v-330h-36zM214 235
c-13.333 0 -27.832 -1 -43.499 -3s-30.334 -6.5 -44.001 -13.5s-25 -17.333 -34 -31s-13.5 -31.834 -13.5 -54.501c0 -17.333 3 -32.166 9 -44.499s14.167 -22.5 24.5 -30.5s22.333 -14 36 -18s28.167 -6 43.5 -6c14.667 0 29.834 2.16699 45.501 6.5
s31.5 9.83301 47.5 16.5s31.667 14.167 47 22.5s29.666 16.5 42.999 24.5v131h-161zM222.001 575l78 154l49 -19l-100 -147z" />
    <glyph glyph-name="acircumflex" unicode="&#xe2;" horiz-adv-x="466" 
d="M375 61h-1c-24 -15.333 -45.5 -27.333 -64.5 -36s-36 -15.334 -51 -20.001s-28.5 -7.66699 -40.5 -9s-22.667 -2 -32 -2c-46 0 -83.167 11.667 -111.5 35s-42.5 58 -42.5 104c0 26 5.33301 48 16 66s24 32.5 40 43.5s33.667 19 53 24s38 7.5 56 7.5h178v49
c0 88 -46.333 132 -139 132c-23.333 0 -47.333 -3.33301 -72 -10s-49.667 -18.667 -75 -36l-24 36c28 18.667 56 31.834 84 39.501s58 11.5 90 11.5c34 0 62.5 -3.83301 85.5 -11.5s41.5 -18.834 55.5 -33.501s24 -32.167 30 -52.5s9 -43.166 9 -68.499v-330h-36zM214 235
c-13.333 0 -27.832 -1 -43.499 -3s-30.334 -6.5 -44.001 -13.5s-25 -17.333 -34 -31s-13.5 -31.834 -13.5 -54.501c0 -17.333 3 -32.166 9 -44.499s14.167 -22.5 24.5 -30.5s22.333 -14 36 -18s28.167 -6 43.5 -6c14.667 0 29.834 2.16699 45.501 6.5
s31.5 9.83301 47.5 16.5s31.667 14.167 47 22.5s29.666 16.5 42.999 24.5v131h-161zM242.001 654l-127 -98l-21 21l132 124h37l126 -123l-21 -21z" />
    <glyph glyph-name="atilde" unicode="&#xe3;" horiz-adv-x="466" 
d="M375 61h-1c-24 -15.333 -45.5 -27.333 -64.5 -36s-36 -15.334 -51 -20.001s-28.5 -7.66699 -40.5 -9s-22.667 -2 -32 -2c-46 0 -83.167 11.667 -111.5 35s-42.5 58 -42.5 104c0 26 5.33301 48 16 66s24 32.5 40 43.5s33.667 19 53 24s38 7.5 56 7.5h178v49
c0 88 -46.333 132 -139 132c-23.333 0 -47.333 -3.33301 -72 -10s-49.667 -18.667 -75 -36l-24 36c28 18.667 56 31.834 84 39.501s58 11.5 90 11.5c34 0 62.5 -3.83301 85.5 -11.5s41.5 -18.834 55.5 -33.501s24 -32.167 30 -52.5s9 -43.166 9 -68.499v-330h-36zM214 235
c-13.333 0 -27.832 -1 -43.499 -3s-30.334 -6.5 -44.001 -13.5s-25 -17.333 -34 -31s-13.5 -31.834 -13.5 -54.501c0 -17.333 3 -32.166 9 -44.499s14.167 -22.5 24.5 -30.5s22.333 -14 36 -18s28.167 -6 43.5 -6c14.667 0 29.834 2.16699 45.501 6.5
s31.5 9.83301 47.5 16.5s31.667 14.167 47 22.5s29.666 16.5 42.999 24.5v131h-161zM186.001 684c10.667 0 21.666 -2.16992 32.999 -6.50293s22.5 -9.16602 33.5 -14.499s21.667 -10.166 32 -14.499s19.5 -6.5 27.5 -6.5c10.667 0 20.167 3.16699 28.5 9.5
s17.5 16.833 27.5 31.5l30 -17c-12.667 -23.333 -26 -40 -40 -50s-29 -15 -45 -15c-10 0 -20.333 2 -31 6s-21.5 8.5 -32.5 13.5s-21.833 9.66699 -32.5 14s-20.667 6.5 -30 6.5c-12.667 0 -23.667 -3.16699 -33 -9.5s-19.333 -16.166 -30 -29.499l-30 18
c12.667 20.667 26.834 36.5 42.501 47.5s32.167 16.5 49.5 16.5z" />
    <glyph glyph-name="adieresis" unicode="&#xe4;" horiz-adv-x="466" 
d="M375 61h-1c-24 -15.333 -45.5 -27.333 -64.5 -36s-36 -15.334 -51 -20.001s-28.5 -7.66699 -40.5 -9s-22.667 -2 -32 -2c-46 0 -83.167 11.667 -111.5 35s-42.5 58 -42.5 104c0 26 5.33301 48 16 66s24 32.5 40 43.5s33.667 19 53 24s38 7.5 56 7.5h178v49
c0 88 -46.333 132 -139 132c-23.333 0 -47.333 -3.33301 -72 -10s-49.667 -18.667 -75 -36l-24 36c28 18.667 56 31.834 84 39.501s58 11.5 90 11.5c34 0 62.5 -3.83301 85.5 -11.5s41.5 -18.834 55.5 -33.501s24 -32.167 30 -52.5s9 -43.166 9 -68.499v-330h-36zM214 235
c-13.333 0 -27.832 -1 -43.499 -3s-30.334 -6.5 -44.001 -13.5s-25 -17.333 -34 -31s-13.5 -31.834 -13.5 -54.501c0 -17.333 3 -32.166 9 -44.499s14.167 -22.5 24.5 -30.5s22.333 -14 36 -18s28.167 -6 43.5 -6c14.667 0 29.834 2.16699 45.501 6.5
s31.5 9.83301 47.5 16.5s31.667 14.167 47 22.5s29.666 16.5 42.999 24.5v131h-161zM365.001 650c0 -8.66699 -3 -16.167 -9 -22.5s-13.667 -9.5 -23 -9.5c-8.66699 0 -16.167 3.16699 -22.5 9.5s-9.5 13.833 -9.5 22.5c0 9.33301 3.16699 17 9.5 23s13.833 9 22.5 9
c9.33301 0 17 -3 23 -9s9 -13.667 9 -23zM197.001 650c0 -8.66699 -3.16699 -16.167 -9.5 -22.5s-14.166 -9.5 -23.499 -9.5c-8 0 -15.167 3.16699 -21.5 9.5s-9.5 13.833 -9.5 22.5c0 9.33301 3.16699 17 9.5 23s13.5 9 21.5 9c9.33301 0 17.166 -3 23.499 -9
s9.5 -13.667 9.5 -23z" />
    <glyph glyph-name="aring" unicode="&#xe5;" horiz-adv-x="466" 
d="M375 61h-1c-24 -15.333 -45.5 -27.333 -64.5 -36s-36 -15.334 -51 -20.001s-28.5 -7.66699 -40.5 -9s-22.667 -2 -32 -2c-46 0 -83.167 11.667 -111.5 35s-42.5 58 -42.5 104c0 26 5.33301 48 16 66s24 32.5 40 43.5s33.667 19 53 24s38 7.5 56 7.5h178v49
c0 88 -46.333 132 -139 132c-23.333 0 -47.333 -3.33301 -72 -10s-49.667 -18.667 -75 -36l-24 36c28 18.667 56 31.834 84 39.501s58 11.5 90 11.5c34 0 62.5 -3.83301 85.5 -11.5s41.5 -18.834 55.5 -33.501s24 -32.167 30 -52.5s9 -43.166 9 -68.499v-330h-36zM214 235
c-13.333 0 -27.832 -1 -43.499 -3s-30.334 -6.5 -44.001 -13.5s-25 -17.333 -34 -31s-13.5 -31.834 -13.5 -54.501c0 -17.333 3 -32.166 9 -44.499s14.167 -22.5 24.5 -30.5s22.333 -14 36 -18s28.167 -6 43.5 -6c14.667 0 29.834 2.16699 45.501 6.5
s31.5 9.83301 47.5 16.5s31.667 14.167 47 22.5s29.666 16.5 42.999 24.5v131h-161zM342.001 643c0 -12.667 -2.33301 -24.5 -7 -35.5s-11.167 -20.667 -19.5 -29s-18.166 -14.833 -29.499 -19.5s-23.333 -7 -36 -7c-25.333 0 -47 8.83301 -65 26.5s-27 39.167 -27 64.5
c0 12.667 2.5 24.5 7.5 35.5s11.667 20.667 20 29s18 14.833 29 19.5s22.833 7 35.5 7s24.667 -2.33301 36 -7s21.166 -11.167 29.499 -19.5s14.833 -18 19.5 -29s7 -22.833 7 -35.5zM313.001 643c0 17.333 -6 32.166 -18 44.499s-27 18.5 -45 18.5
c-17.333 0 -32.166 -6.16699 -44.499 -18.5s-18.5 -27.166 -18.5 -44.499s6.16699 -32.166 18.5 -44.499s27.166 -18.5 44.499 -18.5c18 0 33 6.16699 45 18.5s18 27.166 18 44.499z" />
    <glyph glyph-name="ae" unicode="&#xe6;" horiz-adv-x="792" 
d="M420 174c0 -26 4.33008 -47.9971 12.9971 -65.9971s20 -32.5 34 -43.5s30 -19 48 -24s36.667 -7.5 56 -7.5c27.333 0 52 4.5 74 13.5s41.667 21.833 59 38.5l28 -31c-21.333 -20.667 -45.5 -35.834 -72.5 -45.501s-57.167 -14.5 -90.5 -14.5
c-36.667 0 -69.5 6.66699 -98.5 20s-53.167 34.333 -72.5 63c-28 -19.333 -53 -34.5 -75 -45.5s-41.5 -19.167 -58.5 -24.5s-31.833 -8.83301 -44.5 -10.5s-24 -2.5 -34 -2.5c-46 0 -83.167 11.667 -111.5 35s-42.5 58 -42.5 104c0 26 5.33301 47.667 16 65
s24.167 31 40.5 41s34.166 17.167 53.499 21.5s38 6.5 56 6.5h177v56c0 24.667 -3.33301 45.5 -10 62.5s-16.167 30.667 -28.5 41s-27.166 17.666 -44.499 21.999s-36.333 6.5 -57 6.5c-23.333 0 -47.166 -3.33301 -71.499 -10s-49.166 -18.667 -74.499 -36l-24 36
c28 18.667 55.667 31.834 83 39.501s57 11.5 89 11.5c46 0 82 -7.83301 108 -23.5s44.667 -36.834 56 -63.501c16 27.333 38.167 48.666 66.5 63.999s61.5 23 99.5 23c27.333 0 52.333 -4.16699 75 -12.5s42.334 -20 59.001 -35s29.5 -33.5 38.5 -55.5
s13.5 -46.333 13.5 -73v-91h-333v-55zM212.997 229.003c-13.333 0 -27.667 -0.668945 -43 -2.00195s-29.833 -5.16602 -43.5 -11.499s-25 -16 -34 -29s-13.5 -30.833 -13.5 -53.5c0 -17.333 3 -32.166 9 -44.499s14.167 -22.5 24.5 -30.5s22.5 -14 36.5 -18s28.667 -6 44 -6
c14 0 29.333 2.33301 46 7s33.5 10.5 50.5 17.5s33.333 15 49 24l43.5 25.5c-2 9.33301 -3.66699 20 -5 32s-2 24.667 -2 38v51h-162zM566.996 456.001c-18 0 -35.8311 -2.83301 -53.498 -8.5s-33.334 -14.667 -47.001 -27s-24.834 -28 -33.501 -47s-13 -41.5 -13 -67.5v-39
h287v40c0 26.667 -4 49.5 -12 68.5s-18.667 34.5 -32 46.5s-28.333 20.667 -45 26s-33.667 8 -51 8z" />
    <glyph glyph-name="ccedilla" unicode="&#xe7;" horiz-adv-x="410" 
d="M225 -163c14 0 27.8311 2.99902 41.498 8.99902s20.5 17.667 20.5 35c0 8.66699 -2.16699 16.167 -6.5 22.5s-10 11.333 -17 15s-14.833 6.16699 -23.5 7.5s-17.334 1.33301 -26.001 0l-20 10l19 60c-25.333 2.66699 -48.166 8.83398 -68.499 18.501
s-37.5 22.167 -51.5 37.5s-24.833 33.333 -32.5 54s-11.5 43 -11.5 67v148c0 26.667 4.66699 50.834 14 72.501s22.5 40.167 39.5 55.5s37 27.333 60 36s48.5 13 76.5 13c25.333 0 51.5 -3.5 78.5 -10.5s50.5 -19.167 70.5 -36.5l-28 -36c-19.333 15.333 -39.5 26 -60.5 32
s-39.833 9 -56.5 9c-18.667 0 -36.834 -2.66699 -54.501 -8s-33.5 -13.833 -47.5 -25.5s-25.167 -26.834 -33.5 -45.501s-12.5 -41.334 -12.5 -68.001v-125c0 -26 4.16699 -48.333 12.5 -67s19.5 -34 33.5 -46s29.833 -20.667 47.5 -26s35.5 -8 53.5 -8
c16 0 35.667 2.83301 59 8.5s43 14.834 59 27.501l27 -34c-20.667 -15.333 -43.667 -26.333 -69 -33s-50.666 -10.334 -75.999 -11.001c-2 -6.66699 -4.16699 -13 -6.5 -19s-4.5 -12.667 -6.5 -20c18 0 33 -2.66699 45 -8s21.667 -11.833 29 -19.5
s12.5 -15.834 15.5 -24.501s4.5 -16.667 4.5 -24s-1.66699 -15.166 -5 -23.499s-8.83301 -16.166 -16.5 -23.499s-17.667 -13.333 -30 -18s-27.5 -7 -45.5 -7c-7.33301 0 -17.166 0.833008 -29.499 2.5s-26.833 5.16699 -43.5 10.5l10 26
c11.333 -3.33301 22.333 -5.83301 33 -7.5s20.334 -2.5 29.001 -2.5z" />
    <glyph glyph-name="egrave" unicode="&#xe8;" horiz-adv-x="466" 
d="M94 227l-0.00195312 -45.9961c0 -27.333 4.33301 -50.333 13 -69s20 -33.834 34 -45.501s30 -20.167 48 -25.5s36.667 -8 56 -8c27.333 0 52 4.66699 74 14s41.667 22.333 59 39l28 -32c-20.667 -20.667 -44.667 -35.834 -72 -45.501s-57.666 -14.5 -90.999 -14.5
c-28 0 -53.833 3.83301 -77.5 11.5s-44.167 19 -61.5 34s-30.833 33.667 -40.5 56s-14.5 48.166 -14.5 77.499v139c0 28 4.66699 53.333 14 76s22.5 42.167 39.5 58.5s37.333 28.833 61 37.5s49.5 13 77.5 13c27.333 0 52.333 -4.5 75 -13.5s42.334 -21.5 59.001 -37.5
s29.5 -35.333 38.5 -58s13.5 -47.334 13.5 -74.001v-87h-333zM381.998 308.004c0 26.667 -4.16602 49.333 -12.499 68s-19.166 34 -32.499 46s-28.333 20.667 -45 26s-33.667 8 -51 8c-18 0 -35.833 -2.83301 -53.5 -8.5s-33.334 -14.5 -47.001 -26.5
s-24.834 -27.5 -33.501 -46.5s-13 -41.5 -13 -67.5v-41h288v42zM245.999 563.003l-99 147l48 19l79 -154z" />
    <glyph glyph-name="eacute" unicode="&#xe9;" horiz-adv-x="466" 
d="M94 227l-0.00195312 -45.9961c0 -27.333 4.33301 -50.333 13 -69s20 -33.834 34 -45.501s30 -20.167 48 -25.5s36.667 -8 56 -8c27.333 0 52 4.66699 74 14s41.667 22.333 59 39l28 -32c-20.667 -20.667 -44.667 -35.834 -72 -45.501s-57.666 -14.5 -90.999 -14.5
c-28 0 -53.833 3.83301 -77.5 11.5s-44.167 19 -61.5 34s-30.833 33.667 -40.5 56s-14.5 48.166 -14.5 77.499v139c0 28 4.66699 53.333 14 76s22.5 42.167 39.5 58.5s37.333 28.833 61 37.5s49.5 13 77.5 13c27.333 0 52.333 -4.5 75 -13.5s42.334 -21.5 59.001 -37.5
s29.5 -35.333 38.5 -58s13.5 -47.334 13.5 -74.001v-87h-333zM381.998 308.004c0 26.667 -4.16602 49.333 -12.499 68s-19.166 34 -32.499 46s-28.333 20.667 -45 26s-33.667 8 -51 8c-18 0 -35.833 -2.83301 -53.5 -8.5s-33.334 -14.5 -47.001 -26.5
s-24.834 -27.5 -33.501 -46.5s-13 -41.5 -13 -67.5v-41h288v42zM207.999 575.003l78 154l49 -19l-100 -147z" />
    <glyph glyph-name="ecircumflex" unicode="&#xea;" horiz-adv-x="466" 
d="M94 227l-0.00195312 -45.9961c0 -27.333 4.33301 -50.333 13 -69s20 -33.834 34 -45.501s30 -20.167 48 -25.5s36.667 -8 56 -8c27.333 0 52 4.66699 74 14s41.667 22.333 59 39l28 -32c-20.667 -20.667 -44.667 -35.834 -72 -45.501s-57.666 -14.5 -90.999 -14.5
c-28 0 -53.833 3.83301 -77.5 11.5s-44.167 19 -61.5 34s-30.833 33.667 -40.5 56s-14.5 48.166 -14.5 77.499v139c0 28 4.66699 53.333 14 76s22.5 42.167 39.5 58.5s37.333 28.833 61 37.5s49.5 13 77.5 13c27.333 0 52.333 -4.5 75 -13.5s42.334 -21.5 59.001 -37.5
s29.5 -35.333 38.5 -58s13.5 -47.334 13.5 -74.001v-87h-333zM381.998 308.004c0 26.667 -4.16602 49.333 -12.499 68s-19.166 34 -32.499 46s-28.333 20.667 -45 26s-33.667 8 -51 8c-18 0 -35.833 -2.83301 -53.5 -8.5s-33.334 -14.5 -47.001 -26.5
s-24.834 -27.5 -33.501 -46.5s-13 -41.5 -13 -67.5v-41h288v42zM234.999 654.003l-127 -98l-21 21l132 124h37l126 -123l-21 -21z" />
    <glyph glyph-name="edieresis" unicode="&#xeb;" horiz-adv-x="466" 
d="M94 227l-0.00195312 -45.9961c0 -27.333 4.33301 -50.333 13 -69s20 -33.834 34 -45.501s30 -20.167 48 -25.5s36.667 -8 56 -8c27.333 0 52 4.66699 74 14s41.667 22.333 59 39l28 -32c-20.667 -20.667 -44.667 -35.834 -72 -45.501s-57.666 -14.5 -90.999 -14.5
c-28 0 -53.833 3.83301 -77.5 11.5s-44.167 19 -61.5 34s-30.833 33.667 -40.5 56s-14.5 48.166 -14.5 77.499v139c0 28 4.66699 53.333 14 76s22.5 42.167 39.5 58.5s37.333 28.833 61 37.5s49.5 13 77.5 13c27.333 0 52.333 -4.5 75 -13.5s42.334 -21.5 59.001 -37.5
s29.5 -35.333 38.5 -58s13.5 -47.334 13.5 -74.001v-87h-333zM381.998 308.004c0 26.667 -4.16602 49.333 -12.499 68s-19.166 34 -32.499 46s-28.333 20.667 -45 26s-33.667 8 -51 8c-18 0 -35.833 -2.83301 -53.5 -8.5s-33.334 -14.5 -47.001 -26.5
s-24.834 -27.5 -33.501 -46.5s-13 -41.5 -13 -67.5v-41h288v42zM359.999 650.003c0 -8.66699 -3 -16.167 -9 -22.5s-13.667 -9.5 -23 -9.5c-8.66699 0 -16.167 3.16699 -22.5 9.5s-9.5 13.833 -9.5 22.5c0 9.33301 3.16699 17 9.5 23s13.833 9 22.5 9c9.33301 0 17 -3 23 -9
s9 -13.667 9 -23zM191.999 650.003c0 -8.66699 -3.16699 -16.167 -9.5 -22.5s-14.166 -9.5 -23.499 -9.5c-8 0 -15.167 3.16699 -21.5 9.5s-9.5 13.833 -9.5 22.5c0 9.33301 3.16699 17 9.5 23s13.5 9 21.5 9c9.33301 0 17.166 -3 23.499 -9s9.5 -13.667 9.5 -23z" />
    <glyph glyph-name="igrave" unicode="&#xec;" horiz-adv-x="205" 
d="M80 0v491h44v-491h-44zM91 563l-99 147l48 19l79 -154z" />
    <glyph glyph-name="iacute" unicode="&#xed;" horiz-adv-x="205" 
d="M80 0v491h44v-491h-44zM79 575l78 154l49 -19l-100 -147z" />
    <glyph glyph-name="icircumflex" unicode="&#xee;" horiz-adv-x="275" 
d="M116 0v491h44v-491h-44zM138 654l-127 -98l-21 21l132 124h37l126 -123l-21 -21z" />
    <glyph glyph-name="idieresis" unicode="&#xef;" horiz-adv-x="212" 
d="M84 0v491h44v-491h-44zM222 650c0 -8.66699 -3 -16.167 -9 -22.5s-13.667 -9.5 -23 -9.5c-8.66699 0 -16.167 3.16699 -22.5 9.5s-9.5 13.833 -9.5 22.5c0 9.33301 3.16699 17 9.5 23s13.833 9 22.5 9c9.33301 0 17 -3 23 -9s9 -13.667 9 -23zM54 650
c0 -8.66699 -3.16699 -16.167 -9.5 -22.5s-14.166 -9.5 -23.499 -9.5c-8 0 -15.167 3.16699 -21.5 9.5s-9.5 13.833 -9.5 22.5c0 9.33301 3.16699 17 9.5 23s13.5 9 21.5 9c9.33301 0 17.166 -3 23.499 -9s9.5 -13.667 9.5 -23z" />
    <glyph glyph-name="eth" unicode="&#xf0;" horiz-adv-x="479" 
d="M405 404c-1.33301 36 -3.99902 70.165 -7.99902 102.498s-12.667 58.833 -26 79.5l-39 -27.5l-39 -27.5l-17 25l77 55c-15.333 22 -35.166 39.167 -59.499 51.5s-55.833 20.5 -94.5 24.5c1.33301 6.66699 2.5 13.334 3.5 20.001s2.16699 13 3.5 19
c42.667 -3.33301 79.334 -12.833 110.001 -28.5s55 -36.167 73 -61.5l77 55l18 -26l-77 -54c19.333 -34.667 31 -73.667 35 -117s6 -92.333 6 -147v-169c0 -56 -16.833 -100.667 -50.5 -134s-81.834 -50 -144.501 -50c-28.667 0 -54.834 4.16699 -78.501 12.5
s-43.834 20.333 -60.501 36s-29.667 34.334 -39 56.001s-14 45.834 -14 72.501v123c0 26.667 4.83301 51.167 14.5 73.5s23 41.5 40 57.5s37.333 28.5 61 37.5s49.5 13.5 77.5 13.5c31.333 0 60.5 -5.83301 87.5 -17.5s48.167 -29.834 63.5 -54.501zM404.001 286.998
c0 26.667 -4.16602 49.333 -12.499 68s-19.333 33.834 -33 45.501s-29.334 20.167 -47.001 25.5s-35.834 8 -54.501 8c-19.333 0 -38 -2.66699 -56 -8s-34 -14 -48 -26s-25.333 -27.5 -34 -46.5s-13 -41.833 -13 -68.5v-103c0 -26.667 4 -49.334 12 -68.001s19 -34 33 -46
s30 -20.667 48 -26s37 -8 57 -8s39 2.83301 57 8.5s33.833 14.5 47.5 26.5s24.334 27.333 32.001 46s11.5 41 11.5 67v105z" />
    <glyph glyph-name="ntilde" unicode="&#xf1;" horiz-adv-x="480" 
d="M281 497c48.667 0 86.334 -13.833 113.001 -41.5s40 -69.834 40 -126.501v-329h-45v318c0 48.667 -10.167 83.5 -30.5 104.5s-49.166 31.167 -86.499 30.5c-24 0 -51.667 -7.16699 -83 -21.5s-63.333 -32.5 -96 -54.5v-377h-45v491h37l8 -68
c23.333 14 44.166 25.833 62.499 35.5s34.833 17.334 49.5 23.001s28.167 9.66699 40.5 12s24.166 3.5 35.499 3.5zM168 684c10.667 0 21.666 -2.16992 32.999 -6.50293s22.5 -9.16602 33.5 -14.499s21.667 -10.166 32 -14.499s19.5 -6.5 27.5 -6.5
c10.667 0 20.167 3.16699 28.5 9.5s17.5 16.833 27.5 31.5l30 -17c-12.667 -23.333 -26 -40 -40 -50s-29 -15 -45 -15c-10 0 -20.333 2 -31 6s-21.5 8.5 -32.5 13.5s-21.833 9.66699 -32.5 14s-20.667 6.5 -30 6.5c-12.667 0 -23.667 -3.16699 -33 -9.5
s-19.333 -16.166 -30 -29.499l-30 18c12.667 20.667 26.834 36.5 42.501 47.5s32.167 16.5 49.5 16.5z" />
    <glyph glyph-name="ograve" unicode="&#xf2;" horiz-adv-x="479" 
d="M433 173c0 -56 -17.666 -99.834 -52.999 -131.501s-82.333 -47.5 -141 -47.5c-28.667 0 -54.834 4.16699 -78.501 12.5s-44 20.333 -61 36s-30.167 34.334 -39.5 56.001s-14 46.167 -14 73.5v150c0 26.667 5.16699 50.834 15.5 72.501s24.333 40 42 55
s38.167 26.667 61.5 35s48.333 12.5 75 12.5c27.333 0 52.833 -4.16699 76.5 -12.5s44.167 -20 61.5 -35s30.833 -33.333 40.5 -55s14.5 -45.834 14.5 -72.501v-149zM389.001 307.999c0 26.667 -4.50098 49.335 -13.501 68.002s-20.5 33.834 -34.5 45.501
s-29.833 20.167 -47.5 25.5s-35.167 8 -52.5 8c-18 0 -36 -2.66699 -54 -8s-34 -13.833 -48 -25.5s-25.5 -26.834 -34.5 -45.501s-13.5 -41.334 -13.5 -68.001v-125c0 -27.333 4.16699 -50.333 12.5 -69s19.333 -33.834 33 -45.501s29.5 -20.167 47.5 -25.5s37 -8 57 -8
s38.833 2.83301 56.5 8.5s33.334 14.5 47.001 26.5s24.5 27.333 32.5 46s12 41 12 67v125zM250 563l-99 147l48 19l79 -154z" />
    <glyph glyph-name="oacute" unicode="&#xf3;" horiz-adv-x="479" 
d="M433 173c0 -56 -17.666 -99.834 -52.999 -131.501s-82.333 -47.5 -141 -47.5c-28.667 0 -54.834 4.16699 -78.501 12.5s-44 20.333 -61 36s-30.167 34.334 -39.5 56.001s-14 46.167 -14 73.5v150c0 26.667 5.16699 50.834 15.5 72.501s24.333 40 42 55
s38.167 26.667 61.5 35s48.333 12.5 75 12.5c27.333 0 52.833 -4.16699 76.5 -12.5s44.167 -20 61.5 -35s30.833 -33.333 40.5 -55s14.5 -45.834 14.5 -72.501v-149zM389.001 307.999c0 26.667 -4.50098 49.335 -13.501 68.002s-20.5 33.834 -34.5 45.501
s-29.833 20.167 -47.5 25.5s-35.167 8 -52.5 8c-18 0 -36 -2.66699 -54 -8s-34 -13.833 -48 -25.5s-25.5 -26.834 -34.5 -45.501s-13.5 -41.334 -13.5 -68.001v-125c0 -27.333 4.16699 -50.333 12.5 -69s19.333 -33.834 33 -45.501s29.5 -20.167 47.5 -25.5s37 -8 57 -8
s38.833 2.83301 56.5 8.5s33.334 14.5 47.001 26.5s24.5 27.333 32.5 46s12 41 12 67v125zM209 575l78 154l49 -19l-100 -147z" />
    <glyph glyph-name="ocircumflex" unicode="&#xf4;" horiz-adv-x="479" 
d="M433 173c0 -56 -17.666 -99.834 -52.999 -131.501s-82.333 -47.5 -141 -47.5c-28.667 0 -54.834 4.16699 -78.501 12.5s-44 20.333 -61 36s-30.167 34.334 -39.5 56.001s-14 46.167 -14 73.5v150c0 26.667 5.16699 50.834 15.5 72.501s24.333 40 42 55
s38.167 26.667 61.5 35s48.333 12.5 75 12.5c27.333 0 52.833 -4.16699 76.5 -12.5s44.167 -20 61.5 -35s30.833 -33.333 40.5 -55s14.5 -45.834 14.5 -72.501v-149zM389.001 307.999c0 26.667 -4.50098 49.335 -13.501 68.002s-20.5 33.834 -34.5 45.501
s-29.833 20.167 -47.5 25.5s-35.167 8 -52.5 8c-18 0 -36 -2.66699 -54 -8s-34 -13.833 -48 -25.5s-25.5 -26.834 -34.5 -45.501s-13.5 -41.334 -13.5 -68.001v-125c0 -27.333 4.16699 -50.333 12.5 -69s19.333 -33.834 33 -45.501s29.5 -20.167 47.5 -25.5s37 -8 57 -8
s38.833 2.83301 56.5 8.5s33.334 14.5 47.001 26.5s24.5 27.333 32.5 46s12 41 12 67v125zM243 654l-127 -98l-21 21l132 124h37l126 -123l-21 -21z" />
    <glyph glyph-name="otilde" unicode="&#xf5;" horiz-adv-x="479" 
d="M433 173c0 -56 -17.666 -99.834 -52.999 -131.501s-82.333 -47.5 -141 -47.5c-28.667 0 -54.834 4.16699 -78.501 12.5s-44 20.333 -61 36s-30.167 34.334 -39.5 56.001s-14 46.167 -14 73.5v150c0 26.667 5.16699 50.834 15.5 72.501s24.333 40 42 55
s38.167 26.667 61.5 35s48.333 12.5 75 12.5c27.333 0 52.833 -4.16699 76.5 -12.5s44.167 -20 61.5 -35s30.833 -33.333 40.5 -55s14.5 -45.834 14.5 -72.501v-149zM389.001 307.999c0 26.667 -4.50098 49.335 -13.501 68.002s-20.5 33.834 -34.5 45.501
s-29.833 20.167 -47.5 25.5s-35.167 8 -52.5 8c-18 0 -36 -2.66699 -54 -8s-34 -13.833 -48 -25.5s-25.5 -26.834 -34.5 -45.501s-13.5 -41.334 -13.5 -68.001v-125c0 -27.333 4.16699 -50.333 12.5 -69s19.333 -33.834 33 -45.501s29.5 -20.167 47.5 -25.5s37 -8 57 -8
s38.833 2.83301 56.5 8.5s33.334 14.5 47.001 26.5s24.5 27.333 32.5 46s12 41 12 67v125zM185 684c10.667 0 21.666 -2.16992 32.999 -6.50293s22.5 -9.16602 33.5 -14.499s21.667 -10.166 32 -14.499s19.5 -6.5 27.5 -6.5c10.667 0 20.167 3.16699 28.5 9.5
s17.5 16.833 27.5 31.5l30 -17c-12.667 -23.333 -26 -40 -40 -50s-29 -15 -45 -15c-10 0 -20.333 2 -31 6s-21.5 8.5 -32.5 13.5s-21.833 9.66699 -32.5 14s-20.667 6.5 -30 6.5c-12.667 0 -23.667 -3.16699 -33 -9.5s-19.333 -16.166 -30 -29.499l-30 18
c12.667 20.667 26.834 36.5 42.501 47.5s32.167 16.5 49.5 16.5z" />
    <glyph glyph-name="odieresis" unicode="&#xf6;" horiz-adv-x="479" 
d="M433 173c0 -56 -17.666 -99.834 -52.999 -131.501s-82.333 -47.5 -141 -47.5c-28.667 0 -54.834 4.16699 -78.501 12.5s-44 20.333 -61 36s-30.167 34.334 -39.5 56.001s-14 46.167 -14 73.5v150c0 26.667 5.16699 50.834 15.5 72.501s24.333 40 42 55
s38.167 26.667 61.5 35s48.333 12.5 75 12.5c27.333 0 52.833 -4.16699 76.5 -12.5s44.167 -20 61.5 -35s30.833 -33.333 40.5 -55s14.5 -45.834 14.5 -72.501v-149zM389.001 307.999c0 26.667 -4.50098 49.335 -13.501 68.002s-20.5 33.834 -34.5 45.501
s-29.833 20.167 -47.5 25.5s-35.167 8 -52.5 8c-18 0 -36 -2.66699 -54 -8s-34 -13.833 -48 -25.5s-25.5 -26.834 -34.5 -45.501s-13.5 -41.334 -13.5 -68.001v-125c0 -27.333 4.16699 -50.333 12.5 -69s19.333 -33.834 33 -45.501s29.5 -20.167 47.5 -25.5s37 -8 57 -8
s38.833 2.83301 56.5 8.5s33.334 14.5 47.001 26.5s24.5 27.333 32.5 46s12 41 12 67v125zM357 650c0 -8.66699 -3 -16.167 -9 -22.5s-13.667 -9.5 -23 -9.5c-8.66699 0 -16.167 3.16699 -22.5 9.5s-9.5 13.833 -9.5 22.5c0 9.33301 3.16699 17 9.5 23s13.833 9 22.5 9
c9.33301 0 17 -3 23 -9s9 -13.667 9 -23zM189 650c0 -8.66699 -3.16699 -16.167 -9.5 -22.5s-14.166 -9.5 -23.499 -9.5c-8 0 -15.167 3.16699 -21.5 9.5s-9.5 13.833 -9.5 22.5c0 9.33301 3.16699 17 9.5 23s13.5 9 21.5 9c9.33301 0 17.166 -3 23.499 -9
s9.5 -13.667 9.5 -23z" />
    <glyph glyph-name="divide" unicode="&#xf7;" horiz-adv-x="473" 
d="M277 448c0 -10.667 -3.66895 -19.834 -11.002 -27.501s-16.333 -11.5 -27 -11.5c-11.333 0 -20.666 3.83301 -27.999 11.5s-11 16.834 -11 27.501c0 11.333 3.83301 20.333 11.5 27s16.834 10 27.501 10c10 0 18.833 -3.33301 26.5 -10s11.5 -15.667 11.5 -27z
M27.998 261v37h416v-37h-416zM239.998 147c9.33301 0 17.832 -3.33301 25.499 -10s11.5 -15.667 11.5 -27c0 -10.667 -3.66699 -19.667 -11 -27s-16.333 -11 -27 -11c-11.333 0 -20.666 3.66699 -27.999 11s-11 16.333 -11 27c0 11.333 4 20.333 12 27s17.333 10 28 10z" />
    <glyph glyph-name="oslash" unicode="&#xf8;" horiz-adv-x="479" 
d="M433 173c0 -56 -17.666 -99.834 -52.999 -131.501s-82.333 -47.5 -141 -47.5c-28 0 -53.333 3.83301 -76 11.5s-42.334 18.5 -59.001 32.5l-34 -45l-24 18l37 49c-24.667 30 -37 67.333 -37 112v150c0 26.667 5.16699 50.834 15.5 72.501s24.333 40 42 55
s38.167 26.667 61.5 35s48.333 12.5 75 12.5c27.333 0 52.333 -4 75 -12s42.667 -19.333 60 -34l34 45l24 -17l-37 -49c11.333 -14.667 20.333 -31 27 -49s10 -37.667 10 -59v-149zM389.001 307.999c0 33.333 -7.33301 61 -22 83l-237 -317c14 -14 30.667 -24 50 -30
s39.666 -9 60.999 -9c20 0 38.833 2.83301 56.5 8.5s33.334 14.5 47.001 26.5s24.5 27.333 32.5 46s12 41 12 67v125zM91.001 182.999c0 -34 6.66797 -62.3311 20.001 -84.998l237 317c-14.667 14 -31.334 24.167 -50.001 30.5s-37.667 9.5 -57 9.5
c-18 0 -36 -2.66699 -54 -8s-34 -13.833 -48 -25.5s-25.5 -26.834 -34.5 -45.501s-13.5 -41.334 -13.5 -68.001v-125z" />
    <glyph glyph-name="ugrave" unicode="&#xf9;" horiz-adv-x="482" 
d="M395 0l-8 68c-22.667 -14 -42.834 -25.667 -60.501 -35s-33.667 -17 -48 -23s-27.5 -10.167 -39.5 -12.5s-23.667 -3.5 -35 -3.5c-50.667 0 -89.667 13.833 -117 41.5s-41 69.834 -41 126.501v329h45v-318c0 -48.667 10.333 -83.5 31 -104.5s49.334 -31.5 86.001 -31.5
c24 0 51.667 7.16699 83 21.5s63.333 33.166 96 56.499v376h46v-491h-38zM249 563l-99 147l48 19l79 -154z" />
    <glyph glyph-name="uacute" unicode="&#xfa;" horiz-adv-x="482" 
d="M395 0l-8 68c-22.667 -14 -42.834 -25.667 -60.501 -35s-33.667 -17 -48 -23s-27.5 -10.167 -39.5 -12.5s-23.667 -3.5 -35 -3.5c-50.667 0 -89.667 13.833 -117 41.5s-41 69.834 -41 126.501v329h45v-318c0 -48.667 10.333 -83.5 31 -104.5s49.334 -31.5 86.001 -31.5
c24 0 51.667 7.16699 83 21.5s63.333 33.166 96 56.499v376h46v-491h-38zM218 575l78 154l49 -19l-100 -147z" />
    <glyph glyph-name="ucircumflex" unicode="&#xfb;" horiz-adv-x="482" 
d="M395 0l-8 68c-22.667 -14 -42.834 -25.667 -60.501 -35s-33.667 -17 -48 -23s-27.5 -10.167 -39.5 -12.5s-23.667 -3.5 -35 -3.5c-50.667 0 -89.667 13.833 -117 41.5s-41 69.834 -41 126.501v329h45v-318c0 -48.667 10.333 -83.5 31 -104.5s49.334 -31.5 86.001 -31.5
c24 0 51.667 7.16699 83 21.5s63.333 33.166 96 56.499v376h46v-491h-38zM242 654l-127 -98l-21 21l132 124h37l126 -123l-21 -21z" />
    <glyph glyph-name="udieresis" unicode="&#xfc;" horiz-adv-x="482" 
d="M395 0l-8 68c-22.667 -14 -42.834 -25.667 -60.501 -35s-33.667 -17 -48 -23s-27.5 -10.167 -39.5 -12.5s-23.667 -3.5 -35 -3.5c-50.667 0 -89.667 13.833 -117 41.5s-41 69.834 -41 126.501v329h45v-318c0 -48.667 10.333 -83.5 31 -104.5s49.334 -31.5 86.001 -31.5
c24 0 51.667 7.16699 83 21.5s63.333 33.166 96 56.499v376h46v-491h-38zM356 650c0 -8.66699 -3 -16.167 -9 -22.5s-13.667 -9.5 -23 -9.5c-8.66699 0 -16.167 3.16699 -22.5 9.5s-9.5 13.833 -9.5 22.5c0 9.33301 3.16699 17 9.5 23s13.833 9 22.5 9
c9.33301 0 17 -3 23 -9s9 -13.667 9 -23zM188 650c0 -8.66699 -3.16699 -16.167 -9.5 -22.5s-14.166 -9.5 -23.499 -9.5c-8 0 -15.167 3.16699 -21.5 9.5s-9.5 13.833 -9.5 22.5c0 9.33301 3.16699 17 9.5 23s13.5 9 21.5 9c9.33301 0 17.166 -3 23.499 -9
s9.5 -13.667 9.5 -23z" />
    <glyph glyph-name="yacute" unicode="&#xfd;" horiz-adv-x="428" 
d="M116 -198l72 200l-28 29l-153 459h47c13.333 -38 26 -76 38 -114l38 -115l75 -222h1l81 222l42 115l41 114h47l-126.5 -344.5l-126.5 -343.5h-48zM179 575l78 154l49 -19l-100 -147z" />
    <glyph glyph-name="thorn" unicode="&#xfe;" horiz-adv-x="478" 
d="M93 689v-264.001c46.667 30 84.667 49.5 114 58.5s53.333 13.5 72 13.5c48 0 85.833 -13.667 113.5 -41s41.5 -69.333 41.5 -126v-166c0 -55.333 -15.167 -97.666 -45.5 -126.999s-72.5 -44 -126.5 -44c-20 0 -43.167 2.66699 -69.5 8s-59.5 18 -99.5 38v-242h-44v892h44
zM93 84.999c36.667 -18.667 67.999 -31.668 93.999 -39.001s49.667 -11 71 -11c44 0 77 11.167 99 33.5s33 57.5 33 105.5v145c0 48.667 -10 83.334 -30 104.001s-47.667 31 -83 31c-22.667 0 -50.667 -7 -84 -21s-66.666 -32.333 -99.999 -55v-293z" />
    <glyph glyph-name="ydieresis" unicode="&#xff;" horiz-adv-x="428" 
d="M116 -198l72 200l-28 29l-153 459h47c13.333 -38 26 -76 38 -114l38 -115l75 -222h1l81 222l42 115l41 114h47l-126.5 -344.5l-126.5 -343.5h-48zM328 650c0 -8.66699 -3 -16.167 -9 -22.5s-13.667 -9.5 -23 -9.5c-8.66699 0 -16.167 3.16699 -22.5 9.5
s-9.5 13.833 -9.5 22.5c0 9.33301 3.16699 17 9.5 23s13.833 9 22.5 9c9.33301 0 17 -3 23 -9s9 -13.667 9 -23zM160 650c0 -8.66699 -3.16699 -16.167 -9.5 -22.5s-14.166 -9.5 -23.499 -9.5c-8 0 -15.167 3.16699 -21.5 9.5s-9.5 13.833 -9.5 22.5
c0 9.33301 3.16699 17 9.5 23s13.5 9 21.5 9c9.33301 0 17.166 -3 23.499 -9s9.5 -13.667 9.5 -23z" />
    <glyph glyph-name="Amacron" unicode="&#x100;" horiz-adv-x="568" 
d="M501 0l-29 83l-30 83h-315l-28 -83l-28 -83h-51l238 689h54l240 -689h-51zM284 630l-14.5 -44.5l-25 -75l-30.5 -90.5l-30.5 -90.5l-25.5 -75l-15 -44.5h284l-14.5 44.5l-25 75l-31 90.5l-31 91l-25.5 75l-15 44h-1zM158 769v41h255v-41h-255z" />
    <glyph glyph-name="amacron" unicode="&#x101;" horiz-adv-x="466" 
d="M375 61h-1c-24 -15.333 -45.5 -27.333 -64.5 -36s-36 -15.334 -51 -20.001s-28.5 -7.66699 -40.5 -9s-22.667 -2 -32 -2c-46 0 -83.167 11.667 -111.5 35s-42.5 58 -42.5 104c0 26 5.33301 48 16 66s24 32.5 40 43.5s33.667 19 53 24s38 7.5 56 7.5h178v49
c0 88 -46.333 132 -139 132c-23.333 0 -47.333 -3.33301 -72 -10s-49.667 -18.667 -75 -36l-24 36c28 18.667 56 31.834 84 39.501s58 11.5 90 11.5c34 0 62.5 -3.83301 85.5 -11.5s41.5 -18.834 55.5 -33.501s24 -32.167 30 -52.5s9 -43.166 9 -68.499v-330h-36zM214 235
c-13.333 0 -27.832 -1 -43.499 -3s-30.334 -6.5 -44.001 -13.5s-25 -17.333 -34 -31s-13.5 -31.834 -13.5 -54.501c0 -17.333 3 -32.166 9 -44.499s14.167 -22.5 24.5 -30.5s22.333 -14 36 -18s28.167 -6 43.5 -6c14.667 0 29.834 2.16699 45.501 6.5
s31.5 9.83301 47.5 16.5s31.667 14.167 47 22.5s29.666 16.5 42.999 24.5v131h-161zM116.001 593v41h255v-41h-255z" />
    <glyph glyph-name="Abreve" unicode="&#x102;" horiz-adv-x="568" 
d="M501 0l-29 83l-30 83h-315l-28 -83l-28 -83h-51l238 689h54l240 -689h-51zM284 630l-14.5 -44.5l-25 -75l-30.5 -90.5l-30.5 -90.5l-25.5 -75l-15 -44.5h284l-14.5 44.5l-25 75l-31 90.5l-31 91l-25.5 75l-15 44h-1zM198 840
c3.33301 -19.333 13.1631 -36.333 29.4961 -51s36.166 -22 59.499 -22c24.667 0 44.834 7.33301 60.501 22s24.834 31.667 27.501 51h39c-2 -12.667 -5.66699 -25.5 -11 -38.5s-13 -24.833 -23 -35.5s-22.667 -19.334 -38 -26.001s-33.666 -10 -54.999 -10
s-39.666 3.33301 -54.999 10s-28.333 15.334 -39 26.001s-18.667 22.5 -24 35.5s-8.66602 25.833 -9.99902 38.5h39z" />
    <glyph glyph-name="abreve" unicode="&#x103;" horiz-adv-x="466" 
d="M375 61h-1c-24 -15.333 -45.5 -27.333 -64.5 -36s-36 -15.334 -51 -20.001s-28.5 -7.66699 -40.5 -9s-22.667 -2 -32 -2c-46 0 -83.167 11.667 -111.5 35s-42.5 58 -42.5 104c0 26 5.33301 48 16 66s24 32.5 40 43.5s33.667 19 53 24s38 7.5 56 7.5h178v49
c0 88 -46.333 132 -139 132c-23.333 0 -47.333 -3.33301 -72 -10s-49.667 -18.667 -75 -36l-24 36c28 18.667 56 31.834 84 39.501s58 11.5 90 11.5c34 0 62.5 -3.83301 85.5 -11.5s41.5 -18.834 55.5 -33.501s24 -32.167 30 -52.5s9 -43.166 9 -68.499v-330h-36zM214 235
c-13.333 0 -27.832 -1 -43.499 -3s-30.334 -6.5 -44.001 -13.5s-25 -17.333 -34 -31s-13.5 -31.834 -13.5 -54.501c0 -17.333 3 -32.166 9 -44.499s14.167 -22.5 24.5 -30.5s22.333 -14 36 -18s28.167 -6 43.5 -6c14.667 0 29.834 2.16699 45.501 6.5
s31.5 9.83301 47.5 16.5s31.667 14.167 47 22.5s29.666 16.5 42.999 24.5v131h-161zM159.001 674c4 -22 14.498 -39.667 31.498 -53s36.167 -20 57.5 -20c22 0 40.833 5.83301 56.5 17.5s26.167 30.167 31.5 55.5h39c-2 -12.667 -5.83301 -25.5 -11.5 -38.5
s-13.5 -24.833 -23.5 -35.5s-22.667 -19.334 -38 -26.001s-33.333 -10 -54 -10c-21.333 0 -39.666 3.33301 -54.999 10s-28.333 15.334 -39 26.001s-18.667 22.5 -24 35.5s-8.66602 25.833 -9.99902 38.5h39z" />
    <glyph glyph-name="Aogonek" unicode="&#x104;" horiz-adv-x="568" 
d="M460 -93c0 13.333 3.00098 28.167 9.00098 44.5s16.667 32.5 32 48.5l-29 83l-30 83h-315l-28 -83l-28 -83h-51l238 689h54l240 -689h-19c-12 -14.667 -20.667 -29.834 -26 -45.501s-8 -29.167 -8 -40.5c0 -18 5 -31.167 15 -39.5s23 -12.5 39 -12.5
c17.333 0 36.666 5.33301 57.999 16l13 -30c-10 -5.33301 -21.833 -10.166 -35.5 -14.499s-28.167 -6.5 -43.5 -6.5c-26.667 0 -47.5 8 -62.5 24s-22.5 34.667 -22.5 56zM284.001 630.001l-14.5 -44.5l-25 -75l-30.5 -90.5l-30.5 -90.5l-25.5 -75l-15 -44.5h284l-14.5 44.5
l-25 75l-31 90.5l-31 91l-25.5 75l-15 44h-1z" />
    <glyph glyph-name="aogonek" unicode="&#x105;" horiz-adv-x="466" 
d="M341 -93c0 13.333 3.16895 28.167 9.50195 44.5s17.166 32.833 32.499 49.5l-8 60h-1c-24 -15.333 -45.5 -27.333 -64.5 -36s-36 -15.334 -51 -20.001s-28.5 -7.66699 -40.5 -9s-22.667 -2 -32 -2c-46 0 -83.167 11.667 -111.5 35s-42.5 58 -42.5 104
c0 26 5.33301 48 16 66s24 32.5 40 43.5s33.667 19 53 24s38 7.5 56 7.5h178v49c0 88 -46.333 132 -139 132c-23.333 0 -47.333 -3.33301 -72 -10s-49.667 -18.667 -75 -36l-24 36c28 18.667 56 31.834 84 39.501s58 11.5 90 11.5c34 0 62.5 -3.83301 85.5 -11.5
s41.5 -18.834 55.5 -33.501s24 -32.167 30 -52.5s9 -43.166 9 -68.499v-330h-5c-12 -14.667 -20.667 -29.834 -26 -45.501s-8 -29.167 -8 -40.5c0 -18 5 -31.167 15 -39.5s23 -12.5 39 -12.5c17.333 0 36.666 5.33301 57.999 16l13 -30
c-10 -5.33301 -21.833 -10.166 -35.5 -14.499s-28.167 -6.5 -43.5 -6.5c-26.667 0 -47.5 8 -62.5 24s-22.5 34.667 -22.5 56zM214.002 235.001c-13.333 0 -27.832 -1 -43.499 -3s-30.334 -6.5 -44.001 -13.5s-25 -17.333 -34 -31s-13.5 -31.834 -13.5 -54.501
c0 -17.333 3 -32.166 9 -44.499s14.167 -22.5 24.5 -30.5s22.333 -14 36 -18s28.167 -6 43.5 -6c14.667 0 29.834 2.16699 45.501 6.5s31.5 9.83301 47.5 16.5s31.667 14.167 47 22.5s29.666 16.5 42.999 24.5v131h-161z" />
    <glyph glyph-name="Cacute" unicode="&#x106;" horiz-adv-x="502" 
d="M293 696c34.667 0 66.499 -4 95.499 -12s56.5 -21 82.5 -39l-26 -39c-21.333 15.333 -45 26.833 -71 34.5s-53 11.5 -81 11.5c-24 0 -47.667 -3.66699 -71 -11s-44.166 -18.833 -62.499 -34.5s-33 -35.667 -44 -60s-16.5 -53.5 -16.5 -87.5v-227
c0 -34 5.66699 -63.333 17 -88s26 -45 44 -61s38.333 -27.833 61 -35.5s45.667 -11.5 69 -11.5c58.667 0 111 16.333 157 49l25 -37c-18 -13.333 -42.333 -25.833 -73 -37.5s-66 -17.5 -106 -17.5c-36.667 0 -70 5.66699 -100 17s-55.5 27.333 -76.5 48s-37.167 45 -48.5 73
s-17 59 -17 93v244c0 33.333 5.83301 64 17.5 92s28.167 52 49.5 72s46.833 35.667 76.5 47s62.5 17 98.5 17zM229.999 751l136 108l35 -37l-151 -93z" />
    <glyph glyph-name="cacute" unicode="&#x107;" horiz-adv-x="410" 
d="M239 498c25.333 0 51.5029 -3.5 78.5029 -10.5s50.5 -19.167 70.5 -36.5l-28 -36c-19.333 15.333 -39.5 26 -60.5 32s-39.833 9 -56.5 9c-18.667 0 -36.834 -2.66699 -54.501 -8s-33.5 -13.833 -47.5 -25.5s-25.167 -26.834 -33.5 -45.501s-12.5 -41.334 -12.5 -68.001
v-125c0 -26 4.16699 -48.333 12.5 -67s19.5 -34 33.5 -46s29.833 -20.667 47.5 -26s35.5 -8 53.5 -8c16 0 35.667 2.83301 59 8.5s43 14.834 59 27.501l27 -34c-20.667 -15.333 -44 -26.5 -70 -33.5s-51.667 -10.5 -77 -10.5c-29.333 0 -55.833 4.33301 -79.5 13
s-43.834 21 -60.501 37s-29.334 34.833 -38.001 56.5s-13 45.5 -13 71.5v148c0 26.667 4.66699 50.834 14 72.501s22.5 40.167 39.5 55.5s37 27.333 60 36s48.5 13 76.5 13zM206.003 575l78 154l49 -19l-100 -147z" />
    <glyph glyph-name="Ccircumflex" unicode="&#x108;" horiz-adv-x="502" 
d="M293 696c34.667 0 66.499 -4 95.499 -12s56.5 -21 82.5 -39l-26 -39c-21.333 15.333 -45 26.833 -71 34.5s-53 11.5 -81 11.5c-24 0 -47.667 -3.66699 -71 -11s-44.166 -18.833 -62.499 -34.5s-33 -35.667 -44 -60s-16.5 -53.5 -16.5 -87.5v-227
c0 -34 5.66699 -63.333 17 -88s26 -45 44 -61s38.333 -27.833 61 -35.5s45.667 -11.5 69 -11.5c58.667 0 111 16.333 157 49l25 -37c-18 -13.333 -42.333 -25.833 -73 -37.5s-66 -17.5 -106 -17.5c-36.667 0 -70 5.66699 -100 17s-55.5 27.333 -76.5 48s-37.167 45 -48.5 73
s-17 59 -17 93v244c0 33.333 5.83301 64 17.5 92s28.167 52 49.5 72s46.833 35.667 76.5 47s62.5 17 98.5 17zM291.999 814l-130 -84l-18 21l131 109h37l127 -108l-18 -21z" />
    <glyph glyph-name="ccircumflex" unicode="&#x109;" horiz-adv-x="410" 
d="M239 498c25.333 0 51.5029 -3.5 78.5029 -10.5s50.5 -19.167 70.5 -36.5l-28 -36c-19.333 15.333 -39.5 26 -60.5 32s-39.833 9 -56.5 9c-18.667 0 -36.834 -2.66699 -54.501 -8s-33.5 -13.833 -47.5 -25.5s-25.167 -26.834 -33.5 -45.501s-12.5 -41.334 -12.5 -68.001
v-125c0 -26 4.16699 -48.333 12.5 -67s19.5 -34 33.5 -46s29.833 -20.667 47.5 -26s35.5 -8 53.5 -8c16 0 35.667 2.83301 59 8.5s43 14.834 59 27.501l27 -34c-20.667 -15.333 -44 -26.5 -70 -33.5s-51.667 -10.5 -77 -10.5c-29.333 0 -55.833 4.33301 -79.5 13
s-43.834 21 -60.501 37s-29.334 34.833 -38.001 56.5s-13 45.5 -13 71.5v148c0 26.667 4.66699 50.834 14 72.501s22.5 40.167 39.5 55.5s37 27.333 60 36s48.5 13 76.5 13zM234.003 654l-127 -98l-21 21l132 124h37l126 -123l-21 -21z" />
    <glyph glyph-name="Cdotaccent" unicode="&#x10a;" horiz-adv-x="502" 
d="M293 696c34.667 0 66.499 -4 95.499 -12s56.5 -21 82.5 -39l-26 -39c-21.333 15.333 -45 26.833 -71 34.5s-53 11.5 -81 11.5c-24 0 -47.667 -3.66699 -71 -11s-44.166 -18.833 -62.499 -34.5s-33 -35.667 -44 -60s-16.5 -53.5 -16.5 -87.5v-227
c0 -34 5.66699 -63.333 17 -88s26 -45 44 -61s38.333 -27.833 61 -35.5s45.667 -11.5 69 -11.5c58.667 0 111 16.333 157 49l25 -37c-18 -13.333 -42.333 -25.833 -73 -37.5s-66 -17.5 -106 -17.5c-36.667 0 -70 5.66699 -100 17s-55.5 27.333 -76.5 48s-37.167 45 -48.5 73
s-17 59 -17 93v244c0 33.333 5.83301 64 17.5 92s28.167 52 49.5 72s46.833 35.667 76.5 47s62.5 17 98.5 17zM246.999 807c0 8.66699 3.16699 16.334 9.5 23.001s14.166 10 23.499 10c10.667 0 19.167 -3.33301 25.5 -10s9.5 -14.334 9.5 -23.001
c0 -9.33301 -3.16699 -17.5 -9.5 -24.5s-14.833 -10.5 -25.5 -10.5c-9.33301 0 -17.166 3.33301 -23.499 10s-9.5 15 -9.5 25z" />
    <glyph glyph-name="cdotaccent" unicode="&#x10b;" horiz-adv-x="410" 
d="M239 498c25.333 0 51.5029 -3.5 78.5029 -10.5s50.5 -19.167 70.5 -36.5l-28 -36c-19.333 15.333 -39.5 26 -60.5 32s-39.833 9 -56.5 9c-18.667 0 -36.834 -2.66699 -54.501 -8s-33.5 -13.833 -47.5 -25.5s-25.167 -26.834 -33.5 -45.501s-12.5 -41.334 -12.5 -68.001
v-125c0 -26 4.16699 -48.333 12.5 -67s19.5 -34 33.5 -46s29.833 -20.667 47.5 -26s35.5 -8 53.5 -8c16 0 35.667 2.83301 59 8.5s43 14.834 59 27.501l27 -34c-20.667 -15.333 -44 -26.5 -70 -33.5s-51.667 -10.5 -77 -10.5c-29.333 0 -55.833 4.33301 -79.5 13
s-43.834 21 -60.501 37s-29.334 34.833 -38.001 56.5s-13 45.5 -13 71.5v148c0 26.667 4.66699 50.834 14 72.501s22.5 40.167 39.5 55.5s37 27.333 60 36s48.5 13 76.5 13zM193.003 637c0 8.66699 3.16699 16.334 9.5 23.001s14.166 10 23.499 10
c10.667 0 19.167 -3.33301 25.5 -10s9.5 -14.334 9.5 -23.001c0 -9.33301 -3.16699 -17.5 -9.5 -24.5s-14.833 -10.5 -25.5 -10.5c-9.33301 0 -17.166 3.33301 -23.499 10s-9.5 15 -9.5 25z" />
    <glyph glyph-name="Ccaron" unicode="&#x10c;" horiz-adv-x="502" 
d="M293 696c34.667 0 66.499 -4 95.499 -12s56.5 -21 82.5 -39l-26 -39c-21.333 15.333 -45 26.833 -71 34.5s-53 11.5 -81 11.5c-24 0 -47.667 -3.66699 -71 -11s-44.166 -18.833 -62.499 -34.5s-33 -35.667 -44 -60s-16.5 -53.5 -16.5 -87.5v-227
c0 -34 5.66699 -63.333 17 -88s26 -45 44 -61s38.333 -27.833 61 -35.5s45.667 -11.5 69 -11.5c58.667 0 111 16.333 157 49l25 -37c-18 -13.333 -42.333 -25.833 -73 -37.5s-66 -17.5 -106 -17.5c-36.667 0 -70 5.66699 -100 17s-55.5 27.333 -76.5 48s-37.167 45 -48.5 73
s-17 59 -17 93v244c0 33.333 5.83301 64 17.5 92s28.167 52 49.5 72s46.833 35.667 76.5 47s62.5 17 98.5 17zM411.999 861l18 -21l-126 -109h-37l-131 110l17 21l130 -84z" />
    <glyph glyph-name="ccaron" unicode="&#x10d;" horiz-adv-x="410" 
d="M239 498c25.333 0 51.5029 -3.5 78.5029 -10.5s50.5 -19.167 70.5 -36.5l-28 -36c-19.333 15.333 -39.5 26 -60.5 32s-39.833 9 -56.5 9c-18.667 0 -36.834 -2.66699 -54.501 -8s-33.5 -13.833 -47.5 -25.5s-25.167 -26.834 -33.5 -45.501s-12.5 -41.334 -12.5 -68.001
v-125c0 -26 4.16699 -48.333 12.5 -67s19.5 -34 33.5 -46s29.833 -20.667 47.5 -26s35.5 -8 53.5 -8c16 0 35.667 2.83301 59 8.5s43 14.834 59 27.501l27 -34c-20.667 -15.333 -44 -26.5 -70 -33.5s-51.667 -10.5 -77 -10.5c-29.333 0 -55.833 4.33301 -79.5 13
s-43.834 21 -60.501 37s-29.334 34.833 -38.001 56.5s-13 45.5 -13 71.5v148c0 26.667 4.66699 50.834 14 72.501s22.5 40.167 39.5 55.5s37 27.333 60 36s48.5 13 76.5 13zM360.003 701l21 -20l-126 -124h-37l-132 124l21 21l127 -97z" />
    <glyph glyph-name="Dcaron" unicode="&#x10e;" horiz-adv-x="581" 
d="M533 223c0 -33.333 -5.33105 -63.668 -15.998 -91.001s-25.834 -50.666 -45.501 -69.999s-43.334 -34.5 -71.001 -45.5s-58.5 -16.5 -92.5 -16.5h-252v689h255c34 0 64.833 -5.5 92.5 -16.5s51 -26.5 70 -46.5s33.667 -43.833 44 -71.5s15.5 -58.167 15.5 -91.5v-240z
M484.002 454.998c0 34.667 -5.33203 64 -15.999 88s-24.334 43.5 -41.001 58.5s-35.667 26 -57 33s-42.333 10.5 -63 10.5h-203v-603h191c22.667 0 45.167 3.33301 67.5 10s42.5 17.5 60.5 32.5s32.667 34.5 44 58.5s17 53.667 17 89v223zM399.003 860.998l18 -21l-126 -109
h-37l-131 110l17 21l130 -84z" />
    <glyph glyph-name="dcaron" unicode="&#x10f;" horiz-adv-x="577" 
d="M491 686c0 11.333 3.83203 20.333 11.499 27s17.167 10 28.5 10c14 0 25 -5 33 -15s12 -23 12 -39c0 -22.667 -6.66699 -44.667 -20 -66s-29.666 -37 -48.999 -47l-15 20c24.667 20 37.667 44.333 39 73c-11.333 -0.666992 -20.833 2.5 -28.5 9.5
s-11.5 16.167 -11.5 27.5zM394.999 1l-8 64c-24 -15.333 -45.333 -27.5 -64 -36.5s-35.5 -16.167 -50.5 -21.5s-28.333 -8.83301 -40 -10.5s-22.167 -2.5 -31.5 -2.5c-48 0 -85.833 13.5 -113.5 40.5s-41.5 69.167 -41.5 126.5v165c0 55.333 15.5 97.666 46.5 126.999
s72.833 44 125.5 44c20 0 43.167 -2.66699 69.5 -8s59.5 -17.666 99.5 -36.999v263h44v-714h-36zM386.999 405c-35.333 17.333 -66.332 30.001 -92.999 38.001s-50.667 12 -72 12c-88 0 -132 -46.667 -132 -140v-144c0 -48.667 9.83301 -83.334 29.5 -104.001
s47.5 -31 83.5 -31c22.667 0 50.667 6.83301 84 20.5s66.666 32.167 99.999 55.5v293z" />
    <glyph glyph-name="Dcroat" unicode="&#x110;" horiz-adv-x="581" 
d="M6 380l50.002 -0.00195312v309h255c34 0 64.833 -5.5 92.5 -16.5s51 -26.5 70 -46.5s33.667 -43.833 44 -71.5s15.5 -58.167 15.5 -91.5v-240c0 -33.333 -5.33301 -63.666 -16 -90.999s-25.834 -50.666 -45.501 -69.999s-43.334 -34.5 -71.001 -45.5
s-58.5 -16.5 -92.5 -16.5h-252v342h-50v38zM484.002 454.998c0 34.667 -5.33203 64 -15.999 88s-24.334 43.5 -41.001 58.5s-35.667 26 -57 33s-42.333 10.5 -63 10.5h-203v-265h167v-38h-167v-300h191c22.667 0 45.167 3.33301 67.5 10s42.5 17.5 60.5 32.5
s32.667 34.5 44 58.5s17 53.667 17 89v223z" />
    <glyph glyph-name="dcroat" unicode="&#x111;" horiz-adv-x="480" 
d="M203 616h184v99h44v-99h48v-37h-48v-578h-36l-8 64c-24 -15.333 -45.333 -27.5 -64 -36.5s-35.5 -16.167 -50.5 -21.5s-28.333 -8.83301 -40 -10.5s-22.167 -2.5 -31.5 -2.5c-48 0 -85.833 13.5 -113.5 40.5s-41.5 69.167 -41.5 126.5v165
c0 55.333 15.5 97.666 46.5 126.999s72.833 44 125.5 44c20 0 43.167 -2.66699 69.5 -8s59.5 -17.666 99.5 -36.999v127h-184v37zM387 405c-35.333 17.333 -66.332 30.001 -92.999 38.001s-50.667 12 -72 12c-88 0 -132 -46.667 -132 -140v-144
c0 -48.667 9.83301 -83.334 29.5 -104.001s47.5 -31 83.5 -31c22.667 0 50.667 6.83301 84 20.5s66.666 32.167 99.999 55.5v293z" />
    <glyph glyph-name="Emacron" unicode="&#x112;" horiz-adv-x="532" 
d="M57 0v689h443v-44h-395v-274h340v-43h-340v-285h395v-43h-443zM160 769v41h255v-41h-255z" />
    <glyph glyph-name="emacron" unicode="&#x113;" horiz-adv-x="466" 
d="M94 227l-0.00195312 -45.9961c0 -27.333 4.33301 -50.333 13 -69s20 -33.834 34 -45.501s30 -20.167 48 -25.5s36.667 -8 56 -8c27.333 0 52 4.66699 74 14s41.667 22.333 59 39l28 -32c-20.667 -20.667 -44.667 -35.834 -72 -45.501s-57.666 -14.5 -90.999 -14.5
c-28 0 -53.833 3.83301 -77.5 11.5s-44.167 19 -61.5 34s-30.833 33.667 -40.5 56s-14.5 48.166 -14.5 77.499v139c0 28 4.66699 53.333 14 76s22.5 42.167 39.5 58.5s37.333 28.833 61 37.5s49.5 13 77.5 13c27.333 0 52.333 -4.5 75 -13.5s42.334 -21.5 59.001 -37.5
s29.5 -35.333 38.5 -58s13.5 -47.334 13.5 -74.001v-87h-333zM381.998 308.004c0 26.667 -4.16602 49.333 -12.499 68s-19.166 34 -32.499 46s-28.333 20.667 -45 26s-33.667 8 -51 8c-18 0 -35.833 -2.83301 -53.5 -8.5s-33.334 -14.5 -47.001 -26.5
s-24.834 -27.5 -33.501 -46.5s-13 -41.5 -13 -67.5v-41h288v42zM116.999 593.003v41h255v-41h-255z" />
    <glyph glyph-name="Ebreve" unicode="&#x114;" horiz-adv-x="532" 
d="M57 0v689h443v-44h-395v-274h340v-43h-340v-285h395v-43h-443zM198 840c3.33301 -19.333 13.1631 -36.333 29.4961 -51s36.166 -22 59.499 -22c24.667 0 44.834 7.33301 60.501 22s24.834 31.667 27.501 51h39c-2 -12.667 -5.66699 -25.5 -11 -38.5
s-13 -24.833 -23 -35.5s-22.667 -19.334 -38 -26.001s-33.666 -10 -54.999 -10s-39.666 3.33301 -54.999 10s-28.333 15.334 -39 26.001s-18.667 22.5 -24 35.5s-8.66602 25.833 -9.99902 38.5h39z" />
    <glyph glyph-name="ebreve" unicode="&#x115;" horiz-adv-x="466" 
d="M94 227l-0.00195312 -45.9961c0 -27.333 4.33301 -50.333 13 -69s20 -33.834 34 -45.501s30 -20.167 48 -25.5s36.667 -8 56 -8c27.333 0 52 4.66699 74 14s41.667 22.333 59 39l28 -32c-20.667 -20.667 -44.667 -35.834 -72 -45.501s-57.666 -14.5 -90.999 -14.5
c-28 0 -53.833 3.83301 -77.5 11.5s-44.167 19 -61.5 34s-30.833 33.667 -40.5 56s-14.5 48.166 -14.5 77.499v139c0 28 4.66699 53.333 14 76s22.5 42.167 39.5 58.5s37.333 28.833 61 37.5s49.5 13 77.5 13c27.333 0 52.333 -4.5 75 -13.5s42.334 -21.5 59.001 -37.5
s29.5 -35.333 38.5 -58s13.5 -47.334 13.5 -74.001v-87h-333zM381.998 308.004c0 26.667 -4.16602 49.333 -12.499 68s-19.166 34 -32.499 46s-28.333 20.667 -45 26s-33.667 8 -51 8c-18 0 -35.833 -2.83301 -53.5 -8.5s-33.334 -14.5 -47.001 -26.5
s-24.834 -27.5 -33.501 -46.5s-13 -41.5 -13 -67.5v-41h288v42zM151.999 674.003c4 -22 14.498 -39.667 31.498 -53s36.167 -20 57.5 -20c22 0 40.833 5.83301 56.5 17.5s26.167 30.167 31.5 55.5h39c-2 -12.667 -5.83301 -25.5 -11.5 -38.5s-13.5 -24.833 -23.5 -35.5
s-22.667 -19.334 -38 -26.001s-33.333 -10 -54 -10c-21.333 0 -39.666 3.33301 -54.999 10s-28.333 15.334 -39 26.001s-18.667 22.5 -24 35.5s-8.66602 25.833 -9.99902 38.5h39z" />
    <glyph glyph-name="Edotaccent" unicode="&#x116;" horiz-adv-x="532" 
d="M57 0v689h443v-44h-395v-274h340v-43h-340v-285h395v-43h-443zM245 807c0 8.66699 3.16699 16.334 9.5 23.001s14.166 10 23.499 10c10.667 0 19.167 -3.33301 25.5 -10s9.5 -14.334 9.5 -23.001c0 -9.33301 -3.16699 -17.5 -9.5 -24.5s-14.833 -10.5 -25.5 -10.5
c-9.33301 0 -17.166 3.33301 -23.499 10s-9.5 15 -9.5 25z" />
    <glyph glyph-name="edotaccent" unicode="&#x117;" horiz-adv-x="466" 
d="M94 227l-0.00195312 -45.9961c0 -27.333 4.33301 -50.333 13 -69s20 -33.834 34 -45.501s30 -20.167 48 -25.5s36.667 -8 56 -8c27.333 0 52 4.66699 74 14s41.667 22.333 59 39l28 -32c-20.667 -20.667 -44.667 -35.834 -72 -45.501s-57.666 -14.5 -90.999 -14.5
c-28 0 -53.833 3.83301 -77.5 11.5s-44.167 19 -61.5 34s-30.833 33.667 -40.5 56s-14.5 48.166 -14.5 77.499v139c0 28 4.66699 53.333 14 76s22.5 42.167 39.5 58.5s37.333 28.833 61 37.5s49.5 13 77.5 13c27.333 0 52.333 -4.5 75 -13.5s42.334 -21.5 59.001 -37.5
s29.5 -35.333 38.5 -58s13.5 -47.334 13.5 -74.001v-87h-333zM381.998 308.004c0 26.667 -4.16602 49.333 -12.499 68s-19.166 34 -32.499 46s-28.333 20.667 -45 26s-33.667 8 -51 8c-18 0 -35.833 -2.83301 -53.5 -8.5s-33.334 -14.5 -47.001 -26.5
s-24.834 -27.5 -33.501 -46.5s-13 -41.5 -13 -67.5v-41h288v42zM210.999 637.003c0 8.66699 3.16699 16.334 9.5 23.001s14.166 10 23.499 10c10.667 0 19.167 -3.33301 25.5 -10s9.5 -14.334 9.5 -23.001c0 -9.33301 -3.16699 -17.5 -9.5 -24.5s-14.833 -10.5 -25.5 -10.5
c-9.33301 0 -17.166 3.33301 -23.499 10s-9.5 15 -9.5 25z" />
    <glyph glyph-name="Eogonek" unicode="&#x118;" horiz-adv-x="532" 
d="M427 -93c0 13.333 3.00098 28.167 9.00098 44.5s16.667 32.5 32 48.5h-411v689h443v-44h-395v-274h340v-43h-340v-285h395v-43c-12 -14.667 -20.667 -29.834 -26 -45.501s-8 -29.167 -8 -40.5c0 -18 5 -31.167 15 -39.5s23 -12.5 39 -12.5
c17.333 0 36.666 5.33301 57.999 16l13 -30c-10 -5.33301 -21.833 -10.166 -35.5 -14.499s-28.167 -6.5 -43.5 -6.5c-26.667 0 -47.5 8 -62.5 24s-22.5 34.667 -22.5 56z" />
    <glyph glyph-name="eogonek" unicode="&#x119;" horiz-adv-x="466" 
d="M316 -53c0 9.33301 1.3291 19.002 3.99609 29.002s7.33398 20.667 14.001 32c-29.333 -9.33301 -59.666 -14 -90.999 -14c-28 0 -53.833 3.83301 -77.5 11.5s-44.167 19 -61.5 34s-30.833 33.667 -40.5 56s-14.5 48.166 -14.5 77.499v139c0 28 4.66699 53.333 14 76
s22.5 42.167 39.5 58.5s37.333 28.833 61 37.5s49.5 13 77.5 13c27.333 0 52.333 -4.5 75 -13.5s42.334 -21.5 59.001 -37.5s29.5 -35.333 38.5 -58s13.5 -47.334 13.5 -74.001v-87h-333v-46c0 -27.333 4.33301 -50.333 13 -69s20 -33.834 34 -45.501s30 -20.167 48 -25.5
s36.667 -8 56 -8c27.333 0 52 4.66699 74 14s41.667 22.333 59 39l28 -32c-3.33301 -3.33301 -6.66602 -6.33301 -9.99902 -9s-6.66602 -5.66699 -9.99902 -9c-11.333 -14 -19.333 -28.333 -24 -43s-7 -27.667 -7 -39c0 -18 5 -31.167 15 -39.5s23 -12.5 39 -12.5
c17.333 0 36.666 5.33301 57.999 16l13 -30c-10 -5.33301 -21.833 -10.166 -35.5 -14.499s-28.167 -6.5 -43.5 -6.5c-26.667 0 -47.5 8 -62.5 24s-22.5 34.667 -22.5 56zM381.996 308.002c0 26.667 -4.16602 49.333 -12.499 68s-19.166 34 -32.499 46s-28.333 20.667 -45 26
s-33.667 8 -51 8c-18 0 -35.833 -2.83301 -53.5 -8.5s-33.334 -14.5 -47.001 -26.5s-24.834 -27.5 -33.501 -46.5s-13 -41.5 -13 -67.5v-41h288v42z" />
    <glyph glyph-name="Ecaron" unicode="&#x11a;" horiz-adv-x="532" 
d="M57 0v689h443v-44h-395v-274h340v-43h-340v-285h395v-43h-443zM411 861l18 -21l-126 -109h-37l-131 110l17 21l130 -84z" />
    <glyph glyph-name="ecaron" unicode="&#x11b;" horiz-adv-x="466" 
d="M94 227l-0.00195312 -45.9961c0 -27.333 4.33301 -50.333 13 -69s20 -33.834 34 -45.501s30 -20.167 48 -25.5s36.667 -8 56 -8c27.333 0 52 4.66699 74 14s41.667 22.333 59 39l28 -32c-20.667 -20.667 -44.667 -35.834 -72 -45.501s-57.666 -14.5 -90.999 -14.5
c-28 0 -53.833 3.83301 -77.5 11.5s-44.167 19 -61.5 34s-30.833 33.667 -40.5 56s-14.5 48.166 -14.5 77.499v139c0 28 4.66699 53.333 14 76s22.5 42.167 39.5 58.5s37.333 28.833 61 37.5s49.5 13 77.5 13c27.333 0 52.333 -4.5 75 -13.5s42.334 -21.5 59.001 -37.5
s29.5 -35.333 38.5 -58s13.5 -47.334 13.5 -74.001v-87h-333zM381.998 308.004c0 26.667 -4.16602 49.333 -12.499 68s-19.166 34 -32.499 46s-28.333 20.667 -45 26s-33.667 8 -51 8c-18 0 -35.833 -2.83301 -53.5 -8.5s-33.334 -14.5 -47.001 -26.5
s-24.834 -27.5 -33.501 -46.5s-13 -41.5 -13 -67.5v-41h288v42zM362.999 701.003l21 -20l-126 -124h-37l-132 124l21 21l127 -97z" />
    <glyph glyph-name="Gcircumflex" unicode="&#x11c;" horiz-adv-x="549" 
d="M501 72c-28.667 -27.333 -60.8311 -47.333 -96.498 -60s-73.167 -19 -112.5 -19c-36.667 0 -70 5.66699 -100 17s-55.667 27.333 -77 48s-37.833 45 -49.5 73s-17.5 59 -17.5 93v244c0 33.333 6 64 18 92s28.833 52 50.5 72s47.667 35.667 78 47s64.166 17 101.499 17
c34.667 0 67 -4 97 -12s57.667 -21 83 -39l-26 -39c-21.333 15.333 -45.333 26.833 -72 34.5s-54 11.5 -82 11.5c-25.333 0 -49.833 -3.66699 -73.5 -11s-45 -18.833 -64 -34.5s-34.167 -35.667 -45.5 -60s-17 -53.5 -17 -87.5v-227c0 -34 5.5 -63.333 16.5 -88
s25.667 -45 44 -61s39.166 -27.833 62.499 -35.5s47.333 -11.5 72 -11.5c8 0 18 0.5 30 1.5s25.167 3.5 39.5 7.5s29.333 9.66699 45 17s31.5 17.333 47.5 30v205h-119v45h167v-270zM287.003 814l-130 -84l-18 21l131 109h37l127 -108l-18 -21z" />
    <glyph glyph-name="gcircumflex" unicode="&#x11d;" horiz-adv-x="479" 
d="M200 496c9.33301 0 19.667 -0.5 31 -1.5s24.5 -3.66699 39.5 -8s31.833 -10.833 50.5 -19.5s40 -20.334 64 -35.001l8 59h37v-530c0 -28 -5 -52.667 -15 -74s-23.667 -39.333 -41 -54s-38.333 -25.667 -63 -33s-51.334 -11 -80.001 -11
c-26.667 0 -54.5 3.83301 -83.5 11.5s-54.167 20.167 -75.5 37.5l29 35c16 -13.333 36.5 -23.666 61.5 -30.999s48.167 -11 69.5 -11c20.667 0 40.334 2.5 59.001 7.5s35 13.167 49 24.5s25 26.166 33 44.499s12 41.166 12 68.499v91
c-23.333 -15.333 -44.333 -27.666 -63 -36.999s-35.5 -16.666 -50.5 -21.999s-28.667 -9 -41 -11s-23.5 -3 -33.5 -3c-47.333 -1.33301 -84.666 12.167 -111.999 40.5s-41 70.5 -41 126.5v168c0 56 14.667 97.833 44 125.5s66.666 41.5 111.999 41.5zM385.001 383
c-34 23.333 -66.499 40.833 -97.499 52.5s-58.833 17.5 -83.5 17.5c-36 0 -64.167 -10.333 -84.5 -31s-30.5 -55.667 -30.5 -105v-144c0 -48 9.16699 -82.667 27.5 -104s46.166 -32 83.499 -32c24.667 0 53.5 7.16699 86.5 21.5s65.833 32.5 98.5 54.5v270zM244.002 654
l-127 -98l-21 21l132 124h37l126 -123l-21 -21z" />
    <glyph glyph-name="Gbreve" unicode="&#x11e;" horiz-adv-x="549" 
d="M501 72c-28.667 -27.333 -60.8311 -47.333 -96.498 -60s-73.167 -19 -112.5 -19c-36.667 0 -70 5.66699 -100 17s-55.667 27.333 -77 48s-37.833 45 -49.5 73s-17.5 59 -17.5 93v244c0 33.333 6 64 18 92s28.833 52 50.5 72s47.667 35.667 78 47s64.166 17 101.499 17
c34.667 0 67 -4 97 -12s57.667 -21 83 -39l-26 -39c-21.333 15.333 -45.333 26.833 -72 34.5s-54 11.5 -82 11.5c-25.333 0 -49.833 -3.66699 -73.5 -11s-45 -18.833 -64 -34.5s-34.167 -35.667 -45.5 -60s-17 -53.5 -17 -87.5v-227c0 -34 5.5 -63.333 16.5 -88
s25.667 -45 44 -61s39.166 -27.833 62.499 -35.5s47.333 -11.5 72 -11.5c8 0 18 0.5 30 1.5s25.167 3.5 39.5 7.5s29.333 9.66699 45 17s31.5 17.333 47.5 30v205h-119v45h167v-270zM203.003 840c3.33301 -19.333 13.1631 -36.333 29.4961 -51s36.166 -22 59.499 -22
c24.667 0 44.834 7.33301 60.501 22s24.834 31.667 27.501 51h39c-2 -12.667 -5.66699 -25.5 -11 -38.5s-13 -24.833 -23 -35.5s-22.667 -19.334 -38 -26.001s-33.666 -10 -54.999 -10s-39.666 3.33301 -54.999 10s-28.333 15.334 -39 26.001s-18.667 22.5 -24 35.5
s-8.66602 25.833 -9.99902 38.5h39z" />
    <glyph glyph-name="gbreve" unicode="&#x11f;" horiz-adv-x="479" 
d="M200 496c9.33301 0 19.667 -0.5 31 -1.5s24.5 -3.66699 39.5 -8s31.833 -10.833 50.5 -19.5s40 -20.334 64 -35.001l8 59h37v-530c0 -28 -5 -52.667 -15 -74s-23.667 -39.333 -41 -54s-38.333 -25.667 -63 -33s-51.334 -11 -80.001 -11
c-26.667 0 -54.5 3.83301 -83.5 11.5s-54.167 20.167 -75.5 37.5l29 35c16 -13.333 36.5 -23.666 61.5 -30.999s48.167 -11 69.5 -11c20.667 0 40.334 2.5 59.001 7.5s35 13.167 49 24.5s25 26.166 33 44.499s12 41.166 12 68.499v91
c-23.333 -15.333 -44.333 -27.666 -63 -36.999s-35.5 -16.666 -50.5 -21.999s-28.667 -9 -41 -11s-23.5 -3 -33.5 -3c-47.333 -1.33301 -84.666 12.167 -111.999 40.5s-41 70.5 -41 126.5v168c0 56 14.667 97.833 44 125.5s66.666 41.5 111.999 41.5zM385.001 383
c-34 23.333 -66.499 40.833 -97.499 52.5s-58.833 17.5 -83.5 17.5c-36 0 -64.167 -10.333 -84.5 -31s-30.5 -55.667 -30.5 -105v-144c0 -48 9.16699 -82.667 27.5 -104s46.166 -32 83.499 -32c24.667 0 53.5 7.16699 86.5 21.5s65.833 32.5 98.5 54.5v270zM169.002 674
c4 -22 14.498 -39.667 31.498 -53s36.167 -20 57.5 -20c22 0 40.833 5.83301 56.5 17.5s26.167 30.167 31.5 55.5h39c-2 -12.667 -5.83301 -25.5 -11.5 -38.5s-13.5 -24.833 -23.5 -35.5s-22.667 -19.334 -38 -26.001s-33.333 -10 -54 -10
c-21.333 0 -39.666 3.33301 -54.999 10s-28.333 15.334 -39 26.001s-18.667 22.5 -24 35.5s-8.66602 25.833 -9.99902 38.5h39z" />
    <glyph glyph-name="Gdotaccent" unicode="&#x120;" horiz-adv-x="549" 
d="M501 72c-28.667 -27.333 -60.8311 -47.333 -96.498 -60s-73.167 -19 -112.5 -19c-36.667 0 -70 5.66699 -100 17s-55.667 27.333 -77 48s-37.833 45 -49.5 73s-17.5 59 -17.5 93v244c0 33.333 6 64 18 92s28.833 52 50.5 72s47.667 35.667 78 47s64.166 17 101.499 17
c34.667 0 67 -4 97 -12s57.667 -21 83 -39l-26 -39c-21.333 15.333 -45.333 26.833 -72 34.5s-54 11.5 -82 11.5c-25.333 0 -49.833 -3.66699 -73.5 -11s-45 -18.833 -64 -34.5s-34.167 -35.667 -45.5 -60s-17 -53.5 -17 -87.5v-227c0 -34 5.5 -63.333 16.5 -88
s25.667 -45 44 -61s39.166 -27.833 62.499 -35.5s47.333 -11.5 72 -11.5c8 0 18 0.5 30 1.5s25.167 3.5 39.5 7.5s29.333 9.66699 45 17s31.5 17.333 47.5 30v205h-119v45h167v-270zM255.003 807c0 8.66699 3.16699 16.334 9.5 23.001s14.166 10 23.499 10
c10.667 0 19.167 -3.33301 25.5 -10s9.5 -14.334 9.5 -23.001c0 -9.33301 -3.16699 -17.5 -9.5 -24.5s-14.833 -10.5 -25.5 -10.5c-9.33301 0 -17.166 3.33301 -23.499 10s-9.5 15 -9.5 25z" />
    <glyph glyph-name="gdotaccent" unicode="&#x121;" horiz-adv-x="479" 
d="M200 496c9.33301 0 19.667 -0.5 31 -1.5s24.5 -3.66699 39.5 -8s31.833 -10.833 50.5 -19.5s40 -20.334 64 -35.001l8 59h37v-530c0 -28 -5 -52.667 -15 -74s-23.667 -39.333 -41 -54s-38.333 -25.667 -63 -33s-51.334 -11 -80.001 -11
c-26.667 0 -54.5 3.83301 -83.5 11.5s-54.167 20.167 -75.5 37.5l29 35c16 -13.333 36.5 -23.666 61.5 -30.999s48.167 -11 69.5 -11c20.667 0 40.334 2.5 59.001 7.5s35 13.167 49 24.5s25 26.166 33 44.499s12 41.166 12 68.499v91
c-23.333 -15.333 -44.333 -27.666 -63 -36.999s-35.5 -16.666 -50.5 -21.999s-28.667 -9 -41 -11s-23.5 -3 -33.5 -3c-47.333 -1.33301 -84.666 12.167 -111.999 40.5s-41 70.5 -41 126.5v168c0 56 14.667 97.833 44 125.5s66.666 41.5 111.999 41.5zM385.001 383
c-34 23.333 -66.499 40.833 -97.499 52.5s-58.833 17.5 -83.5 17.5c-36 0 -64.167 -10.333 -84.5 -31s-30.5 -55.667 -30.5 -105v-144c0 -48 9.16699 -82.667 27.5 -104s46.166 -32 83.499 -32c24.667 0 53.5 7.16699 86.5 21.5s65.833 32.5 98.5 54.5v270zM221.002 637
c0 8.66699 3.16699 16.334 9.5 23.001s14.166 10 23.499 10c10.667 0 19.167 -3.33301 25.5 -10s9.5 -14.334 9.5 -23.001c0 -9.33301 -3.16699 -17.5 -9.5 -24.5s-14.833 -10.5 -25.5 -10.5c-9.33301 0 -17.166 3.33301 -23.499 10s-9.5 15 -9.5 25z" />
    <glyph glyph-name="Gcommaaccent" unicode="&#x122;" horiz-adv-x="549" 
d="M501 72c-28.667 -27.333 -60.8311 -47.333 -96.498 -60s-73.167 -19 -112.5 -19c-36.667 0 -70 5.66699 -100 17s-55.667 27.333 -77 48s-37.833 45 -49.5 73s-17.5 59 -17.5 93v244c0 33.333 6 64 18 92s28.833 52 50.5 72s47.667 35.667 78 47s64.166 17 101.499 17
c34.667 0 67 -4 97 -12s57.667 -21 83 -39l-26 -39c-21.333 15.333 -45.333 26.833 -72 34.5s-54 11.5 -82 11.5c-25.333 0 -49.833 -3.66699 -73.5 -11s-45 -18.833 -64 -34.5s-34.167 -35.667 -45.5 -60s-17 -53.5 -17 -87.5v-227c0 -34 5.5 -63.333 16.5 -88
s25.667 -45 44 -61s39.166 -27.833 62.499 -35.5s47.333 -11.5 72 -11.5c8 0 18 0.5 30 1.5s25.167 3.5 39.5 7.5s29.333 9.66699 45 17s31.5 17.333 47.5 30v205h-119v45h167v-270zM247.003 -110c0 11.333 3.83203 20.333 11.499 27s17.167 10 28.5 10c14 0 25 -5 33 -15
s12 -23 12 -39c0 -22.667 -6.66699 -44.667 -20 -66s-29.666 -37 -48.999 -47l-15 20c24.667 20 37.667 44.333 39 73c-11.333 -0.666992 -20.833 2.5 -28.5 9.5s-11.5 16.167 -11.5 27.5z" />
    <glyph glyph-name="gcommaaccent" unicode="&#x123;" horiz-adv-x="479" 
d="M44 328c0 56.667 14.333 98.833 43 126.5s66 41.5 112 41.5c9.33301 0 19.833 -0.5 31.5 -1.5s25 -3.66699 40 -8s31.833 -10.833 50.5 -19.5s40 -20.334 64 -35.001l4 29.5l4 29.5h36v-530c0 -28 -4.83301 -52.667 -14.5 -74s-23.334 -39.333 -41.001 -54
s-38.667 -25.667 -63 -33s-50.833 -11 -79.5 -11c-27.333 0 -55.333 3.83301 -84 11.5s-53.667 20.167 -75 37.5l29 36c8 -6.66699 17.167 -12.667 27.5 -18s21.5 -9.83301 33.5 -13.5s24 -6.5 36 -8.5s23.333 -3 34 -3c20.667 0 40.334 2.5 59.001 7.5s35 13.167 49 24.5
s25 26.333 33 45s12 41.667 12 69v90c-24 -16 -45.833 -28.833 -65.5 -38.5s-37.167 -17 -52.5 -22s-29.333 -8.16699 -42 -9.5s-24 -2 -34 -2c-46 0 -82 13.833 -108 41.5s-39 68.834 -39 123.501v168zM88 172.999c0 -48.667 9.33301 -83.5 28 -104.5
s46.667 -31.5 84 -31.5c24.667 0 53.5 7 86.5 21s65.833 32 98.5 54v270c-34 23.333 -66.667 41 -98 53s-59.333 18 -84 18c-35.333 0 -63.333 -10.5 -84 -31.5s-31 -56.167 -31 -105.5v-143zM299 691.999c-24.667 -20 -37.667 -44.668 -39 -74.001h4
c10.667 0 19.334 -3.16699 26.001 -9.5s10 -15.166 10 -26.499s-3.83301 -20.333 -11.5 -27s-17.167 -10 -28.5 -10c-14 0 -25 5 -33 15s-12 23 -12 39c0 22.667 6.66699 44.667 20 66s29.666 37 48.999 47z" />
    <glyph glyph-name="Hcircumflex" unicode="&#x124;" horiz-adv-x="596" 
d="M492 0v329h-390v-329h-47v689h47v-317h390v317h50v-689h-50zM299 814l-130 -84l-18 21l131 109h37l127 -108l-18 -21z" />
    <glyph glyph-name="hcircumflex" unicode="&#x125;" horiz-adv-x="479" 
d="M303 497c100 0 150 -56.001 150 -168.001v-329h-45v318c0 48.667 -9.33301 83.334 -28 104.001s-46.667 31 -84 31c-12 0 -25.5 -2 -40.5 -6s-30.5 -9.5 -46.5 -16.5s-32.333 -14.833 -49 -23.5s-32.667 -18 -48 -28v-379h-45v716h45v-293c46 29.333 84.167 49 114.5 59
s55.833 15 76.5 15zM92 813.999l-130 -84l-18 21l131 109h37l127 -108l-18 -21z" />
    <glyph glyph-name="Hbar" unicode="&#x126;" horiz-adv-x="596" 
d="M6 598h49v91h47v-91h390v91h50v-91h47v-37h-47v-561h-50v329h-390v-329h-47v561h-49v37zM492 372v189h-390v-189h390z" />
    <glyph glyph-name="hbar" unicode="&#x127;" horiz-adv-x="479" 
d="M285 497c100 0 150 -56.001 150 -168.001v-329h-45v318c0 48.667 -9.33301 83.334 -28 104.001s-46.667 31 -84 31c-12 0 -25.5 -2 -40.5 -6s-30.5 -9.5 -46.5 -16.5s-32.333 -14.833 -49 -23.5s-32.667 -18 -48 -28v-379h-45v580h-49v37h49v99h45v-99h243v-37h-243v-157
c46 29.333 84.167 49 114.5 59s55.833 15 76.5 15z" />
    <glyph glyph-name="Itilde" unicode="&#x128;" horiz-adv-x="216" 
d="M84 0v689h48v-689h-48zM50 854c10.667 0 21.666 -2.16992 32.999 -6.50293s22.5 -9.16602 33.5 -14.499s21.667 -10.166 32 -14.499s19.5 -6.5 27.5 -6.5c10.667 0 20.167 3.16699 28.5 9.5s17.5 16.833 27.5 31.5l30 -17c-12.667 -23.333 -26 -40 -40 -50
s-29 -15 -45 -15c-10 0 -20.333 2 -31 6s-21.5 8.5 -32.5 13.5s-21.833 9.66699 -32.5 14s-20.667 6.5 -30 6.5c-12.667 0 -23.667 -3.16699 -33 -9.5s-19.333 -16.166 -30 -29.499l-30 18c12.667 20.667 26.834 36.5 42.501 47.5s32.167 16.5 49.5 16.5z" />
    <glyph glyph-name="itilde" unicode="&#x129;" horiz-adv-x="284" 
d="M118 0v491h44v-491h-44zM82 684c10.667 0 21.666 -2.16992 32.999 -6.50293s22.5 -9.16602 33.5 -14.499s21.667 -10.166 32 -14.499s19.5 -6.5 27.5 -6.5c10.667 0 20.167 3.16699 28.5 9.5s17.5 16.833 27.5 31.5l30 -17c-12.667 -23.333 -26 -40 -40 -50
s-29 -15 -45 -15c-10 0 -20.333 2 -31 6s-21.5 8.5 -32.5 13.5s-21.833 9.66699 -32.5 14s-20.667 6.5 -30 6.5c-12.667 0 -23.667 -3.16699 -33 -9.5s-19.333 -16.166 -30 -29.499l-30 18c12.667 20.667 26.834 36.5 42.501 47.5s32.167 16.5 49.5 16.5z" />
    <glyph glyph-name="Imacron" unicode="&#x12a;" horiz-adv-x="216" 
d="M84 0v689h48v-689h-48zM-19 769v41h255v-41h-255z" />
    <glyph glyph-name="imacron" unicode="&#x12b;" horiz-adv-x="235" 
d="M95 0v491h44v-491h-44zM-10 593v41h255v-41h-255z" />
    <glyph glyph-name="Ibreve" unicode="&#x12c;" horiz-adv-x="235" 
d="M29 839c3.33301 -19.333 13.1631 -36.333 29.4961 -51s36.166 -22 59.499 -22c24.667 0 44.834 7.33301 60.501 22s24.834 31.667 27.501 51h39c-2 -12.667 -5.66699 -25.5 -11 -38.5s-13 -24.833 -23 -35.5s-22.667 -19.334 -38 -26.001s-33.666 -10 -54.999 -10
s-39.666 3.33301 -54.999 10s-28.333 15.334 -39 26.001s-18.667 22.5 -24 35.5s-8.66602 25.833 -9.99902 38.5h39zM93.9971 0v689h48v-689h-48z" />
    <glyph glyph-name="ibreve" unicode="&#x12d;" horiz-adv-x="235" 
d="M94 0v491h44v-491h-44zM29 680c4 -22 14.498 -39.667 31.498 -53s36.167 -20 57.5 -20c22 0 40.833 5.83301 56.5 17.5s26.167 30.167 31.5 55.5h39c-2 -12.667 -5.83301 -25.5 -11.5 -38.5s-13.5 -24.833 -23.5 -35.5s-22.667 -19.334 -38 -26.001s-33.333 -10 -54 -10
c-21.333 0 -39.666 3.33301 -54.999 10s-28.333 15.334 -39 26.001s-18.667 22.5 -24 35.5s-8.66602 25.833 -9.99902 38.5h39z" />
    <glyph glyph-name="Iogonek" unicode="&#x12e;" horiz-adv-x="216" 
d="M52 -93c0 13.333 3.00098 28.167 9.00098 44.5s16.667 32.5 32 48.5h-9v689h48v-689h-7c-12 -14.667 -20.667 -29.834 -26 -45.501s-8 -29.167 -8 -40.5c0 -18 5 -31.167 15 -39.5s23 -12.5 39 -12.5c17.333 0 36.666 5.33301 57.999 16l13 -30
c-10 -5.33301 -21.833 -10.166 -35.5 -14.499s-28.167 -6.5 -43.5 -6.5c-26.667 0 -47.5 8 -62.5 24s-22.5 34.667 -22.5 56z" />
    <glyph glyph-name="iogonek" unicode="&#x12f;" horiz-adv-x="185" 
d="M36 -92c0 13.333 2.83398 27.998 8.50098 43.998s16.167 32 31.5 48h-6v491h44v-491h-6c-12 -14.667 -20.5 -29.667 -25.5 -45s-7.5 -28.666 -7.5 -39.999c0 -18 5 -31.167 15 -39.5s23 -12.5 39 -12.5c17.333 0 36.666 5.33301 57.999 16l13 -30
c-10 -5.33301 -21.833 -10.166 -35.5 -14.499s-28.167 -6.5 -43.5 -6.5c-26.667 0 -47.5 8 -62.5 24s-22.5 34.667 -22.5 56zM125.001 652.998c0 -9.33301 -3.16699 -17.166 -9.5 -23.499s-14.166 -9.5 -23.499 -9.5c-8.66699 0 -16.167 3.16699 -22.5 9.5
s-9.5 14.166 -9.5 23.499s3.16699 17 9.5 23s13.833 9 22.5 9c9.33301 0 17.166 -3 23.499 -9s9.5 -13.667 9.5 -23z" />
    <glyph glyph-name="Idotaccent" unicode="&#x130;" horiz-adv-x="216" 
d="M84 0v689h48v-689h-48zM76 807c0 8.66699 3.16699 16.334 9.5 23.001s14.166 10 23.499 10c10.667 0 19.167 -3.33301 25.5 -10s9.5 -14.334 9.5 -23.001c0 -9.33301 -3.16699 -17.5 -9.5 -24.5s-14.833 -10.5 -25.5 -10.5c-9.33301 0 -17.166 3.33301 -23.499 10
s-9.5 15 -9.5 25z" />
    <glyph glyph-name="dotlessi" unicode="&#x131;" horiz-adv-x="205" 
d="M80 0v491h44v-491h-44z" />
    <glyph glyph-name="IJ" unicode="&#x132;" horiz-adv-x="676" 
d="M84 0v689h48v-689h-48zM592 225c0 -34 -5.16504 -65.167 -15.498 -93.5s-25.5 -52.666 -45.5 -72.999s-44.833 -36.333 -74.5 -48s-63.5 -17.5 -101.5 -17.5c-31.333 0 -60.5 4.16699 -87.5 12.5s-50.167 18.5 -69.5 30.5l23 39
c21.333 -12.667 42.666 -22.334 63.999 -29.001s43.666 -10 66.999 -10c27.333 0 52.833 3.83301 76.5 11.5s44 19.667 61 36s30.333 37 40 62s14.5 54.5 14.5 88.5v456h48v-465z" />
    <glyph glyph-name="ij" unicode="&#x133;" horiz-adv-x="349" 
d="M125 653c0 -9.33301 -3.16699 -17.166 -9.5 -23.499s-14.166 -9.5 -23.499 -9.5c-8.66699 0 -16.167 3.16699 -22.5 9.5s-9.5 14.166 -9.5 23.499s3.16699 17 9.5 23s13.833 9 22.5 9c9.33301 0 17.166 -3 23.499 -9s9.5 -13.667 9.5 -23zM70 0v491h44v-491h-44zM289 653
c0 -9.33301 -3.16699 -17.166 -9.5 -23.499s-14.166 -9.5 -23.499 -9.5c-8.66699 0 -16.167 3.16699 -22.5 9.5s-9.5 14.166 -9.5 23.499s3.16699 17 9.5 23s13.833 9 22.5 9c9.33301 0 17.166 -3 23.499 -9s9.5 -13.667 9.5 -23zM233 491h44.999v-578
c0 -42.667 -9 -73.667 -27 -93s-46 -29 -84 -29h-37v41h31c26.667 0 45.334 6.33301 56.001 19s16 36 16 70v570z" />
    <glyph glyph-name="Jcircumflex" unicode="&#x134;" horiz-adv-x="504" 
d="M420 226c0 -34 -5.16504 -65.167 -15.498 -93.5s-25.5 -52.666 -45.5 -72.999s-44.833 -36.333 -74.5 -48s-63.5 -17.5 -101.5 -17.5c-31.333 0 -60.5 4.16699 -87.5 12.5s-50.167 18.5 -69.5 30.5l23 39c21.333 -12.667 42.666 -22.334 63.999 -29.001
s43.666 -10 66.999 -10c27.333 0 52.833 3.83301 76.5 11.5s44 19.667 61 36s30.333 37 40 62s14.5 54.5 14.5 88.5v456h48v-465zM397.002 816l-130 -84l-18 21l131 109h37l127 -108l-18 -21z" />
    <glyph glyph-name="jcircumflex" unicode="&#x135;" horiz-adv-x="284" 
d="M118 491h44.999v-578c0 -42.667 -9 -73.667 -27 -93s-46 -29 -84 -29h-37v40h31c26.667 0 45.334 6.5 56.001 19.5s16 36.5 16 70.5v570zM141.999 654l-126 -98l-21 21l131 124h37l126 -123l-21 -21z" />
    <glyph glyph-name="Kcommaaccent" unicode="&#x136;" horiz-adv-x="539" 
d="M293 423l245 -423h-56l-222 383l-78 -97l-79 -98v-188h-48v689h48v-427l346 427h58zM230 -90c0 11.333 3.83203 20.333 11.499 27s17.167 10 28.5 10c14 0 25 -5 33 -15s12 -23 12 -39c0 -22.667 -6.66699 -44.667 -20 -66s-29.666 -37 -48.999 -47l-15 20
c24.667 20 37.667 44.333 39 73c-11.333 -0.666992 -20.833 2.5 -28.5 9.5s-11.5 16.167 -11.5 27.5z" />
    <glyph glyph-name="kcommaaccent" unicode="&#x137;" horiz-adv-x="449" 
d="M49 0l0.00292969 716h44v-411h114c20 0 39.5 4.33301 58.5 13s35.167 27 48.5 55l57 120h49l-57 -126c-8.66699 -18.667 -18.667 -34.834 -30 -48.501s-27.666 -24.5 -48.999 -32.5c12.667 -2 23.667 -6.16699 33 -12.5s17.166 -13.833 23.499 -22.5
s11.666 -18.167 15.999 -28.5s8.16602 -20.833 11.499 -31.5l66 -191h-49l-60 171c-6.66699 19.333 -13.334 34.833 -20.001 46.5s-14.167 20.834 -22.5 27.501s-18 11 -29 13s-24.5 3 -40.5 3h-120v-261h-44zM183.003 -110c0 11.333 3.83203 20.333 11.499 27
s17.167 10 28.5 10c14 0 25 -5 33 -15s12 -23 12 -39c0 -22.667 -6.66699 -44.667 -20 -66s-29.666 -37 -48.999 -47l-15 20c24.667 20 37.667 44.333 39 73c-11.333 -0.666992 -20.833 2.5 -28.5 9.5s-11.5 16.167 -11.5 27.5z" />
    <glyph glyph-name="kgreenlandic" unicode="&#x138;" horiz-adv-x="472" 
d="M65 0l0.00195312 491.999h45v-219h132c19.333 0 37.166 4.33301 53.499 13s30.166 28.334 41.499 59.001l55 147h45l-52 -140c-8.66699 -23.333 -17.834 -43.5 -27.501 -60.5s-24.167 -28.167 -43.5 -33.5c12 -2.66699 21.833 -7 29.5 -13s14.334 -13.167 20.001 -21.5
s10.667 -17.833 15 -28.5s8.5 -22 12.5 -34l56 -161h-47l-53 155c-5.33301 16 -11.333 29.167 -18 39.5s-14 18.333 -22 24s-16.667 9.5 -26 11.5s-20 3 -32 3h-139v-233h-45z" />
    <glyph glyph-name="Lacute" unicode="&#x139;" horiz-adv-x="502" 
d="M58 0v689h48v-646h392v-43h-440zM67 751l136 108l35 -37l-151 -93z" />
    <glyph glyph-name="lacute" unicode="&#x13a;" horiz-adv-x="250" 
d="M135 113c0 -31.333 5.83301 -51.832 17.5 -61.499s31.5 -13.834 59.5 -12.501l2 -41c-6 -1.33301 -11.5 -2 -16.5 -2h-15.5c-34 0 -57.667 9.16699 -71 27.5s-20 45.833 -20 82.5v610h44v-603zM91 767.001l136 108l35 -37l-151 -93z" />
    <glyph glyph-name="Lcommaaccent" unicode="&#x13b;" horiz-adv-x="502" 
d="M58 0v689h48v-646h392v-43h-440zM223 -110c0 11.333 3.83203 20.333 11.499 27s17.167 10 28.5 10c14 0 25 -5 33 -15s12 -23 12 -39c0 -22.667 -6.66699 -44.667 -20 -66s-29.666 -37 -48.999 -47l-15 20c24.667 20 37.667 44.333 39 73
c-11.333 -0.666992 -20.833 2.5 -28.5 9.5s-11.5 16.167 -11.5 27.5z" />
    <glyph glyph-name="lcommaaccent" unicode="&#x13c;" horiz-adv-x="250" 
d="M135 113c0 -31.333 5.83301 -51.832 17.5 -61.499s31.5 -13.834 59.5 -12.501l2 -41c-6 -1.33301 -11.5 -2 -16.5 -2h-15.5c-34 0 -57.667 9.16699 -71 27.5s-20 45.833 -20 82.5v610h44v-603zM103 -109.999c0 11.333 3.83203 20.333 11.499 27s17.167 10 28.5 10
c14 0 25 -5 33 -15s12 -23 12 -39c0 -22.667 -6.66699 -44.667 -20 -66s-29.666 -37 -48.999 -47l-15 20c24.667 20 37.667 44.333 39 73c-11.333 -0.666992 -20.833 2.5 -28.5 9.5s-11.5 16.167 -11.5 27.5z" />
    <glyph glyph-name="Lcaron" unicode="&#x13d;" horiz-adv-x="502" 
d="M58 0v689h48v-646h392v-43h-440zM262 659c0 11.333 3.83203 20.333 11.499 27s17.167 10 28.5 10c14 0 25 -5 33 -15s12 -23 12 -39c0 -22.667 -6.66699 -44.667 -20 -66s-29.666 -37 -48.999 -47l-15 20c24.667 20 37.667 44.333 39 73
c-11.333 -0.666992 -20.833 2.5 -28.5 9.5s-11.5 16.167 -11.5 27.5z" />
    <glyph glyph-name="lcaron" unicode="&#x13e;" horiz-adv-x="269" 
d="M190 682c0 11.333 3.83203 20.333 11.499 27s17.167 10 28.5 10c14 0 25 -5 33 -15s12 -23 12 -39c0 -22.667 -6.66699 -44.667 -20 -66s-29.666 -37 -48.999 -47l-15 20c24.667 20 37.667 44.333 39 73c-11.333 -0.666992 -20.833 2.5 -28.5 9.5
s-11.5 16.167 -11.5 27.5zM134.999 113c0 -31.333 5.83301 -51.832 17.5 -61.499s31.5 -13.834 59.5 -12.501l2 -41c-6 -1.33301 -11.5 -2 -16.5 -2h-15.5c-34 0 -57.667 9.16699 -71 27.5s-20 45.833 -20 82.5v610h44v-603z" />
    <glyph glyph-name="Ldot" unicode="&#x13f;" horiz-adv-x="502" 
d="M58 0v689h48v-646h392v-43h-440zM265 351c0 8.66699 3.16699 16.334 9.5 23.001s14.166 10 23.499 10c10.667 0 19.167 -3.33301 25.5 -10s9.5 -14.334 9.5 -23.001c0 -9.33301 -3.16699 -17.5 -9.5 -24.5s-14.833 -10.5 -25.5 -10.5
c-9.33301 0 -17.166 3.33301 -23.499 10s-9.5 15 -9.5 25z" />
    <glyph glyph-name="ldot" unicode="&#x140;" horiz-adv-x="272" 
d="M200 378c0 8.66699 3.16699 16.334 9.5 23.001s14.166 10 23.499 10c10.667 0 19.167 -3.33301 25.5 -10s9.5 -14.334 9.5 -23.001c0 -9.33301 -3.16699 -17.5 -9.5 -24.5s-14.833 -10.5 -25.5 -10.5c-9.33301 0 -17.166 3.33301 -23.499 10s-9.5 15 -9.5 25zM135 113
c0 -31.333 5.83301 -51.832 17.5 -61.499s31.5 -13.834 59.5 -12.501l2 -41c-6 -1.33301 -11.5 -2 -16.5 -2h-15.5c-34 0 -57.667 9.16699 -71 27.5s-20 45.833 -20 82.5v610h44v-603z" />
    <glyph glyph-name="Lslash" unicode="&#x141;" horiz-adv-x="502" 
d="M58 0v251l-55 -32l-19 33l74 43v394h48v-366l161 93l19 -33l-180 -104v-236h392v-43h-440z" />
    <glyph glyph-name="lslash" unicode="&#x142;" horiz-adv-x="266" 
d="M196 -1c-33.333 0 -57.5 8.16797 -72.5 24.501s-22.5 44.166 -22.5 83.499v212l-82 -47l-19 33l101 58v353h44v-328l99 57l19 -32l-118 -68v-232c0 -26 4.16699 -44.667 12.5 -56s23.833 -17 46.5 -17h21v-41h-29z" />
    <glyph glyph-name="Nacute" unicode="&#x143;" horiz-adv-x="613" 
d="M505 0l-125.5 189.5l-126.5 190.5l-73.5 112.5l-75.5 111.5v-604h-48v689h48l256 -386l73.5 -111.5l74.5 -110.5v608h48v-689h-51zM267 751l136 108l35 -37l-151 -93z" />
    <glyph glyph-name="nacute" unicode="&#x144;" horiz-adv-x="480" 
d="M281 497c48.667 0 86.334 -13.833 113.001 -41.5s40 -69.834 40 -126.501v-329h-45v318c0 48.667 -10.167 83.5 -30.5 104.5s-49.166 31.167 -86.499 30.5c-24 0 -51.667 -7.16699 -83 -21.5s-63.333 -32.5 -96 -54.5v-377h-45v491h37l8 -68
c23.333 14 44.166 25.833 62.499 35.5s34.833 17.334 49.5 23.001s28.167 9.66699 40.5 12s24.166 3.5 35.499 3.5zM196 575l78 154l49 -19l-100 -147z" />
    <glyph glyph-name="Ncommaaccent" unicode="&#x145;" horiz-adv-x="613" 
d="M505 0l-125.5 189.5l-126.5 190.5l-73.5 112.5l-75.5 111.5v-604h-48v689h48l256 -386l73.5 -111.5l74.5 -110.5v608h48v-689h-51zM263 -90c0 11.333 3.83203 20.333 11.499 27s17.167 10 28.5 10c14 0 25 -5 33 -15s12 -23 12 -39c0 -22.667 -6.66699 -44.667 -20 -66
s-29.666 -37 -48.999 -47l-15 20c24.667 20 37.667 44.333 39 73c-11.333 -0.666992 -20.833 2.5 -28.5 9.5s-11.5 16.167 -11.5 27.5z" />
    <glyph glyph-name="ncommaaccent" unicode="&#x146;" horiz-adv-x="480" 
d="M281 497c48.667 0 86.334 -13.833 113.001 -41.5s40 -69.834 40 -126.501v-329h-45v318c0 48.667 -10.167 83.5 -30.5 104.5s-49.166 31.167 -86.499 30.5c-24 0 -51.667 -7.16699 -83 -21.5s-63.333 -32.5 -96 -54.5v-377h-45v491h37l8 -68
c23.333 14 44.166 25.833 62.499 35.5s34.833 17.334 49.5 23.001s28.167 9.66699 40.5 12s24.166 3.5 35.499 3.5zM197 -110c0 11.333 3.83203 20.333 11.499 27s17.167 10 28.5 10c14 0 25 -5 33 -15s12 -23 12 -39c0 -22.667 -6.66699 -44.667 -20 -66
s-29.666 -37 -48.999 -47l-15 20c24.667 20 37.667 44.333 39 73c-11.333 -0.666992 -20.833 2.5 -28.5 9.5s-11.5 16.167 -11.5 27.5z" />
    <glyph glyph-name="Ncaron" unicode="&#x147;" horiz-adv-x="613" 
d="M505 0l-125.5 189.5l-126.5 190.5l-73.5 112.5l-75.5 111.5v-604h-48v689h48l256 -386l73.5 -111.5l74.5 -110.5v608h48v-689h-51zM440 861l18 -21l-126 -109h-37l-131 110l17 21l130 -84z" />
    <glyph glyph-name="ncaron" unicode="&#x148;" horiz-adv-x="480" 
d="M281 497c48.667 0 86.334 -13.833 113.001 -41.5s40 -69.834 40 -126.501v-329h-45v318c0 48.667 -10.167 83.5 -30.5 104.5s-49.166 31.167 -86.499 30.5c-24 0 -51.667 -7.16699 -83 -21.5s-63.333 -32.5 -96 -54.5v-377h-45v491h37l8 -68
c23.333 14 44.166 25.833 62.499 35.5s34.833 17.334 49.5 23.001s28.167 9.66699 40.5 12s24.166 3.5 35.499 3.5zM344 701l21 -20l-126 -124h-37l-132 124l21 21l127 -97z" />
    <glyph glyph-name="napostrophe" unicode="&#x149;" horiz-adv-x="532" 
d="M333 497c48.667 0 86.334 -13.833 113.001 -41.5s40 -69.834 40 -126.501v-329h-45v318c0 48.667 -10.167 83.5 -30.5 104.5s-49.166 31.167 -86.499 30.5c-24 0 -51.667 -7.16699 -83 -21.5s-63.333 -32.5 -96 -54.5v-377h-45v491h37l8 -68
c23.333 14 44.166 25.833 62.499 35.5s34.833 17.334 49.5 23.001s28.167 9.66699 40.5 12s24.166 3.5 35.499 3.5zM0 617c0 11.333 3.83203 20.333 11.499 27s17.167 10 28.5 10c14 0 25 -5 33 -15s12 -23 12 -39c0 -22.667 -6.66699 -44.667 -20 -66
s-29.666 -37 -48.999 -47l-15 20c24.667 20 37.667 44.333 39 73c-11.333 -0.666992 -20.833 2.5 -28.5 9.5s-11.5 16.167 -11.5 27.5z" />
    <glyph glyph-name="Eng" unicode="&#x14a;" horiz-adv-x="613" 
d="M457 -124c35.333 0 53 19.667 53 59v60l-263 394l-105 160l-38 55v-604h-48v689h48l263 -397l51.5 -78l51.5 -78l38 -55v608h48v-754c0 -36 -8.83301 -61.667 -26.5 -77s-38.5 -23 -62.5 -23c-28.667 0 -54 7 -76 21c2.66699 5.33301 5 11 7 17s4.33301 12 7 18
c20 -10 37.333 -15 52 -15z" />
    <glyph glyph-name="eng" unicode="&#x14b;" horiz-adv-x="480" 
d="M281 497c48.667 0 86.334 -13.834 113.001 -41.501s40 -69.834 40 -126.501v-394c0 -36 -8.66699 -61.833 -26 -77.5s-38 -23.5 -62 -23.5c-14 0 -27.333 1.83301 -40 5.5s-24.667 8.83398 -36 15.501l14 34c9.33301 -4.66699 18.5 -8.33398 27.5 -11.001
s17.167 -4 24.5 -4c35.333 0 53 20 53 60v384c0 48.667 -10.167 83.334 -30.5 104.001s-49.166 31 -86.499 31c-24 0 -51.667 -7.16699 -83 -21.5s-63.333 -32.5 -96 -54.5v-377h-45v491h37l8 -68c23.333 14 44.166 25.833 62.499 35.5s34.833 17.334 49.5 23.001
s28.167 9.66699 40.5 12s24.166 3.5 35.499 3.5z" />
    <glyph glyph-name="Omacron" unicode="&#x14c;" horiz-adv-x="587" 
d="M536 220c0 -34 -5.83301 -65 -17.5 -93s-28 -51.833 -49 -71.5s-46.5 -35 -76.5 -46s-63.333 -16.5 -100 -16.5c-37.333 0 -70.833 5.5 -100.5 16.5s-55 26.667 -76 47s-37.167 44.666 -48.5 72.999s-17 59.5 -17 93.5v245c0 33.333 5.5 64 16.5 92s27 52 48 72
s46.5 35.667 76.5 47s63.667 17 101 17c36.667 0 70 -5.66699 100 -17s55.5 -27.166 76.5 -47.499s37.333 -44.5 49 -72.5s17.5 -58.333 17.5 -91v-248zM488 459c0 32.667 -5.33203 61.166 -15.999 85.499s-25 44.5 -43 60.5s-38.667 27.833 -62 35.5s-48 11.5 -74 11.5
c-26.667 0 -51.834 -3.83301 -75.501 -11.5s-44.167 -19.5 -61.5 -35.5s-31.166 -36.167 -41.499 -60.5s-15.5 -52.833 -15.5 -85.5v-231c0 -34 5.66699 -63 17 -87s26.166 -43.833 44.499 -59.5s39.166 -27.167 62.499 -34.5s46.666 -11 69.999 -11
c26.667 0 51.834 3.83301 75.501 11.5s44.334 19.334 62.001 35.001s31.667 35.5 42 59.5s15.5 52.667 15.5 86v231zM166.001 768.999v41h255v-41h-255z" />
    <glyph glyph-name="omacron" unicode="&#x14d;" horiz-adv-x="479" 
d="M433 173c0 -56 -17.666 -99.834 -52.999 -131.501s-82.333 -47.5 -141 -47.5c-28.667 0 -54.834 4.16699 -78.501 12.5s-44 20.333 -61 36s-30.167 34.334 -39.5 56.001s-14 46.167 -14 73.5v150c0 26.667 5.16699 50.834 15.5 72.501s24.333 40 42 55
s38.167 26.667 61.5 35s48.333 12.5 75 12.5c27.333 0 52.833 -4.16699 76.5 -12.5s44.167 -20 61.5 -35s30.833 -33.333 40.5 -55s14.5 -45.834 14.5 -72.501v-149zM389.001 307.999c0 26.667 -4.50098 49.335 -13.501 68.002s-20.5 33.834 -34.5 45.501
s-29.833 20.167 -47.5 25.5s-35.167 8 -52.5 8c-18 0 -36 -2.66699 -54 -8s-34 -13.833 -48 -25.5s-25.5 -26.834 -34.5 -45.501s-13.5 -41.334 -13.5 -68.001v-125c0 -27.333 4.16699 -50.333 12.5 -69s19.333 -33.834 33 -45.501s29.5 -20.167 47.5 -25.5s37 -8 57 -8
s38.833 2.83301 56.5 8.5s33.334 14.5 47.001 26.5s24.5 27.333 32.5 46s12 41 12 67v125zM115 593v41h255v-41h-255z" />
    <glyph glyph-name="Obreve" unicode="&#x14e;" horiz-adv-x="587" 
d="M536 220c0 -34 -5.83301 -65 -17.5 -93s-28 -51.833 -49 -71.5s-46.5 -35 -76.5 -46s-63.333 -16.5 -100 -16.5c-37.333 0 -70.833 5.5 -100.5 16.5s-55 26.667 -76 47s-37.167 44.666 -48.5 72.999s-17 59.5 -17 93.5v245c0 33.333 5.5 64 16.5 92s27 52 48 72
s46.5 35.667 76.5 47s63.667 17 101 17c36.667 0 70 -5.66699 100 -17s55.5 -27.166 76.5 -47.499s37.333 -44.5 49 -72.5s17.5 -58.333 17.5 -91v-248zM488 459c0 32.667 -5.33203 61.166 -15.999 85.499s-25 44.5 -43 60.5s-38.667 27.833 -62 35.5s-48 11.5 -74 11.5
c-26.667 0 -51.834 -3.83301 -75.501 -11.5s-44.167 -19.5 -61.5 -35.5s-31.166 -36.167 -41.499 -60.5s-15.5 -52.833 -15.5 -85.5v-231c0 -34 5.66699 -63 17 -87s26.166 -43.833 44.499 -59.5s39.166 -27.167 62.499 -34.5s46.666 -11 69.999 -11
c26.667 0 51.834 3.83301 75.501 11.5s44.334 19.334 62.001 35.001s31.667 35.5 42 59.5s15.5 52.667 15.5 86v231zM200.001 839.999c3.33301 -19.333 13.1631 -36.333 29.4961 -51s36.166 -22 59.499 -22c24.667 0 44.834 7.33301 60.501 22s24.834 31.667 27.501 51h39
c-2 -12.667 -5.66699 -25.5 -11 -38.5s-13 -24.833 -23 -35.5s-22.667 -19.334 -38 -26.001s-33.666 -10 -54.999 -10s-39.666 3.33301 -54.999 10s-28.333 15.334 -39 26.001s-18.667 22.5 -24 35.5s-8.66602 25.833 -9.99902 38.5h39z" />
    <glyph glyph-name="obreve" unicode="&#x14f;" horiz-adv-x="479" 
d="M433 173c0 -56 -17.666 -99.834 -52.999 -131.501s-82.333 -47.5 -141 -47.5c-28.667 0 -54.834 4.16699 -78.501 12.5s-44 20.333 -61 36s-30.167 34.334 -39.5 56.001s-14 46.167 -14 73.5v150c0 26.667 5.16699 50.834 15.5 72.501s24.333 40 42 55
s38.167 26.667 61.5 35s48.333 12.5 75 12.5c27.333 0 52.833 -4.16699 76.5 -12.5s44.167 -20 61.5 -35s30.833 -33.333 40.5 -55s14.5 -45.834 14.5 -72.501v-149zM389.001 307.999c0 26.667 -4.50098 49.335 -13.501 68.002s-20.5 33.834 -34.5 45.501
s-29.833 20.167 -47.5 25.5s-35.167 8 -52.5 8c-18 0 -36 -2.66699 -54 -8s-34 -13.833 -48 -25.5s-25.5 -26.834 -34.5 -45.501s-13.5 -41.334 -13.5 -68.001v-125c0 -27.333 4.16699 -50.333 12.5 -69s19.333 -33.834 33 -45.501s29.5 -20.167 47.5 -25.5s37 -8 57 -8
s38.833 2.83301 56.5 8.5s33.334 14.5 47.001 26.5s24.5 27.333 32.5 46s12 41 12 67v125zM152 674c4 -22 14.498 -39.667 31.498 -53s36.167 -20 57.5 -20c22 0 40.833 5.83301 56.5 17.5s26.167 30.167 31.5 55.5h39c-2 -12.667 -5.83301 -25.5 -11.5 -38.5
s-13.5 -24.833 -23.5 -35.5s-22.667 -19.334 -38 -26.001s-33.333 -10 -54 -10c-21.333 0 -39.666 3.33301 -54.999 10s-28.333 15.334 -39 26.001s-18.667 22.5 -24 35.5s-8.66602 25.833 -9.99902 38.5h39z" />
    <glyph glyph-name="Ohungarumlaut" unicode="&#x150;" horiz-adv-x="587" 
d="M536 220c0 -34 -5.83301 -65 -17.5 -93s-28 -51.833 -49 -71.5s-46.5 -35 -76.5 -46s-63.333 -16.5 -100 -16.5c-37.333 0 -70.833 5.5 -100.5 16.5s-55 26.667 -76 47s-37.167 44.666 -48.5 72.999s-17 59.5 -17 93.5v245c0 33.333 5.5 64 16.5 92s27 52 48 72
s46.5 35.667 76.5 47s63.667 17 101 17c36.667 0 70 -5.66699 100 -17s55.5 -27.166 76.5 -47.499s37.333 -44.5 49 -72.5s17.5 -58.333 17.5 -91v-248zM488 459c0 32.667 -5.33203 61.166 -15.999 85.499s-25 44.5 -43 60.5s-38.667 27.833 -62 35.5s-48 11.5 -74 11.5
c-26.667 0 -51.834 -3.83301 -75.501 -11.5s-44.167 -19.5 -61.5 -35.5s-31.166 -36.167 -41.499 -60.5s-15.5 -52.833 -15.5 -85.5v-231c0 -34 5.66699 -63 17 -87s26.166 -43.833 44.499 -59.5s39.166 -27.167 62.499 -34.5s46.666 -11 69.999 -11
c26.667 0 51.834 3.83301 75.501 11.5s44.334 19.334 62.001 35.001s31.667 35.5 42 59.5s15.5 52.667 15.5 86v231zM310.001 750.999l136 108l35 -37l-151 -93zM193.001 750.999l135 108l36 -37l-152 -93z" />
    <glyph glyph-name="ohungarumlaut" unicode="&#x151;" horiz-adv-x="479" 
d="M433 173c0 -56 -17.666 -99.834 -52.999 -131.501s-82.333 -47.5 -141 -47.5c-28.667 0 -54.834 4.16699 -78.501 12.5s-44 20.333 -61 36s-30.167 34.334 -39.5 56.001s-14 46.167 -14 73.5v150c0 26.667 5.16699 50.834 15.5 72.501s24.333 40 42 55
s38.167 26.667 61.5 35s48.333 12.5 75 12.5c27.333 0 52.833 -4.16699 76.5 -12.5s44.167 -20 61.5 -35s30.833 -33.333 40.5 -55s14.5 -45.834 14.5 -72.501v-149zM389.001 307.999c0 26.667 -4.50098 49.335 -13.501 68.002s-20.5 33.834 -34.5 45.501
s-29.833 20.167 -47.5 25.5s-35.167 8 -52.5 8c-18 0 -36 -2.66699 -54 -8s-34 -13.833 -48 -25.5s-25.5 -26.834 -34.5 -45.501s-13.5 -41.334 -13.5 -68.001v-125c0 -27.333 4.16699 -50.333 12.5 -69s19.333 -33.834 33 -45.501s29.5 -20.167 47.5 -25.5s37 -8 57 -8
s38.833 2.83301 56.5 8.5s33.334 14.5 47.001 26.5s24.5 27.333 32.5 46s12 41 12 67v125zM163 575l79 154l48 -19l-99 -147zM264 575l79 154l48 -19l-99 -147z" />
    <glyph glyph-name="OE" unicode="&#x152;" horiz-adv-x="839" 
d="M364 0c-11.333 -2 -22.833 -3.66602 -34.5 -4.99902s-23.834 -2 -36.501 -2c-37.333 0 -70.833 5.5 -100.5 16.5s-55 26.667 -76 47s-37.167 44.666 -48.5 72.999s-17 59.5 -17 93.5v245c0 33.333 5.5 64 16.5 92s27 52 48 72s46.5 35.667 76.5 47s63.667 17 101 17
c12.667 0 24.834 -0.666992 36.501 -2s23.167 -3 34.5 -5h443v-44h-395v-274h339v-43h-339v-285h395v-43h-443zM293 36.001c12.667 0 24.8359 0.667969 36.5029 2.00098s23.167 3.66602 34.5 6.99902v597c-22 6.66699 -45.667 10 -71 10
c-26.667 0 -51.834 -3.83301 -75.501 -11.5s-44.167 -19.5 -61.5 -35.5s-31.166 -36.167 -41.499 -60.5s-15.5 -52.833 -15.5 -85.5v-231c0 -34 5.66699 -63 17 -87s26.166 -43.833 44.499 -59.5s39.166 -27.167 62.499 -34.5s46.666 -11 69.999 -11z" />
    <glyph glyph-name="oe" unicode="&#x153;" horiz-adv-x="805" 
d="M434 227l-0.000976562 -46.001c0 -27.333 4.16699 -50.333 12.5 -69s19.5 -33.834 33.5 -45.501s30 -20.167 48 -25.5s36.667 -8 56 -8c28 0 52.833 4.66699 74.5 14s41.167 22.333 58.5 39l29 -32c-21.333 -20.667 -45.666 -35.834 -72.999 -45.501
s-57.666 -14.5 -90.999 -14.5c-40 0 -74.833 7.66699 -104.5 23s-52.167 38 -67.5 68c-14.667 -29.333 -36.5 -51.833 -65.5 -67.5s-64.167 -23.5 -105.5 -23.5c-28.667 0 -54.834 4.16699 -78.501 12.5s-44 20.333 -61 36s-30.167 34.334 -39.5 56.001s-14 46.167 -14 73.5
v150c0 26.667 5.16699 50.834 15.5 72.501s24.333 40 42 55s38.167 26.667 61.5 35s48.333 12.5 75 12.5c39.333 0 74 -8.16699 104 -24.5s52.667 -39.5 68 -69.5c15.333 29.333 37.5 52.333 66.5 69s62.833 25 101.5 25c27.333 0 52.5 -4.16699 75.5 -12.5
s42.667 -20.166 59 -35.499s29 -34 38 -56s13.5 -46.333 13.5 -73v-93h-332zM387.999 315.999c0 24 -4.50195 44.8369 -13.502 62.5039s-20.667 32.167 -35 43.5s-30.166 19.666 -47.499 24.999s-34.333 8 -51 8c-18 0 -36 -2.66699 -54 -8s-34 -13.833 -48 -25.5
s-25.5 -26.834 -34.5 -45.501s-13.5 -41.334 -13.5 -68.001v-125c0 -27.333 4.16699 -50.333 12.5 -69s19.333 -33.834 33 -45.501s29.5 -20.167 47.5 -25.5s37 -8 57 -8c18.667 0 36.667 2.66699 54 8s32.833 13.5 46.5 24.5s24.834 24.833 33.501 41.5s13 36 13 58v149z
M720.997 308.003c0 26.667 -4 49.333 -12 68s-18.667 34 -32 46s-28.5 20.667 -45.5 26s-34.167 8 -51.5 8c-18 0 -35.667 -2.83301 -53 -8.5s-33 -14.5 -47 -26.5s-25.167 -27.5 -33.5 -46.5s-12.5 -41.5 -12.5 -67.5v-41h287v42z" />
    <glyph glyph-name="Racute" unicode="&#x154;" horiz-adv-x="555" 
d="M104 0l-47.999 0.000976562v689h270c32.667 0 61.167 -5.83301 85.5 -17.5s44.5 -26.834 60.5 -45.501s28 -39.834 36 -63.501s12 -47.5 12 -71.5c0 -19.333 -2.83301 -38.666 -8.5 -57.999s-14.334 -37.5 -26.001 -54.5s-26.167 -32 -43.5 -45s-37.333 -22.5 -60 -28.5
l134 -305h-53l-129 296h-230v-296zM104.001 644.001v-304h215c20.667 0 40.167 3.33301 58.5 10s34.5 16.5 48.5 29.5s25 28.833 33 47.5s12 40 12 64c0 23.333 -4 44.5 -12 63.5s-19 35.167 -33 48.5s-30.167 23.5 -48.5 30.5s-37.833 10.5 -58.5 10.5h-215z
M211.001 751.001l136 108l35 -37l-151 -93z" />
    <glyph glyph-name="racute" unicode="&#x155;" horiz-adv-x="296" 
d="M293 445c-44.667 -4.66699 -81.667 -14.334 -111 -29.001s-52.333 -27.667 -69 -39v-377h-46v491h39l7 -73h1c10 8.66699 21.833 17.5 35.5 26.5s28.5 17.333 44.5 25s32.5 13.834 49.5 18.501s33.5 7.66699 49.5 9v-52zM121 575l78 154l49 -19l-100 -147z" />
    <glyph glyph-name="Rcommaaccent" unicode="&#x156;" horiz-adv-x="555" 
d="M104 0l-47.999 0.000976562v689h270c32.667 0 61.167 -5.83301 85.5 -17.5s44.5 -26.834 60.5 -45.501s28 -39.834 36 -63.501s12 -47.5 12 -71.5c0 -19.333 -2.83301 -38.666 -8.5 -57.999s-14.334 -37.5 -26.001 -54.5s-26.167 -32 -43.5 -45s-37.333 -22.5 -60 -28.5
l134 -305h-53l-129 296h-230v-296zM104.001 644.001v-304h215c20.667 0 40.167 3.33301 58.5 10s34.5 16.5 48.5 29.5s25 28.833 33 47.5s12 40 12 64c0 23.333 -4 44.5 -12 63.5s-19 35.167 -33 48.5s-30.167 23.5 -48.5 30.5s-37.833 10.5 -58.5 10.5h-215z
M221.001 -89.999c0 11.333 3.83203 20.333 11.499 27s17.167 10 28.5 10c14 0 25 -5 33 -15s12 -23 12 -39c0 -22.667 -6.66699 -44.667 -20 -66s-29.666 -37 -48.999 -47l-15 20c24.667 20 37.667 44.333 39 73c-11.333 -0.666992 -20.833 2.5 -28.5 9.5
s-11.5 16.167 -11.5 27.5z" />
    <glyph glyph-name="rcommaaccent" unicode="&#x157;" horiz-adv-x="296" 
d="M293 445c-44.667 -4.66699 -81.667 -14.334 -111 -29.001s-52.333 -27.667 -69 -39v-377h-46v491h39l7 -73h1c10 8.66699 21.833 17.5 35.5 26.5s28.5 17.333 44.5 25s32.5 13.834 49.5 18.501s33.5 7.66699 49.5 9v-52zM46 -110c0 11.333 3.83203 20.333 11.499 27
s17.167 10 28.5 10c14 0 25 -5 33 -15s12 -23 12 -39c0 -22.667 -6.66699 -44.667 -20 -66s-29.666 -37 -48.999 -47l-15 20c24.667 20 37.667 44.333 39 73c-11.333 -0.666992 -20.833 2.5 -28.5 9.5s-11.5 16.167 -11.5 27.5z" />
    <glyph glyph-name="Rcaron" unicode="&#x158;" horiz-adv-x="555" 
d="M104 0l-47.999 0.000976562v689h270c32.667 0 61.167 -5.83301 85.5 -17.5s44.5 -26.834 60.5 -45.501s28 -39.834 36 -63.501s12 -47.5 12 -71.5c0 -19.333 -2.83301 -38.666 -8.5 -57.999s-14.334 -37.5 -26.001 -54.5s-26.167 -32 -43.5 -45s-37.333 -22.5 -60 -28.5
l134 -305h-53l-129 296h-230v-296zM104.001 644.001v-304h215c20.667 0 40.167 3.33301 58.5 10s34.5 16.5 48.5 29.5s25 28.833 33 47.5s12 40 12 64c0 23.333 -4 44.5 -12 63.5s-19 35.167 -33 48.5s-30.167 23.5 -48.5 30.5s-37.833 10.5 -58.5 10.5h-215z
M384.001 861.001l18 -21l-126 -109h-37l-131 110l17 21l130 -84z" />
    <glyph glyph-name="rcaron" unicode="&#x159;" horiz-adv-x="296" 
d="M293 445c-44.667 -4.66699 -81.667 -14.334 -111 -29.001s-52.333 -27.667 -69 -39v-377h-46v491h39l7 -73h1c10 8.66699 21.833 17.5 35.5 26.5s28.5 17.333 44.5 25s32.5 13.834 49.5 18.501s33.5 7.66699 49.5 9v-52zM267 701l21 -20l-126 -124h-37l-132 124l21 21
l127 -97z" />
    <glyph glyph-name="Sacute" unicode="&#x15a;" horiz-adv-x="536" 
d="M504 181c0 -29.333 -5.66895 -55.4961 -17.002 -78.4961s-27.333 -42.5 -48 -58.5s-45.5 -28.333 -74.5 -37s-61.5 -13 -97.5 -13c-45.333 0 -87.333 5.83301 -126 17.5s-75.667 28.5 -111 50.5l27 37c30.667 -18.667 64 -33.667 100 -45s73 -17 111 -17
c26 0 50.333 3.16699 73 9.5s42.334 15.5 59.001 27.5s29.834 27 39.501 45s14.5 38.667 14.5 62c0 26.667 -5.5 48.5 -16.5 65.5s-25.333 30.833 -43 41.5s-37.834 19 -60.501 25s-45.334 11.333 -68.001 16c-26.667 4.66699 -53.167 11.167 -79.5 19.5
s-49.833 19.5 -70.5 33.5s-37.5 31.667 -50.5 53s-19.5 47.666 -19.5 78.999c0 27.333 5 52.333 15 75s24.333 42 43 58s41.5 28.5 68.5 37.5s57.167 13.5 90.5 13.5c36.667 0 72.334 -3.33301 107.001 -10s67.334 -18.334 98.001 -35.001l-22 -42
c-28.667 15.333 -59 26.333 -91 33s-64 10 -96 10c-21.333 0 -41.833 -2.66699 -61.5 -8s-37 -13.833 -52 -25.5s-27.167 -26.5 -36.5 -44.5s-14 -39.333 -14 -64c0 -24 5.5 -43.833 16.5 -59.5s25.5 -28.667 43.5 -39s38.167 -18.5 60.5 -24.5s44.5 -11.333 66.5 -16
c31.333 -6.66699 60.5 -14.334 87.5 -23.001s50.5 -20 70.5 -34s35.667 -31.833 47 -53.5s17 -48.834 17 -81.501zM213.998 751.004l136 108l35 -37l-151 -93z" />
    <glyph glyph-name="sacute" unicode="&#x15b;" horiz-adv-x="439" 
d="M227 31c14.667 0 29.9951 1.66504 45.9951 4.99805s30.333 9 43 17s23.167 18.5 31.5 31.5s12.5 29.167 12.5 48.5c0 28 -11 49.167 -33 63.5s-59 25.833 -111 34.5c-20 3.33301 -40 7.5 -60 12.5s-38.167 12 -54.5 21s-29.666 21 -39.999 36s-15.5 34.167 -15.5 57.5
c0 40.667 15.167 74 45.5 100s71.5 39 123.5 39c34 0 64.333 -3.16699 91 -9.5s51.334 -17.166 74.001 -32.499l-23 -34c-41.333 24.667 -87.666 37 -138.999 37c-38.667 0 -69.667 -9 -93 -27s-35 -42.333 -35 -73c0 -14 3.5 -26 10.5 -36s16.667 -18.333 29 -25
s27 -12.167 44 -16.5s35.5 -8.16602 55.5 -11.499s40.5 -7.5 61.5 -12.5s40 -12.333 57 -22s30.833 -22.667 41.5 -39s16 -37.833 16 -64.5c0 -40 -15.667 -72.833 -47 -98.5s-75.666 -38.5 -132.999 -38.5c-32 0 -63.667 3.33301 -95 10s-62 20.667 -92 42l24 35
c24.667 -17.333 50.334 -30 77.001 -38s56 -12 88 -12zM199.995 574.998l78 154l49 -19l-100 -147z" />
    <glyph glyph-name="Scircumflex" unicode="&#x15c;" horiz-adv-x="536" 
d="M504 181c0 -29.333 -5.66895 -55.4961 -17.002 -78.4961s-27.333 -42.5 -48 -58.5s-45.5 -28.333 -74.5 -37s-61.5 -13 -97.5 -13c-45.333 0 -87.333 5.83301 -126 17.5s-75.667 28.5 -111 50.5l27 37c30.667 -18.667 64 -33.667 100 -45s73 -17 111 -17
c26 0 50.333 3.16699 73 9.5s42.334 15.5 59.001 27.5s29.834 27 39.501 45s14.5 38.667 14.5 62c0 26.667 -5.5 48.5 -16.5 65.5s-25.333 30.833 -43 41.5s-37.834 19 -60.501 25s-45.334 11.333 -68.001 16c-26.667 4.66699 -53.167 11.167 -79.5 19.5
s-49.833 19.5 -70.5 33.5s-37.5 31.667 -50.5 53s-19.5 47.666 -19.5 78.999c0 27.333 5 52.333 15 75s24.333 42 43 58s41.5 28.5 68.5 37.5s57.167 13.5 90.5 13.5c36.667 0 72.334 -3.33301 107.001 -10s67.334 -18.334 98.001 -35.001l-22 -42
c-28.667 15.333 -59 26.333 -91 33s-64 10 -96 10c-21.333 0 -41.833 -2.66699 -61.5 -8s-37 -13.833 -52 -25.5s-27.167 -26.5 -36.5 -44.5s-14 -39.333 -14 -64c0 -24 5.5 -43.833 16.5 -59.5s25.5 -28.667 43.5 -39s38.167 -18.5 60.5 -24.5s44.5 -11.333 66.5 -16
c31.333 -6.66699 60.5 -14.334 87.5 -23.001s50.5 -20 70.5 -34s35.667 -31.833 47 -53.5s17 -48.834 17 -81.501zM263.998 814.004l-130 -84l-18 21l131 109h37l127 -108l-18 -21z" />
    <glyph glyph-name="scircumflex" unicode="&#x15d;" horiz-adv-x="439" 
d="M227 31c14.667 0 29.9951 1.66504 45.9951 4.99805s30.333 9 43 17s23.167 18.5 31.5 31.5s12.5 29.167 12.5 48.5c0 28 -11 49.167 -33 63.5s-59 25.833 -111 34.5c-20 3.33301 -40 7.5 -60 12.5s-38.167 12 -54.5 21s-29.666 21 -39.999 36s-15.5 34.167 -15.5 57.5
c0 40.667 15.167 74 45.5 100s71.5 39 123.5 39c34 0 64.333 -3.16699 91 -9.5s51.334 -17.166 74.001 -32.499l-23 -34c-41.333 24.667 -87.666 37 -138.999 37c-38.667 0 -69.667 -9 -93 -27s-35 -42.333 -35 -73c0 -14 3.5 -26 10.5 -36s16.667 -18.333 29 -25
s27 -12.167 44 -16.5s35.5 -8.16602 55.5 -11.499s40.5 -7.5 61.5 -12.5s40 -12.333 57 -22s30.833 -22.667 41.5 -39s16 -37.833 16 -64.5c0 -40 -15.667 -72.833 -47 -98.5s-75.666 -38.5 -132.999 -38.5c-32 0 -63.667 3.33301 -95 10s-62 20.667 -92 42l24 35
c24.667 -17.333 50.334 -30 77.001 -38s56 -12 88 -12zM217.995 653.998l-127 -98l-21 21l132 124h37l126 -123l-21 -21z" />
    <glyph glyph-name="Scedilla" unicode="&#x15e;" horiz-adv-x="536" 
d="M259 -163c14 0 27.8311 3.00488 41.498 9.00488s20.5 17.667 20.5 35c0 8.66699 -2.16699 16.167 -6.5 22.5s-10 11.333 -17 15s-14.833 6.16699 -23.5 7.5s-17.334 1.33301 -26.001 0l-20 10l18 59c-40.667 1.33301 -78.834 7.66602 -114.501 18.999
s-69.5 27.333 -101.5 48l27 37c30.667 -18.667 64 -33.667 100 -45s73 -17 111 -17c26 0 50.333 3.16699 73 9.5s42.334 15.5 59.001 27.5s29.834 27 39.501 45s14.5 38.667 14.5 62c0 26.667 -5.5 48.5 -16.5 65.5s-25.333 30.833 -43 41.5s-37.834 19 -60.501 25
s-45.334 11.333 -68.001 16c-26.667 4.66699 -53.167 11.167 -79.5 19.5s-49.833 19.5 -70.5 33.5s-37.5 31.667 -50.5 53s-19.5 47.666 -19.5 78.999c0 27.333 5 52.333 15 75s24.333 42 43 58s41.5 28.5 68.5 37.5s57.167 13.5 90.5 13.5
c36.667 0 72.334 -3.33301 107.001 -10s67.334 -18.334 98.001 -35.001l-22 -42c-28.667 15.333 -59 26.333 -91 33s-64 10 -96 10c-21.333 0 -41.833 -2.66699 -61.5 -8s-37 -13.833 -52 -25.5s-27.167 -26.5 -36.5 -44.5s-14 -39.333 -14 -64
c0 -24 5.5 -43.833 16.5 -59.5s25.5 -28.667 43.5 -39s38.167 -18.5 60.5 -24.5s44.5 -11.333 66.5 -16c31.333 -6.66699 60.5 -14.334 87.5 -23.001s50.5 -20 70.5 -34s35.667 -31.833 47 -53.5s17 -48.834 17 -81.501c0 -28.667 -5.33301 -54.334 -16 -77.001
s-26 -42 -46 -58s-44 -28.5 -72 -37.5s-59.333 -13.833 -94 -14.5l-13 -38c18 0 33 -2.66699 45 -8s21.667 -11.833 29 -19.5s12.5 -15.834 15.5 -24.501s4.5 -16.667 4.5 -24s-1.66699 -15.166 -5 -23.499s-8.83301 -16.166 -16.5 -23.499s-17.667 -13.333 -30 -18
s-27.5 -7 -45.5 -7c-7.33301 0 -17.166 0.833008 -29.499 2.5s-26.833 5.16699 -43.5 10.5l10 26c11.333 -3.33301 22.333 -5.83301 33 -7.5s20.334 -2.5 29.001 -2.5z" />
    <glyph glyph-name="scedilla" unicode="&#x15f;" horiz-adv-x="439" 
d="M217 -163c14 0 27.8291 2.99609 41.4961 8.99609s20.5 17.667 20.5 35c0 8.66699 -2.16699 16.167 -6.5 22.5s-10 11.333 -17 15s-14.833 6.16699 -23.5 7.5s-17.334 1.33301 -26.001 0l-20 10l18 58c-28.667 1.33301 -57 5.5 -85 12.5s-55 20.167 -81 39.5l24 35
c24.667 -17.333 50.334 -30 77.001 -38s56 -12 88 -12c14.667 0 30 1.66699 46 5s30.333 9 43 17s23.167 18.5 31.5 31.5s12.5 29.167 12.5 48.5c0 28 -11 49.167 -33 63.5s-59 25.833 -111 34.5c-20 3.33301 -40 7.5 -60 12.5s-38.167 12 -54.5 21s-29.666 21 -39.999 36
s-15.5 34.167 -15.5 57.5c0 40.667 15.167 74 45.5 100s71.5 39 123.5 39c34 0 64.333 -3.16699 91 -9.5s51.334 -17.166 74.001 -32.499l-23 -34c-41.333 24.667 -87.666 37 -138.999 37c-38.667 0 -69.667 -9 -93 -27s-35 -42.333 -35 -73c0 -14 3.5 -26 10.5 -36
s16.667 -18.333 29 -25s27 -12.167 44 -16.5s35.5 -8.16602 55.5 -11.499s40.5 -7.5 61.5 -12.5s40 -12.333 57 -22s30.833 -22.667 41.5 -39s16 -37.833 16 -64.5c0 -19.333 -3.83301 -37.166 -11.5 -53.499s-18.834 -30.5 -33.501 -42.5s-32.667 -21.667 -54 -29
s-45.333 -11.333 -72 -12l-13 -38c18 0 33 -2.66699 45 -8s21.667 -11.833 29 -19.5s12.5 -15.834 15.5 -24.501s4.5 -16.667 4.5 -24s-1.66699 -15.166 -5 -23.499s-8.83301 -16.166 -16.5 -23.499s-17.667 -13.333 -30 -18s-27.5 -7 -45.5 -7
c-7.33301 0 -17.166 0.833008 -29.499 2.5s-26.833 5.16699 -43.5 10.5l10 26c11.333 -3.33301 22.333 -5.83301 33 -7.5s20.334 -2.5 29.001 -2.5z" />
    <glyph glyph-name="Scaron" unicode="&#x160;" horiz-adv-x="536" 
d="M504 181c0 -29.333 -5.66895 -55.4961 -17.002 -78.4961s-27.333 -42.5 -48 -58.5s-45.5 -28.333 -74.5 -37s-61.5 -13 -97.5 -13c-45.333 0 -87.333 5.83301 -126 17.5s-75.667 28.5 -111 50.5l27 37c30.667 -18.667 64 -33.667 100 -45s73 -17 111 -17
c26 0 50.333 3.16699 73 9.5s42.334 15.5 59.001 27.5s29.834 27 39.501 45s14.5 38.667 14.5 62c0 26.667 -5.5 48.5 -16.5 65.5s-25.333 30.833 -43 41.5s-37.834 19 -60.501 25s-45.334 11.333 -68.001 16c-26.667 4.66699 -53.167 11.167 -79.5 19.5
s-49.833 19.5 -70.5 33.5s-37.5 31.667 -50.5 53s-19.5 47.666 -19.5 78.999c0 27.333 5 52.333 15 75s24.333 42 43 58s41.5 28.5 68.5 37.5s57.167 13.5 90.5 13.5c36.667 0 72.334 -3.33301 107.001 -10s67.334 -18.334 98.001 -35.001l-22 -42
c-28.667 15.333 -59 26.333 -91 33s-64 10 -96 10c-21.333 0 -41.833 -2.66699 -61.5 -8s-37 -13.833 -52 -25.5s-27.167 -26.5 -36.5 -44.5s-14 -39.333 -14 -64c0 -24 5.5 -43.833 16.5 -59.5s25.5 -28.667 43.5 -39s38.167 -18.5 60.5 -24.5s44.5 -11.333 66.5 -16
c31.333 -6.66699 60.5 -14.334 87.5 -23.001s50.5 -20 70.5 -34s35.667 -31.833 47 -53.5s17 -48.834 17 -81.501zM399.998 861.004l18 -21l-126 -109h-37l-131 110l17 21l130 -84z" />
    <glyph glyph-name="scaron" unicode="&#x161;" horiz-adv-x="439" 
d="M227 31c14.667 0 29.9951 1.66504 45.9951 4.99805s30.333 9 43 17s23.167 18.5 31.5 31.5s12.5 29.167 12.5 48.5c0 28 -11 49.167 -33 63.5s-59 25.833 -111 34.5c-20 3.33301 -40 7.5 -60 12.5s-38.167 12 -54.5 21s-29.666 21 -39.999 36s-15.5 34.167 -15.5 57.5
c0 40.667 15.167 74 45.5 100s71.5 39 123.5 39c34 0 64.333 -3.16699 91 -9.5s51.334 -17.166 74.001 -32.499l-23 -34c-41.333 24.667 -87.666 37 -138.999 37c-38.667 0 -69.667 -9 -93 -27s-35 -42.333 -35 -73c0 -14 3.5 -26 10.5 -36s16.667 -18.333 29 -25
s27 -12.167 44 -16.5s35.5 -8.16602 55.5 -11.499s40.5 -7.5 61.5 -12.5s40 -12.333 57 -22s30.833 -22.667 41.5 -39s16 -37.833 16 -64.5c0 -40 -15.667 -72.833 -47 -98.5s-75.666 -38.5 -132.999 -38.5c-32 0 -63.667 3.33301 -95 10s-62 20.667 -92 42l24 35
c24.667 -17.333 50.334 -30 77.001 -38s56 -12 88 -12zM350.995 700.998l21 -20l-126 -124h-37l-132 124l21 21l127 -97z" />
    <glyph glyph-name="Tcommaaccent" unicode="&#x162;" horiz-adv-x="513" 
d="M281 644v-644h-48v644h-216v45h478v-45h-214zM213 -110c0 11.333 3.83203 20.333 11.499 27s17.167 10 28.5 10c14 0 25 -5 33 -15s12 -23 12 -39c0 -22.667 -6.66699 -44.667 -20 -66s-29.666 -37 -48.999 -47l-15 20c24.667 20 37.667 44.333 39 73
c-11.333 -0.666992 -20.833 2.5 -28.5 9.5s-11.5 16.167 -11.5 27.5z" />
    <glyph glyph-name="tcommaaccent" unicode="&#x163;" horiz-adv-x="334" 
d="M318 5c-15.333 -4.66699 -30.833 -7.5 -46.5 -8.5s-27.5 -1.5 -35.5 -1.5c-48.667 0 -82.5 11.167 -101.5 33.5s-28.5 58.833 -28.5 109.5v312h-75v42h76l12 116h32v-116h146v-42h-146v-299c0 -42 6.83301 -71.5 20.5 -88.5s37.167 -25.5 70.5 -25.5
c8.66699 0 19 0.5 31 1.5s24.667 2.83301 38 5.5zM118 -110c0 11.333 3.83203 20.333 11.499 27s17.167 10 28.5 10c14 0 25 -5 33 -15s12 -23 12 -39c0 -22.667 -6.66699 -44.667 -20 -66s-29.666 -37 -48.999 -47l-15 20c24.667 20 37.667 44.333 39 73
c-11.333 -0.666992 -20.833 2.5 -28.5 9.5s-11.5 16.167 -11.5 27.5z" />
    <glyph glyph-name="Tcaron" unicode="&#x164;" horiz-adv-x="513" 
d="M281 644v-644h-48v644h-216v45h478v-45h-214zM385 861l18 -21l-126 -109h-37l-131 110l17 21l130 -84z" />
    <glyph glyph-name="tcaron" unicode="&#x165;" horiz-adv-x="353" 
d="M264 676c0 11.333 3.83203 20.333 11.499 27s17.167 10 28.5 10c14 0 25 -5 33 -15s12 -23 12 -39c0 -22.667 -6.66699 -44.667 -20 -66s-29.666 -37 -48.999 -47l-15 20c24.667 20 37.667 44.333 39 73c-11.333 -0.666992 -20.833 2.5 -28.5 9.5
s-11.5 16.167 -11.5 27.5zM317.999 5c-15.333 -4.66699 -30.833 -7.5 -46.5 -8.5s-27.5 -1.5 -35.5 -1.5c-48.667 0 -82.5 11.167 -101.5 33.5s-28.5 58.833 -28.5 109.5v312h-75v42h76l12 116h32v-116h146v-42h-146v-299c0 -42 6.83301 -71.5 20.5 -88.5
s37.167 -25.5 70.5 -25.5c8.66699 0 19 0.5 31 1.5s24.667 2.83301 38 5.5z" />
    <glyph glyph-name="Tbar" unicode="&#x166;" horiz-adv-x="513" 
d="M281 644v-253h155v-38h-155v-353h-48v353h-156v38h156v253h-216v45h478v-45h-214z" />
    <glyph glyph-name="tbar" unicode="&#x167;" horiz-adv-x="334" 
d="M318 5c-15.333 -4.66699 -30.165 -7.50098 -44.498 -8.50098s-25.833 -1.5 -34.5 -1.5c-48 0 -82.167 11.5 -102.5 34.5s-30.5 59.833 -30.5 110.5v123h-75v37h75v150h-75v42h76l12 116h32v-116h146v-42h-146v-150h146v-37h-146v-112c0 -41.333 6.5 -70.666 19.5 -87.999
s37.5 -26 73.5 -26c7.33301 0 16.666 0.5 27.999 1.5s23.666 3.16699 36.999 6.5z" />
    <glyph glyph-name="Utilde" unicode="&#x168;" horiz-adv-x="590" 
d="M539 219c0 -34 -6 -64.999 -18 -92.999s-28.833 -51.833 -50.5 -71.5s-47.5 -34.834 -77.5 -45.501s-62.667 -16 -98 -16c-36 0 -68.833 5.33301 -98.5 16s-55.167 26 -76.5 46s-38 44 -50 72s-18 59 -18 93v469h49v-461c0 -34 5.5 -63 16.5 -87s25.5 -43.667 43.5 -59
s38.667 -26.666 62 -33.999s47.333 -11 72 -11c25.333 0 49.833 3.66699 73.5 11s44.5 18.666 62.5 33.999s32.333 35 43 59s16 53 16 87v461h49v-470zM237 854.001c10.667 0 21.666 -2.16992 32.999 -6.50293s22.5 -9.16602 33.5 -14.499s21.667 -10.166 32 -14.499
s19.5 -6.5 27.5 -6.5c10.667 0 20.167 3.16699 28.5 9.5s17.5 16.833 27.5 31.5l30 -17c-12.667 -23.333 -26 -40 -40 -50s-29 -15 -45 -15c-10 0 -20.333 2 -31 6s-21.5 8.5 -32.5 13.5s-21.833 9.66699 -32.5 14s-20.667 6.5 -30 6.5c-12.667 0 -23.667 -3.16699 -33 -9.5
s-19.333 -16.166 -30 -29.499l-30 18c12.667 20.667 26.834 36.5 42.501 47.5s32.167 16.5 49.5 16.5z" />
    <glyph glyph-name="utilde" unicode="&#x169;" horiz-adv-x="482" 
d="M395 0l-8 68c-22.667 -14 -42.834 -25.667 -60.501 -35s-33.667 -17 -48 -23s-27.5 -10.167 -39.5 -12.5s-23.667 -3.5 -35 -3.5c-50.667 0 -89.667 13.833 -117 41.5s-41 69.834 -41 126.501v329h45v-318c0 -48.667 10.333 -83.5 31 -104.5s49.334 -31.5 86.001 -31.5
c24 0 51.667 7.16699 83 21.5s63.333 33.166 96 56.499v376h46v-491h-38zM183 684c10.667 0 21.666 -2.16992 32.999 -6.50293s22.5 -9.16602 33.5 -14.499s21.667 -10.166 32 -14.499s19.5 -6.5 27.5 -6.5c10.667 0 20.167 3.16699 28.5 9.5s17.5 16.833 27.5 31.5l30 -17
c-12.667 -23.333 -26 -40 -40 -50s-29 -15 -45 -15c-10 0 -20.333 2 -31 6s-21.5 8.5 -32.5 13.5s-21.833 9.66699 -32.5 14s-20.667 6.5 -30 6.5c-12.667 0 -23.667 -3.16699 -33 -9.5s-19.333 -16.166 -30 -29.499l-30 18c12.667 20.667 26.834 36.5 42.501 47.5
s32.167 16.5 49.5 16.5z" />
    <glyph glyph-name="Umacron" unicode="&#x16a;" horiz-adv-x="590" 
d="M539 219c0 -34 -6 -64.999 -18 -92.999s-28.833 -51.833 -50.5 -71.5s-47.5 -34.834 -77.5 -45.501s-62.667 -16 -98 -16c-36 0 -68.833 5.33301 -98.5 16s-55.167 26 -76.5 46s-38 44 -50 72s-18 59 -18 93v469h49v-461c0 -34 5.5 -63 16.5 -87s25.5 -43.667 43.5 -59
s38.667 -26.666 62 -33.999s47.333 -11 72 -11c25.333 0 49.833 3.66699 73.5 11s44.5 18.666 62.5 33.999s32.333 35 43 59s16 53 16 87v461h49v-470zM166 769.001v41h255v-41h-255z" />
    <glyph glyph-name="umacron" unicode="&#x16b;" horiz-adv-x="482" 
d="M395 0l-8 68c-22.667 -14 -42.834 -25.667 -60.501 -35s-33.667 -17 -48 -23s-27.5 -10.167 -39.5 -12.5s-23.667 -3.5 -35 -3.5c-50.667 0 -89.667 13.833 -117 41.5s-41 69.834 -41 126.501v329h45v-318c0 -48.667 10.333 -83.5 31 -104.5s49.334 -31.5 86.001 -31.5
c24 0 51.667 7.16699 83 21.5s63.333 33.166 96 56.499v376h46v-491h-38zM115 593v41h255v-41h-255z" />
    <glyph glyph-name="Ubreve" unicode="&#x16c;" horiz-adv-x="590" 
d="M539 219c0 -34 -6 -64.999 -18 -92.999s-28.833 -51.833 -50.5 -71.5s-47.5 -34.834 -77.5 -45.501s-62.667 -16 -98 -16c-36 0 -68.833 5.33301 -98.5 16s-55.167 26 -76.5 46s-38 44 -50 72s-18 59 -18 93v469h49v-461c0 -34 5.5 -63 16.5 -87s25.5 -43.667 43.5 -59
s38.667 -26.666 62 -33.999s47.333 -11 72 -11c25.333 0 49.833 3.66699 73.5 11s44.5 18.666 62.5 33.999s32.333 35 43 59s16 53 16 87v461h49v-470zM212 824.001c4 -22 14.498 -39.667 31.498 -53s36.167 -20 57.5 -20c22 0 40.833 5.83301 56.5 17.5
s26.167 30.167 31.5 55.5h39c-2 -12.667 -5.83301 -25.5 -11.5 -38.5s-13.5 -24.833 -23.5 -35.5s-22.667 -19.334 -38 -26.001s-33.333 -10 -54 -10c-21.333 0 -39.666 3.33301 -54.999 10s-28.333 15.334 -39 26.001s-18.667 22.5 -24 35.5s-8.66602 25.833 -9.99902 38.5
h39z" />
    <glyph glyph-name="ubreve" unicode="&#x16d;" horiz-adv-x="482" 
d="M395 0l-8 68c-22.667 -14 -42.834 -25.667 -60.501 -35s-33.667 -17 -48 -23s-27.5 -10.167 -39.5 -12.5s-23.667 -3.5 -35 -3.5c-50.667 0 -89.667 13.833 -117 41.5s-41 69.834 -41 126.501v329h45v-318c0 -48.667 10.333 -83.5 31 -104.5s49.334 -31.5 86.001 -31.5
c24 0 51.667 7.16699 83 21.5s63.333 33.166 96 56.499v376h46v-491h-38zM159 674c4 -22 14.498 -39.667 31.498 -53s36.167 -20 57.5 -20c22 0 40.833 5.83301 56.5 17.5s26.167 30.167 31.5 55.5h39c-2 -12.667 -5.83301 -25.5 -11.5 -38.5s-13.5 -24.833 -23.5 -35.5
s-22.667 -19.334 -38 -26.001s-33.333 -10 -54 -10c-21.333 0 -39.666 3.33301 -54.999 10s-28.333 15.334 -39 26.001s-18.667 22.5 -24 35.5s-8.66602 25.833 -9.99902 38.5h39z" />
    <glyph glyph-name="Uring" unicode="&#x16e;" horiz-adv-x="590" 
d="M539 219c0 -34 -6 -64.999 -18 -92.999s-28.833 -51.833 -50.5 -71.5s-47.5 -34.834 -77.5 -45.501s-62.667 -16 -98 -16c-36 0 -68.833 5.33301 -98.5 16s-55.167 26 -76.5 46s-38 44 -50 72s-18 59 -18 93v469h49v-461c0 -34 5.5 -63 16.5 -87s25.5 -43.667 43.5 -59
s38.667 -26.666 62 -33.999s47.333 -11 72 -11c25.333 0 49.833 3.66699 73.5 11s44.5 18.666 62.5 33.999s32.333 35 43 59s16 53 16 87v461h49v-470zM394 805.001c0 -12.667 -2.33301 -24.5 -7 -35.5s-11.167 -20.667 -19.5 -29s-18.166 -14.833 -29.499 -19.5
s-23.333 -7 -36 -7c-25.333 0 -47 8.83301 -65 26.5s-27 39.167 -27 64.5c0 12.667 2.5 24.5 7.5 35.5s11.667 20.667 20 29s18 14.833 29 19.5s22.833 7 35.5 7s24.667 -2.33301 36 -7s21.166 -11.167 29.499 -19.5s14.833 -18 19.5 -29s7 -22.833 7 -35.5zM365 805.001
c0 17.333 -6 32.166 -18 44.499s-27 18.5 -45 18.5c-17.333 0 -32.166 -6.16699 -44.499 -18.5s-18.5 -27.166 -18.5 -44.499s6.16699 -32.166 18.5 -44.499s27.166 -18.5 44.499 -18.5c18 0 33 6.16699 45 18.5s18 27.166 18 44.499z" />
    <glyph glyph-name="uring" unicode="&#x16f;" horiz-adv-x="482" 
d="M395 0l-8 68c-22.667 -14 -42.834 -25.667 -60.501 -35s-33.667 -17 -48 -23s-27.5 -10.167 -39.5 -12.5s-23.667 -3.5 -35 -3.5c-50.667 0 -89.667 13.833 -117 41.5s-41 69.834 -41 126.501v329h45v-318c0 -48.667 10.333 -83.5 31 -104.5s49.334 -31.5 86.001 -31.5
c24 0 51.667 7.16699 83 21.5s63.333 33.166 96 56.499v376h46v-491h-38zM335 643c0 -12.667 -2.33301 -24.5 -7 -35.5s-11.167 -20.667 -19.5 -29s-18.166 -14.833 -29.499 -19.5s-23.333 -7 -36 -7c-25.333 0 -47 8.83301 -65 26.5s-27 39.167 -27 64.5
c0 12.667 2.5 24.5 7.5 35.5s11.667 20.667 20 29s18 14.833 29 19.5s22.833 7 35.5 7s24.667 -2.33301 36 -7s21.166 -11.167 29.499 -19.5s14.833 -18 19.5 -29s7 -22.833 7 -35.5zM306 643c0 17.333 -6 32.166 -18 44.499s-27 18.5 -45 18.5
c-17.333 0 -32.166 -6.16699 -44.499 -18.5s-18.5 -27.166 -18.5 -44.499s6.16699 -32.166 18.5 -44.499s27.166 -18.5 44.499 -18.5c18 0 33 6.16699 45 18.5s18 27.166 18 44.499z" />
    <glyph glyph-name="Uhungarumlaut" unicode="&#x170;" horiz-adv-x="590" 
d="M539 219c0 -34 -6 -64.999 -18 -92.999s-28.833 -51.833 -50.5 -71.5s-47.5 -34.834 -77.5 -45.501s-62.667 -16 -98 -16c-36 0 -68.833 5.33301 -98.5 16s-55.167 26 -76.5 46s-38 44 -50 72s-18 59 -18 93v469h49v-461c0 -34 5.5 -63 16.5 -87s25.5 -43.667 43.5 -59
s38.667 -26.666 62 -33.999s47.333 -11 72 -11c25.333 0 49.833 3.66699 73.5 11s44.5 18.666 62.5 33.999s32.333 35 43 59s16 53 16 87v461h49v-470zM314 751.001l136 108l35 -37l-151 -93zM197 751.001l135 108l36 -37l-152 -93z" />
    <glyph glyph-name="uhungarumlaut" unicode="&#x171;" horiz-adv-x="482" 
d="M395 0l-8 68c-22.667 -14 -42.834 -25.667 -60.501 -35s-33.667 -17 -48 -23s-27.5 -10.167 -39.5 -12.5s-23.667 -3.5 -35 -3.5c-50.667 0 -89.667 13.833 -117 41.5s-41 69.834 -41 126.501v329h45v-318c0 -48.667 10.333 -83.5 31 -104.5s49.334 -31.5 86.001 -31.5
c24 0 51.667 7.16699 83 21.5s63.333 33.166 96 56.499v376h46v-491h-38zM170 575l79 154l48 -19l-99 -147zM271 575l79 154l48 -19l-99 -147z" />
    <glyph glyph-name="Uogonek" unicode="&#x172;" horiz-adv-x="590" 
d="M250 -91c0 12 2.49805 25.1709 7.49805 39.5039s13.5 29.166 25.5 44.499c-34 1.33301 -65.167 7.66602 -93.5 18.999s-52.666 26.833 -72.999 46.5s-36.166 43.167 -47.499 70.5s-17 57.666 -17 90.999v469h49v-461c0 -34 5.5 -63 16.5 -87s25.5 -43.667 43.5 -59
s38.667 -26.666 62 -33.999s47.333 -11 72 -11c25.333 0 49.833 3.66699 73.5 11s44.5 18.666 62.5 33.999s32.333 35 43 59s16 53 16 87v461h49v-470c0 -32.667 -5.5 -62.334 -16.5 -89.001s-26.333 -49.834 -46 -69.501s-43.167 -35.167 -70.5 -46.5s-57.333 -18 -90 -20
c-9.33301 -13.333 -16.166 -27 -20.499 -41s-6.5 -26.333 -6.5 -37c0 -18 5 -31.167 15 -39.5s23 -12.5 39 -12.5c17.333 0 36.666 5.33301 57.999 16l13 -30c-10 -5.33301 -21.833 -10.166 -35.5 -14.499s-28.167 -6.5 -43.5 -6.5c-26.667 0 -47.5 8 -62.5 24
s-22.5 34.667 -22.5 56z" />
    <glyph glyph-name="uogonek" unicode="&#x173;" horiz-adv-x="482" 
d="M354 -93c0 13.333 3.00098 28.167 9.00098 44.5s16.667 32.5 32 48.5l-8 68c-22.667 -14 -42.834 -25.667 -60.501 -35s-33.667 -17 -48 -23s-27.5 -10.167 -39.5 -12.5s-23.667 -3.5 -35 -3.5c-50.667 0 -89.667 13.833 -117 41.5s-41 69.834 -41 126.501v329h45v-318
c0 -48.667 10.333 -83.5 31 -104.5s49.334 -31.5 86.001 -31.5c24 0 51.667 7.16699 83 21.5s63.333 33.166 96 56.499v376h46v-491h-6c-12 -14.667 -20.667 -29.834 -26 -45.501s-8 -29.167 -8 -40.5c0 -18 5 -31.167 15 -39.5s23 -12.5 39 -12.5
c17.333 0 36.666 5.33301 57.999 16l13 -30c-10 -5.33301 -21.833 -10.166 -35.5 -14.499s-28.167 -6.5 -43.5 -6.5c-26.667 0 -47.5 8 -62.5 24s-22.5 34.667 -22.5 56z" />
    <glyph glyph-name="Wcircumflex" unicode="&#x174;" horiz-adv-x="838" 
d="M538 315l66 -250h2l64 251l97 373h51l-92.5 -344.5l-91.5 -344.5h-59l-96 362l-64 245l-88 -333l-74 -274h-58l-185 689h52l96 -372l32 -126.5l33 -126.5h1l67 254l98 371h51zM416 814l-130 -84l-18 21l131 109h37l127 -108l-18 -21z" />
    <glyph glyph-name="wcircumflex" unicode="&#x175;" horiz-adv-x="671" 
d="M425 256l65 -193h1l36 120.5l35 121.5l53 186h46l-144 -491h-48l-77 225l-56 163h-1l-57 -170l-74 -218h-48l-147 491h47l27 -91l26 -91l72 -246h1l45.5 134l45.5 135c7.33301 19.333 14 38.5 20 57.5l19 57.5h48zM348 654l-127 -98l-21 21l132 124h37l126 -123l-21 -21z
" />
    <glyph glyph-name="Ycircumflex" unicode="&#x176;" horiz-adv-x="490" 
d="M269 0h-47.999v259l-104 215l-105 215h53l78 -162l75 -160c5.33301 -9.33301 10.166 -18.333 14.499 -27l13.5 -27l101 216l77 160h51l-102.5 -214.5l-103.5 -213.5v-261zM247.001 814l-130 -84l-18 21l131 109h37l127 -108l-18 -21z" />
    <glyph glyph-name="ycircumflex" unicode="&#x177;" horiz-adv-x="428" 
d="M116 -198l72 200l-28 29l-153 459h47c13.333 -38 26 -76 38 -114l38 -115l75 -222h1l81 222l42 115l41 114h47l-126.5 -344.5l-126.5 -343.5h-48zM209 654l-127 -98l-21 21l132 124h37l126 -123l-21 -21z" />
    <glyph glyph-name="Ydieresis" unicode="&#x178;" horiz-adv-x="490" 
d="M269 0h-47.999v259l-104 215l-105 215h53l78 -162l75 -160c5.33301 -9.33301 10.166 -18.333 14.499 -27l13.5 -27l101 216l77 160h51l-102.5 -214.5l-103.5 -213.5v-261zM362.001 785c0 -9.33301 -3 -17 -9 -23s-13.667 -9 -23 -9c-8.66699 0 -16.167 3 -22.5 9
s-9.5 13.667 -9.5 23c0 8.66699 3.16699 16.167 9.5 22.5s13.833 9.5 22.5 9.5c9.33301 0 17 -3.16699 23 -9.5s9 -13.833 9 -22.5zM194.001 785c0 -9.33301 -3.16699 -17 -9.5 -23s-14.166 -9 -23.499 -9c-8 0 -15.167 3 -21.5 9s-9.5 13.667 -9.5 23
c0 8.66699 3.16699 16.167 9.5 22.5s13.5 9.5 21.5 9.5c9.33301 0 17.166 -3.16699 23.499 -9.5s9.5 -13.833 9.5 -22.5z" />
    <glyph glyph-name="Zacute" unicode="&#x179;" horiz-adv-x="516" 
d="M478 646l-380 -603h379v-43h-437v42l381 603h-365v44h422v-43zM209 751l136 108l35 -37l-151 -93z" />
    <glyph glyph-name="zacute" unicode="&#x17a;" horiz-adv-x="420" 
d="M30 0v37l297 415h-281v39h334v-37l-295 -414h295v-40h-350zM185 575l78 154l49 -19l-100 -147z" />
    <glyph glyph-name="Zdotaccent" unicode="&#x17b;" horiz-adv-x="516" 
d="M478 646l-380 -603h379v-43h-437v42l381 603h-365v44h422v-43zM239 807c0 8.66699 3.16699 16.334 9.5 23.001s14.166 10 23.499 10c10.667 0 19.167 -3.33301 25.5 -10s9.5 -14.334 9.5 -23.001c0 -9.33301 -3.16699 -17.5 -9.5 -24.5s-14.833 -10.5 -25.5 -10.5
c-9.33301 0 -17.166 3.33301 -23.499 10s-9.5 15 -9.5 25z" />
    <glyph glyph-name="zdotaccent" unicode="&#x17c;" horiz-adv-x="420" 
d="M30 0v37l297 415h-281v39h334v-37l-295 -414h295v-40h-350zM181 637c0 8.66699 3.16699 16.334 9.5 23.001s14.166 10 23.499 10c10.667 0 19.167 -3.33301 25.5 -10s9.5 -14.334 9.5 -23.001c0 -9.33301 -3.16699 -17.5 -9.5 -24.5s-14.833 -10.5 -25.5 -10.5
c-9.33301 0 -17.166 3.33301 -23.499 10s-9.5 15 -9.5 25z" />
    <glyph glyph-name="Zcaron" unicode="&#x17d;" horiz-adv-x="516" 
d="M478 646l-380 -603h379v-43h-437v42l381 603h-365v44h422v-43zM389 861l18 -21l-126 -109h-37l-131 110l17 21l130 -84z" />
    <glyph glyph-name="zcaron" unicode="&#x17e;" horiz-adv-x="420" 
d="M30 0v37l297 415h-281v39h334v-37l-295 -414h295v-40h-350zM339 701l21 -20l-126 -124h-37l-132 124l21 21l127 -97z" />
    <glyph glyph-name="florin" unicode="&#x192;" horiz-adv-x="467" 
d="M125 407l97 -0.000976562c5.33301 38.667 10.833 75.834 16.5 111.501s14.5 67 26.5 94s28.667 48.5 50 64.5s50 24 86 24c25.333 0 49.666 -3.66699 72.999 -11c-1.33301 -4 -2.83301 -9 -4.5 -15l-7.5 -26c-20 6.66699 -40.667 10 -62 10
c-24.667 0 -44.334 -5.5 -59.001 -16.5s-26.5 -27.167 -35.5 -48.5s-16.167 -47.666 -21.5 -78.999s-10.666 -67.333 -15.999 -108h111v-38h-116l-34 -243c-4.66699 -33.333 -10.5 -63.5 -17.5 -90.5s-16.667 -50 -29 -69s-28 -33.667 -47 -44s-42.5 -15.5 -70.5 -15.5
c-10.667 0 -23.167 1.16699 -37.5 3.5s-27.166 5.16602 -38.499 8.49902l12 39c22 -7.33301 42.333 -11 61 -11c32 0 57.5 11.333 76.5 34s32.167 60.667 39.5 114l39 274h-92v38z" />
    </font>
</defs>
</svg>
